<?xml version="1.0" encoding="UTF-8" standalone="no"?>
<!-- Generator: Adobe Illustrator 16.0.3, SVG Export Plug-In . SVG Version: 6.00 Build 0)  -->

<svg
   version="1.1"
   id="Capa_1"
   x="0px"
   y="0px"
   width="720"
   height="788.32648"
   viewBox="0 0 719.99996 788.32647"
   enable-background="new 0 0 595.28 841.89"
   xml:space="preserve"
   sodipodi:docname="Logo del Instituto Tecnológico de Mérida.svg"
   inkscape:version="1.2.1 (9c6d41e410, 2022-07-14)"
   xmlns:inkscape="http://www.inkscape.org/namespaces/inkscape"
   xmlns:sodipodi="http://sodipodi.sourceforge.net/DTD/sodipodi-0.dtd"
   xmlns="http://www.w3.org/2000/svg"
   xmlns:svg="http://www.w3.org/2000/svg"><defs
   id="defs259" /><sodipodi:namedview
   id="namedview257"
   pagecolor="#ffffff"
   bordercolor="#666666"
   borderopacity="1.0"
   inkscape:showpageshadow="2"
   inkscape:pageopacity="0.0"
   inkscape:pagecheckerboard="0"
   inkscape:deskcolor="#d1d1d1"
   showgrid="false"
   inkscape:zoom="0.51253726"
   inkscape:cx="-182.42576"
   inkscape:cy="401.922"
   inkscape:window-width="1920"
   inkscape:window-height="1017"
   inkscape:window-x="-8"
   inkscape:window-y="-8"
   inkscape:window-maximized="1"
   inkscape:current-layer="g252" />
<g
   id="g254"
   transform="translate(-242.53871,-360.5151)">
	<g
   id="g252">
		
		<path
   fill-rule="evenodd"
   clip-rule="evenodd"
   fill="#020101"
   d="m 601.77958,1148.8147 c -142.9901,-5.9246 -251.80967,-69.0362 -319.10487,-196.34423 -71.19298,-134.69434 -45.53258,-301.51938 59.98037,-411.62521 43.99295,-45.90937 96.35965,-78.13753 157.32095,-96.22323 4.97617,-1.47466 6.74965,-3.26115 6.6652,-8.86096 -0.40926,-26.51141 19.78124,-45.57806 46.27317,-43.99945 5.13857,0.30532 7.80205,-0.34431 10.28364,-5.81419 7.67864,-16.91637 21.6132,-25.80982 40.18614,-25.42004 18.48197,0.39628 31.98129,9.53657 39.19218,26.84272 1.74101,4.17063 3.26115,5.43741 8.2568,4.87223 26.07616,-2.96231 48.03366,17.03331 47.7933,43.24589 -0.0454,5.05412 0.73408,7.45775 6.20397,9.12081 96.32067,29.23985 168.39714,88.59656 215.98906,176.99176 34.78121,64.59273 47.68286,134.18762 39.19869,206.92022 -12.23904,104.9023 -61.5005,189.24378 -146.60855,251.80318 -59.05139,43.4083 -125.77491,65.879 -199.18963,67.9903 -2.06583,0.065 -4.13814,0.4027 -6.20397,0.4807 -2.07231,0.091 -4.15763,0.02 -6.23645,0.02 z"
   id="path4"
   style="stroke-width:6.4963" />
		
		<path
   fill-rule="evenodd"
   clip-rule="evenodd"
   fill="#7e0827"
   d="m 247.45176,806.20622 c 0.48073,-100.67969 26.16061,-174.89345 77.97512,-239.40173 46.9033,-58.40826 106.64329,-98.47096 179.05758,-118.90833 4.84625,-1.36422 7.5552,-2.96231 6.89258,-8.86095 -2.9948,-26.40097 18.05972,-47.42951 47.59191,-41.93364 3.61844,0.67562 4.70332,0.28585 5.87266,-3.39756 5.99609,-18.89124 19.07964,-28.49928 37.90593,-28.47979 18.71584,0.0195 31.54603,9.60154 37.69154,28.75913 1.18233,3.6964 2.53356,4.36552 6.00258,3.54048 26.3555,-6.26243 50.5932,14.49975 47.48798,41.15408 -0.64964,5.56734 1.27977,7.69812 6.4703,9.15329 54.66639,15.32478 102.61561,42.55078 144.15946,81.30773 52.28873,48.78073 86.93351,107.76716 103.57704,177.29058 10.31613,43.08348 12.01816,86.59572 6.37287,130.50422 -7.95147,61.85779 -31.00035,117.58958 -68.80883,166.94197 -48.01417,62.6893 -109.96291,105.4934 -186.21651,127.0287 -27.29096,7.7111 -55.06266,11.7908 -83.48398,12.8562 -85.80966,3.1961 -162.89478,-21.3469 -230.65122,-73.4537 -56.49185,-43.4473 -96.60002,-99.48438 -119.38904,-167.2603 -12.46641,-37.10038 -18.91724,-75.34411 -18.50797,-96.84038 z"
   id="path8"
   style="stroke-width:6.4963" />
		<path
   fill-rule="evenodd"
   clip-rule="evenodd"
   fill="#fefefe"
   d="m 914.45961,446.62939 c -21.05452,-0.052 -37.67856,-17.59849 -37.45118,-39.543 0.22737,-21.6002 16.91637,-38.97781 37.39272,-38.93233 20.84663,0.0454 37.63956,17.87781 37.4122,39.73138 -0.22737,21.81459 -16.60455,38.79591 -37.35374,38.74395 z"
   id="path10"
   style="stroke-width:6.4963" />
		<path
   fill-rule="evenodd"
   clip-rule="evenodd"
   fill="#010101"
   d="m 619.74835,516.49712 c 31.91634,0.1754 61.96824,8.66607 91.00671,21.04802 37.82797,16.13032 70.41992,39.86781 97.45102,70.7902 35.31391,40.38752 57.50527,87.02447 65.22288,140.40459 10.40708,71.86859 -5.00864,137.87752 -46.5525,197.06533 -44.25931,63.06614 -105.01272,101.02404 -181.33778,113.62034 -56.232,9.2832 -110.1643,1.3447 -161.14728,-23.3932 C 422.52711,1006.0195 377.79357,959.03173 350.44414,895.64731 333.138,855.53914 326.35585,813.6185 329.23371,770.31415 c 2.87786,-43.33033 15.55215,-84.01667 38.13329,-121.21451 35.88558,-59.11635 86.97251,-99.49087 152.65013,-121.09757 20.97655,-6.90557 42.5053,-11.56991 64.76162,-11.81677 1.50066,1.03941 2.4751,2.25421 1.33175,4.14464 -6.02207,4.80727 -13.50581,3.08574 -20.25547,4.08618 -22.4902,3.34559 -44.22683,9.00387 -65.29433,17.57898 -6.04806,2.4621 -9.6795,5.61281 -8.99738,12.53787 0.62364,6.3339 -2.96881,9.82891 -8.23732,12.74575 -32.95574,18.2546 -60.98078,42.27793 -83.33456,72.68063 -26.42046,35.93105 -42.37539,76.04571 -47.28009,120.45444 -5.49587,49.83313 1.77998,97.74985 25.21215,142.11961 40.68634,77.02665 104.16821,124.0079 190.91983,135.7142 87.26483,11.7778 161.51757,-16.546 221.08866,-80.95687 35.87907,-38.80242 56.81666,-85.40689 62.61786,-138.25432 7.93848,-72.41428 -11.21912,-137.04599 -58.02497,-192.81674 -19.79424,-23.58807 -43.34333,-43.37582 -70.82269,-57.86907 -5.98959,-3.1572 -9.3352,-7.13294 -8.55564,-14.06449 0.64314,-5.8012 -2.22823,-8.86096 -7.53571,-11.08269 -26.10214,-10.92029 -53.12675,-17.86483 -81.35968,-20.00862 -3.11823,-0.24036 -6.32741,-0.36379 -7.97746,-3.76135 -0.16891,-1.31225 -0.16241,-2.54006 1.47465,-2.93633 z"
   id="path12"
   style="stroke-width:6.4963" />
		<path
   fill-rule="evenodd"
   clip-rule="evenodd"
   fill="#d09700"
   d="m 586.07802,519.86221 c -0.43525,-1.22131 -0.8705,-2.44911 -1.30576,-3.67691 -1.11086,-6.09353 -2.22822,-12.18706 -3.3391,-18.2871 -0.90298,-4.94368 -4.06018,-1.89042 -5.92462,-1.35122 -10.92029,3.1442 -21.43131,7.86052 -33.15063,7.71111 -12.18057,-0.15592 -16.49412,-7.09396 -10.34861,-17.80637 5.74273,-10.00431 13.83063,-18.12468 22.78902,-25.32908 3.61844,-2.91035 4.84625,-4.77479 0.16241,-8.53614 -7.45126,-5.9896 -14.15544,-12.97312 -19.91116,-20.7297 -2.32569,-3.13122 -4.56041,-6.32091 -5.15807,-10.32263 -1.0524,-7.03549 1.80597,-10.55649 9.26372,-11.2451 12.55736,-1.16284 24.13377,3.18969 35.50879,7.28885 7.17842,2.58553 9.12082,1.20831 10.28365,-6.07404 1.50065,-9.41963 4.0407,-18.77432 7.83454,-27.60279 2.35816,-5.48937 5.11909,-11.21912 12.46641,-11.12167 7.08746,0.0974 9.53008,6.02857 11.64137,11.09568 3.88479,9.3222 6.62623,19.15111 8.12038,29.13592 0.88999,5.9701 3.09874,6.3404 8.12038,4.61237 10.51751,-3.61193 21.02852,-7.51622 32.40356,-7.49673 12.6353,0.0195 16.63053,6.76915 9.95233,17.54002 -6.05455,9.77044 -14.19443,17.80637 -22.87997,25.2966 -1.31226,1.13035 -4.59938,2.12429 -2.76093,4.56041 1.96837,2.60501 4.63836,5.37893 7.56169,6.32089 2.13728,0.68862 1.96839,-3.00778 2.2672,-4.89821 0.85102,-5.44389 3.07926,-7.48373 8.93892,-5.4244 5.57383,1.96188 11.5959,2.61801 17.4036,3.96274 7.09396,1.64356 8.97139,7.06798 4.99566,13.20698 -2.03335,3.14421 -4.14465,0.76007 -6.152,0.59766 -2.29969,-0.1884 -4.54092,-0.96795 -6.83411,-1.38371 -1.04591,-0.1884 -2.16977,0.0454 -2.54656,1.18882 -0.47422,1.44218 0.16242,2.54656 1.61758,2.9818 1.2343,0.37679 2.52707,0.55868 3.79384,0.83802 4.09917,0.91598 8.2568,1.37073 6.30791,7.71112 -1.90341,6.17798 -1.52013,6.29491 -9.4716,5.13857 -0.61066,2.26722 0.24036,4.71632 2.15677,4.87223 9.15978,0.76657 4.91121,6.61324 4.06668,10.67993 -1.33824,6.41834 -5.82069,2.76742 -9.3027,2.43611 -15.53266,-1.47466 -30.70153,-4.48246 -45.22727,-10.30963 -3.74836,-1.50715 -5.12557,0.0779 -5.80768,3.64442 -1.11737,5.84017 -2.57254,11.62189 -3.8848,17.42308 -0.20138,1.12386 -0.40926,2.24772 -0.61714,3.37159 1.12386,9.45861 -3.37807,16.663 -10.38759,21.86006 -4.85274,3.59244 -10.75788,2.10479 -14.83756,-2.32569 -4.95668,-5.41791 -8.52964,-11.71283 -7.80855,-19.55386 z"
   id="path14"
   style="stroke-width:6.4963" />
		<path
   fill-rule="evenodd"
   clip-rule="evenodd"
   fill="#d09700"
   d="m 334.61265,953.19156 c 4.72931,-1.01992 9.62103,-1.57211 14.13596,-3.17669 5.67776,-2.02035 8.32825,0.1754 10.82933,5.04113 5.14507,10.00431 5.37245,9.88088 -3.46903,16.74097 -8.79599,6.82762 -17.68293,13.54479 -26.33601,20.5543 -3.01428,2.43611 -4.50843,3.13772 -6.90556,-0.94846 -6.28193,-10.74489 -6.5093,-10.58898 3.20268,-17.77388 2.42311,-1.78649 4.7358,-3.72239 6.52228,-6.81462 -4.96968,1.06539 -9.93285,2.12429 -14.89602,3.20267 -3.3391,0.72759 -6.22995,1.45518 -8.37373,-2.7999 -1.89043,-3.76136 -2.44262,-6.21696 1.07188,-9.34818 3.81333,-3.39757 6.93156,-7.58118 11.10868,-12.27152 -5.93113,0.54569 -10.0043,3.1637 -14.35033,4.89172 -10.0108,3.96924 -9.21176,-5.91164 -12.06364,-10.08226 -3.6704,-5.35945 3.05327,-4.70983 5.22304,-5.56084 11.30356,-4.45646 22.86048,-8.25679 34.26149,-12.45341 3.99523,-1.47466 6.33389,-1.05889 8.63358,3.20268 6.02858,11.16714 6.38587,11.09568 -2.84537,20.05408 -2.18276,2.11779 -5.07362,3.521 -7.63965,5.24901 0.64313,0.76007 1.26677,1.52014 1.89042,2.2932 z"
   id="path16"
   style="stroke-width:6.4963" />
		<path
   fill-rule="evenodd"
   clip-rule="evenodd"
   fill="#d09700"
   d="m 875.57924,962.32536 c 3.98223,2.27371 7.88651,4.72281 11.98568,6.76915 4.17063,2.07231 4.98916,4.53442 2.38414,8.56212 -7.33433,11.36204 -3.70938,11.10219 -15.59762,4.35253 -9.23775,-5.25551 -18.33257,-10.75138 -27.64826,-15.86398 -4.2226,-2.31917 -4.88522,-4.11216 -2.54655,-8.9649 3.90427,-8.11388 9.80941,-10.51101 17.96877,-10.14721 4.13814,0.18839 8.28278,0.0325 13.5253,0.0325 -4.30056,-4.67734 -9.25073,-6.70418 -13.82413,-8.99738 -4.19661,-2.09831 -4.46297,-4.26157 -1.99437,-7.7176 1.35124,-1.89693 2.59852,-3.91078 3.57946,-6.00909 1.48766,-3.21567 3.05327,-4.13814 6.50281,-2.05283 11.09568,6.6847 22.34078,13.12253 33.64434,19.45643 3.57946,2.00735 4.55391,3.77435 2.59852,7.94498 -3.5015,7.45775 -7.78256,12.45341 -16.98133,11.12817 -4.30055,-0.63015 -8.77651,-0.11045 -13.168,-0.11045 -0.14293,0.5392 -0.28584,1.07839 -0.42876,1.61758 z"
   id="path18"
   style="stroke-width:6.4963" />
		<path
   fill-rule="evenodd"
   clip-rule="evenodd"
   fill="#d09700"
   d="m 288.96314,757.406 c 5.23601,1.63707 9.67299,2.65049 14.2139,2.44911 7.34083,-0.31183 8.00345,3.92376 6.91856,9.51708 -0.94196,4.80727 -0.1559,10.21218 -8.86095,8.16585 -11.77779,-2.78042 -23.98435,-3.81983 -36.05448,-5.17106 -4.24209,-0.47423 -5.11259,-2.2737 -4.80077,-6.02857 0.64963,-7.79556 2.17626,-14.46726 11.53744,-16.46163 4.68383,-0.99393 9.00387,-3.67691 15.4612,-6.44433 -6.8536,-0.98744 -11.68685,-1.96838 -16.56557,-2.30619 -4.63187,-0.32481 -6.24295,-2.20225 -5.84668,-6.89907 0.92897,-10.96576 1.20831,-11.52444 11.9467,-10.19919 11.28407,1.3902 22.51619,3.22865 33.80026,4.66434 3.23516,0.40927 4.28107,1.69554 4.33304,4.96967 0.1754,10.19919 -1.85145,13.60326 -11.11517,17.45556 -4.7423,1.95539 -9.45862,3.96925 -14.96748,6.28843 z"
   id="path20"
   style="stroke-width:6.4963" />
		<path
   fill-rule="evenodd"
   clip-rule="evenodd"
   fill="#d09700"
   d="m 755.81341,516.08785 c -2.49458,4.49545 -5.15807,8.91942 -7.43177,13.52531 -1.72802,3.508 -3.65742,4.66434 -7.14593,2.20224 -1.89043,-1.33174 -4.03421,-2.33217 -6.12602,-3.35859 -3.40406,-1.66955 -4.385,-3.65741 -2.24772,-7.32783 6.4963,-11.19962 12.79122,-22.51618 18.91724,-33.92369 1.90341,-3.53398 3.57946,-3.83281 7.30833,-2.26071 8.02943,3.39756 12.6613,8.13987 11.2451,17.5595 -0.68211,4.54742 -0.12342,9.28322 -0.12342,15.23383 4.93069,-4.79427 6.73017,-10.18619 9.43912,-14.87653 4.53442,-7.87352 8.16585,-0.68861 12.01816,0.45475 3.89779,1.16283 6.13252,3.17018 3.38457,7.91899 -6.63272,11.414 -12.89515,23.04887 -19.12511,34.69025 -1.59809,2.9818 -3.02727,3.09224 -6.07404,1.84495 -8.77001,-3.59246 -14.19442,-8.73104 -12.22605,-19.21606 0.7276,-3.91078 0.11694,-8.0749 0.11694,-12.1221 -0.64313,-0.0974 -1.28626,-0.22088 -1.9294,-0.34431 z"
   id="path22"
   style="stroke-width:6.4963" />
		<path
   fill-rule="evenodd"
   clip-rule="evenodd"
   fill="#d09700"
   d="m 906.0469,637.20492 c -0.1039,14.33084 -11.56991,25.92673 -25.54996,25.82929 -14.86354,-0.10391 -26.349,-12.26501 -26.24506,-27.79768 0.10391,-14.31784 11.27758,-25.18616 25.85529,-25.14718 14.62316,0.052 26.04367,11.99217 25.93973,27.11557 z"
   id="path24"
   style="stroke-width:6.4963" />
		<path
   fill-rule="evenodd"
   clip-rule="evenodd"
   fill="#d09700"
   d="m 891.43672,832.18493 c 0.0649,-15.83798 10.83583,-27.11557 25.77082,-26.96615 14.22691,0.13643 26.23857,12.49889 25.86828,26.62834 -0.38978,15.14939 -11.36853,26.23207 -26.05667,26.29054 -15.2793,0.0585 -25.6474,-10.45904 -25.58243,-25.95273 z"
   id="path26"
   style="stroke-width:6.4963" />
		<path
   fill-rule="evenodd"
   clip-rule="evenodd"
   fill="#d09700"
   d="m 497.76079,501.20482 c -0.0974,14.73361 -12.07663,26.08266 -27.25848,25.82931 -14.4153,-0.24037 -25.21216,-11.93372 -24.99128,-27.0701 0.21438,-14.17494 12.28451,-25.53047 26.93367,-25.33558 14.82456,0.18839 25.41354,11.31006 25.31609,26.57637 z"
   id="path28"
   style="stroke-width:6.4963" />
		<path
   fill-rule="evenodd"
   clip-rule="evenodd"
   fill="#d09700"
   d="m 813.89035,527.03413 c 16.37719,0.55867 27.10908,11.76479 26.65433,27.81066 -0.40277,13.87611 -12.43392,24.65347 -26.95965,24.14026 -14.02552,-0.49371 -26.08266,-13.04457 -25.8423,-26.90119 0.24687,-14.0385 12.23904,-25.52397 26.14762,-25.04973 z"
   id="path30"
   style="stroke-width:6.4963" />
		<path
   fill-rule="evenodd"
   clip-rule="evenodd"
   fill="#d09700"
   d="m 478.25889,1107.5373 c -6.20397,-0.182 -14.60369,-5.2491 -23.58808,-8.3803 -2.47508,-0.8641 -2.6245,-2.5726 -1.62407,-4.9826 5.2685,-12.6679 10.42007,-25.3877 15.46769,-38.1464 1.27977,-3.2351 3.11174,-3.6119 6.02208,-2.2672 6.80812,3.1442 13.98004,5.6323 20.45036,9.3482 9.76395,5.6064 13.42136,16.5006 10.19919,27.6027 -3.12472,10.7839 -11.65437,16.9684 -26.92717,16.8256 z"
   id="path32"
   style="stroke-width:6.4963" />
		<path
   fill-rule="evenodd"
   clip-rule="evenodd"
   fill="#d09700"
   d="m 899.45965,701.50532 c -3.36508,-7.13294 1.5656,-7.7436 5.76221,-9.31571 5.76872,-2.16326 5.02815,2.87137 6.13902,5.43091 1.63707,3.78735 2.65699,7.84754 3.99522,11.7713 2.79991,8.21783 1.99436,9.41314 -6.93155,10.15372 -13.30443,1.10438 -22.75006,-4.28755 -27.47936,-15.69506 -4.17063,-10.03029 -1.76051,-22.72406 5.59981,-29.57117 7.8865,-7.33433 21.84057,-8.98438 31.17575,-3.67691 12.21305,6.93805 17.0463,25.27062 9.78993,36.71061 -1.89043,2.9753 -3.27414,4.34603 -6.08053,0.67561 -3.50152,-4.57339 -8.41271,-7.98395 -6.36638,-15.2793 1.09787,-3.92377 -2.44911,-6.81462 -6.37937,-7.41227 -5.24252,-0.79256 -10.0238,1.05239 -12.79122,5.57381 -2.40364,3.93676 -1.66955,7.94499 3.56647,10.63446 z"
   id="path34"
   style="stroke-width:6.4963" />
		<path
   fill-rule="evenodd"
   clip-rule="evenodd"
   fill="#d09700"
   d="m 406.86453,1070.8721 c -9.99132,-6.0936 -19.69029,-11.2711 -14.83755,-25.1927 -0.88351,0.838 -2.1178,1.5007 -2.58554,2.5271 -2.97531,6.4638 -6.47681,5.4114 -11.01123,1.4227 -9.07533,-7.984 -8.67256,-4.5409 -1.81896,-13.7657 6.79513,-9.1468 14.06449,-17.9428 20.9116,-27.0506 2.51406,-3.3456 4.58638,-4.0862 7.99044,-1.1044 4.47595,3.9173 9.3352,7.3993 14.058,11.0243 6.56777,5.0541 9.93285,11.6478 7.3928,19.7162 -2.2802,7.2174 -7.17192,11.9662 -15.72755,10.4786 -3.09874,-0.5327 -2.43611,1.8969 -2.60502,3.5015 -0.61714,5.8986 -1.14335,11.8102 -1.76699,18.443 z"
   id="path36"
   style="stroke-width:6.4963" />
		<path
   fill-rule="evenodd"
   clip-rule="evenodd"
   fill="#d09700"
   d="m 411.75624,559.2298 c -0.007,10.03029 -6.60024,19.00168 -16.50061,23.04238 -8.32826,3.39757 -15.76003,1.52014 -23.09436,-6.10653 -5.39842,-5.6063 -10.42655,-11.56991 -15.92893,-17.06578 -3.03377,-3.02727 -3.40406,-4.59938 0.30534,-7.7306 9.57554,-8.06191 9.37416,-8.34774 18.2546,1.0394 3.56647,3.76787 6.87958,7.78258 10.60197,11.38153 1.97487,1.90992 4.48894,4.0407 7.45775,1.29926 2.9883,-2.76093 1.08488,-5.4439 -0.75357,-7.50323 -5.00865,-5.6128 -10.19919,-11.08269 -15.56514,-16.36418 -3.63144,-3.57297 -3.40406,-5.92463 0.67562,-9.20526 9.10131,-7.31484 8.9649,-7.57469 17.24118,1.18881 4.09917,4.33304 8.12687,8.75053 11.99218,13.28495 3.24814,3.79384 6.03506,7.89951 5.31397,12.73925 z"
   id="path38"
   style="stroke-width:6.4963" />
		<path
   fill-rule="evenodd"
   clip-rule="evenodd"
   fill="#d09700"
   d="m 666.63867,1126.37 c -10.69292,-0.039 -16.95536,-4.4825 -19.89818,-14.896 -2.31269,-8.1984 -3.80034,-16.6306 -6.06105,-24.8418 -1.06539,-3.8784 -0.55219,-5.8922 3.77436,-6.1781 1.52013,-0.097 3.12471,-0.4483 4.48893,-1.1109 7.35382,-3.5469 9.3287,0.5587 10.46555,6.8146 1.20832,6.5938 2.92984,13.1031 4.53442,19.6189 0.65613,2.6505 1.9489,5.2944 5.22302,4.4435 3.14422,-0.825 4.34603,-3.2222 3.48203,-6.6652 -1.63058,-6.5223 -2.50758,-13.2654 -4.60588,-19.6188 -2.33867,-7.068 0.1754,-9.3418 6.89907,-10.9723 6.56127,-1.5981 10.08875,-1.1824 11.05021,6.3403 0.77955,6.1325 2.44261,12.1547 3.80034,18.2093 3.98873,17.6829 -5.00865,28.9215 -23.15282,28.8565 z"
   id="path40"
   style="stroke-width:6.4963" />
		<path
   fill-rule="evenodd"
   clip-rule="evenodd"
   fill="#d09700"
   d="m 839.25841,1038.436 c -8.02293,-14.2204 -15.96141,-28.3693 -23.99733,-42.4533 -1.25379,-2.20874 -0.64315,-3.59246 0.76006,-5.48288 9.51059,-12.8107 9.45212,-12.84968 24.16625,-7.029 10.08875,3.98874 20.15802,8.02294 30.27926,11.91422 3.7029,1.4227 5.2685,2.89086 1.67605,6.30146 -2.61152,2.4815 -4.78778,5.4244 -7.17842,8.1463 -1.01342,1.1499 -1.90341,1.9554 -3.87829,1.6956 -7.1979,-0.955 -11.45948,3.9302 -9.68599,11.1411 0.45475,1.8645 -0.013,3.0078 -1.11736,4.0992 -3.66391,3.6119 -6.08054,8.3997 -11.02423,11.6673 z"
   id="path42"
   style="stroke-width:6.4963" />
		<path
   fill-rule="evenodd"
   clip-rule="evenodd"
   fill="#d09700"
   d="m 761.34176,1035.7855 c 1.69554,1.2213 3.21567,2.2088 4.59938,3.3586 10.57599,8.77 21.03503,17.67 31.71496,26.2971 3.80683,3.0793 3.76785,5.1255 -0.83153,6.6911 -5.19704,1.7606 -8.55563,9.3872 -16.35119,3.8979 -1.99437,-1.4097 -8.77001,2.0787 -10.08876,7.2628 -0.99394,3.9173 -10.34212,13.0381 -13.90209,12.9081 -2.63101,-0.097 -2.48159,-2.5011 -2.78691,-3.9757 -2.87137,-13.9345 -5.52836,-27.9146 -8.30228,-41.8621 -0.64313,-3.2092 0.23387,-5.3985 3.24815,-7.0226 4.32654,-2.3256 8.45169,-5.0021 12.70027,-7.5552 z"
   id="path44"
   style="stroke-width:6.4963" />
		<path
   fill-rule="evenodd"
   clip-rule="evenodd"
   fill="#d09700"
   d="m 507.36882,1119.328 c 8.30877,-14.0905 16.37068,-27.6418 24.28967,-41.271 1.53313,-2.631 3.29363,-3.7029 6.31441,-2.8713 3.23516,0.8899 6.5093,1.8969 9.82241,2.1307 4.49545,0.3183 6.23645,2.6765 6.76914,6.7691 1.76051,13.5903 3.47553,27.1936 5.52187,40.7383 0.60415,4.0148 -0.65613,5.7233 -4.27457,4.3721 -5.24902,-1.9554 -12.58334,0.89 -15.20135,-7.8476 -0.95496,-3.1897 -8.89993,-4.8007 -10.9073,-2.3062 -5.59981,6.9576 -11.23859,2.0464 -16.83191,1.7866 -1.51364,-0.071 -2.98831,-0.7926 -5.50237,-1.5007 z"
   id="path46"
   style="stroke-width:6.4963" />
		<path
   fill-rule="evenodd"
   clip-rule="evenodd"
   fill="#d09700"
   d="m 308.01678,700.93364 c -4.07967,0.3443 -4.44995,4.02121 -6.11302,6.41834 -3.52099,5.07362 -7.98395,8.35425 -14.45427,6.88609 -6.51579,-1.48116 -11.5894,-5.19055 -12.94713,-11.99217 -1.33173,-6.69769 -0.81853,-13.40188 2.6505,-19.65132 5.13208,-9.23774 5.7882,-9.23774 13.8696,-2.81289 3.22866,2.56603 2.91035,3.94974 0.43526,6.60673 -2.22824,2.37764 -4.38501,5.22303 -2.24773,8.98439 3.66392,-0.44825 3.96925,-3.83282 5.52836,-6.02857 3.70938,-5.24252 7.50973,-9.97183 15.14937,-8.0944 8.52965,2.09182 13.42786,7.06798 14.33085,15.25332 0.74057,6.71068 -1.08488,12.81071 -4.34603,18.6314 -5.55433,9.90036 -6.55476,9.99781 -15.23383,3.08574 -2.96231,-2.35167 -3.59895,-3.71589 -0.66912,-6.47032 2.9818,-2.7999 6.02207,-5.89215 4.04719,-10.81634 z"
   id="path48"
   style="stroke-width:6.4963" />
		<path
   fill-rule="evenodd"
   clip-rule="evenodd"
   fill="#d09700"
   d="m 395.86629,999.6726 c -1.72802,3.7873 -5.19704,5.34 -8.02294,7.4513 -2.42312,1.8124 -3.44953,-1.0914 -5.03463,-2.1633 -2.78042,-1.8904 -4.50194,-8.28929 -7.62016,-5.67128 -2.94933,2.48808 2.33867,5.91168 4.51493,8.36728 2.95582,3.3326 0.30532,4.7033 -1.62407,5.9895 -2.39714,1.5852 -3.8718,6.4834 -8.13988,2.8974 -0.59116,-0.4937 -0.95496,-1.3058 -1.59809,-1.689 -2.52056,-1.4942 -3.31961,-7.9645 -7.07447,-4.4175 -2.4751,2.3257 2.03334,5.8142 4.32004,7.8345 4.85924,4.3136 2.00086,6.6068 -1.39021,9.6665 -3.55997,3.2222 -5.89864,4.1511 -9.23773,-0.4937 -4.37852,-6.0935 -9.57556,-11.5959 -14.48676,-17.2932 -2.25422,-2.605 -2.50109,-4.6708 0.48722,-7.0939 10.27065,-8.32828 20.39839,-16.83844 30.53911,-25.31612 2.10481,-1.7605 3.77436,-3.36508 6.27543,-0.20788 5.33347,6.6847 10.99174,13.11603 16.49412,19.6708 0.62364,0.76007 1.08488,1.67605 1.59809,2.4686 z"
   id="path50"
   style="stroke-width:6.4963" />
		<path
   fill-rule="evenodd"
   clip-rule="evenodd"
   fill="#d09700"
   d="m 915.08326,797.02695 c -3.59246,0 -5.90515,-0.007 -8.22433,0 -11.66085,0.0259 -13.94106,-2.17627 -13.21997,-13.96056 0.63664,-10.27715 5.11259,-18.63139 14.92201,-22.71107 9.96532,-4.15114 19.91116,-3.46903 28.40833,3.8588 8.36724,7.21739 9.10781,16.93586 7.7306,27.11557 -0.42875,3.19618 -2.51407,4.27457 -5.4569,4.27457 -4.12514,-0.013 -8.2503,-0.007 -13.0056,-0.007 2.42963,-6.53528 5.8142,-12.98611 -1.55911,-17.68943 -3.44954,-2.20224 -7.74358,-2.29969 -10.91378,0.48073 -6.51579,5.72974 -2.2802,11.73232 1.31875,18.63789 z"
   id="path52"
   style="stroke-width:6.4963" />
		<path
   fill-rule="evenodd"
   clip-rule="evenodd"
   fill="#d09700"
   d="m 734.3951,494.44867 c -4.69033,-6.07404 -9.56905,-10.55 -16.689,-6.47681 -4.01471,2.29969 -5.13858,6.95104 -3.5145,10.99823 2.90385,7.25637 9.27672,6.97703 15.77302,5.37245 0.66912,3.38457 -1.26028,5.69076 -2.27371,8.16585 -3.98872,9.79642 -6.94454,10.86182 -16.81242,6.43133 -9.58205,-4.30055 -15.1104,-11.54392 -15.61062,-22.15887 -0.50671,-10.80336 3.98873,-19.5279 13.36289,-24.51056 9.59505,-5.1061 19.52789,-3.71588 28.71366,2.20225 2.41013,1.55262 3.81982,3.28063 2.43611,6.40536 -1.85144,4.19661 -3.39756,8.51665 -5.38543,13.57077 z"
   id="path54"
   style="stroke-width:6.4963" />
		<path
   fill-rule="evenodd"
   clip-rule="evenodd"
   fill="#d09700"
   d="m 735.48648,1073.2367 c -7.19791,-1.7345 -13.09655,-1.754 -16.09134,4.398 -2.23473,4.5734 -1.0719,9.686 3.57297,12.304 7.52271,4.2291 11.7648,-2.0009 16.4941,-7.0939 0.91598,2.0008 1.73452,3.2546 2.07233,4.6318 1.12385,4.5734 6.24944,9.2248 2.6245,13.6748 -4.78128,5.8726 -12.34947,7.815 -19.73576,7.3668 -13.75917,-0.825 -24.06881,-12.1027 -24.36764,-25.6539 -0.29232,-13.2655 10.01731,-24.8029 23.64655,-26.531 3.07274,-0.3897 5.45039,-0.2598 6.55477,3.5016 1.23429,4.1966 3.1637,8.1918 5.22952,13.4018 z"
   id="path56"
   style="stroke-width:6.4963" />
		<path
   fill-rule="evenodd"
   clip-rule="evenodd"
   fill="#d09700"
   d="m 609.38675,1095.3697 c 6.62623,-14.2725 7.26937,-14.5777 24.80288,-13.5578 -0.1624,4.4044 -3.04676,7.6006 -5.0931,10.9657 -6.09353,9.9914 -11.68685,19.6059 -9.19876,32.4231 1.97488,10.1731 -7.24987,5.6712 -11.80378,6.8535 -5.37894,1.3968 -7.11345,-1.676 -6.23645,-6.4637 2.72195,-14.8311 -7.32133,-24.6081 -13.92158,-35.7817 -1.10437,-1.871 -3.91727,-3.6834 -2.18925,-5.9182 0.90948,-1.1758 3.78734,-0.8575 5.78821,-1.1498 8.62708,-1.2472 16.03936,-0.2339 17.85183,12.6289 z"
   id="path58"
   style="stroke-width:6.4963" />
		<path
   fill-rule="evenodd"
   clip-rule="evenodd"
   fill="#d09700"
   d="m 301.45552,629.89657 c 2.96882,1.31875 5.9896,2.79341 9.12081,4.00823 4.9112,1.90341 3.11173,4.95017 1.61758,8.08788 -1.50065,3.15071 0.97444,4.11867 3.06626,5.1126 6.54827,3.10523 13.03158,6.38587 19.74226,9.10132 4.35253,1.7605 5.54784,3.98223 3.17019,8.10738 -1.16284,2.01385 -2.18925,4.13165 -2.98829,6.3144 -1.35124,3.7094 -3.23516,4.46946 -6.92507,2.55956 -6.88607,-3.57297 -14.07099,-6.57426 -21.04152,-9.98482 -2.81289,-1.37073 -4.45646,-1.29926 -5.90513,1.92939 -4.16414,9.28322 -8.91943,0.89649 -13.1875,-0.013 -5.54784,-1.18232 -2.72845,-4.78127 -1.35773,-7.7306 3.71589,-7.97745 7.37331,-15.9809 11.13466,-23.93887 0.70811,-1.50714 0.92248,-3.67042 3.55348,-3.55348 z"
   id="path60"
   style="stroke-width:6.4963" />
		<path
   fill-rule="evenodd"
   clip-rule="evenodd"
   fill="#d09700"
   d="m 425.81424,496.26763 c 4.17712,2.66349 5.76872,6.94455 8.31526,10.43307 2.09831,2.87786 -0.35079,4.35901 -2.28669,5.48937 -3.44304,2.00736 -3.04676,4.07968 -0.98744,6.89258 4.28756,5.85966 8.17885,12.01816 12.58984,17.77388 2.88435,3.76136 2.77391,6.26893 -1.58511,8.52965 -2.04633,1.06539 -3.97573,2.50107 -5.67776,4.07967 -3.24166,3.01429 -5.12558,1.75401 -7.23039,-1.45517 -4.11865,-6.28841 -8.5881,-12.34947 -12.85618,-18.54045 -1.53313,-2.22823 -2.71545,-4.45646 -5.99608,-2.03333 -9.19877,6.79513 -8.90644,-4.15764 -12.19356,-7.24988 -4.46946,-4.20961 1.7475,-5.22953 3.83282,-6.84711 6.35337,-4.9177 13.03158,-9.41314 19.59284,-14.0515 1.47466,-1.0459 2.9818,-2.00735 4.48245,-3.02078 z"
   id="path62"
   style="stroke-width:6.4963" />
		<path
   fill-rule="evenodd"
   clip-rule="evenodd"
   fill="#d09700"
   d="m 829.01375,1046.1212 c -3.38458,4.2291 -7.1979,7.7306 -11.52445,10.5435 -3.52099,2.2802 -4.30055,-1.8515 -5.7947,-3.4106 -5.00215,-5.2555 -9.64701,-10.8488 -14.46077,-16.2927 -1.5851,-1.793 -3.11172,-3.6315 -5.72324,-1.2018 -8.39971,7.815 -9.50409,-2.9234 -13.05756,-5.7688 -4.5799,-3.6574 1.19531,-5.5088 3.1507,-7.3408 6.05455,-5.6648 12.61582,-10.7708 18.71585,-16.3901 3.11173,-2.8649 5.22302,-3.547 7.84103,0.5262 2.87137,4.4629 10.11474,7.8215 1.67605,13.941 -2.22173,1.6111 0.90298,4.1901 2.26071,5.8207 4.46946,5.3854 9.18578,10.563 13.79815,15.838 1.00693,1.1498 1.96188,2.3452 3.11823,3.7354 z"
   id="path64"
   style="stroke-width:6.4963" />
		<path
   fill-rule="evenodd"
   clip-rule="evenodd"
   fill="#d09700"
   d="m 357.1873,575.3861 c -0.96794,1.37072 -1.42269,2.36466 -2.17626,3.00779 -4.03421,3.43655 -1.55911,5.54784 1.34473,7.85403 5.67127,4.50193 11.00474,9.45861 16.90338,13.62924 3.59246,2.54006 3.03378,4.29406 0.87051,7.31484 -7.49673,10.44605 -7.39929,10.50452 -16.98134,2.73494 -3.41705,-2.76743 -7.05498,-5.2815 -10.28365,-8.2503 -3.93025,-3.60546 -7.40578,-6.80163 -11.08268,0.27285 -1.2473,2.41012 -3.13772,0.81203 -4.52793,-0.24037 -2.2672,-1.72153 -4.24208,-3.85881 -6.63273,-5.36595 -3.1572,-2.00086 -2.54005,-3.66391 -0.48721,-6.11302 5.9701,-7.13943 11.66085,-14.50624 17.61147,-21.66517 1.29277,-1.55262 2.40364,-4.67084 5.42442,-2.36465 3.60544,2.74793 7.41228,5.35295 10.01729,9.18577 z"
   id="path66"
   style="stroke-width:6.4963" />
		<path
   fill-rule="evenodd"
   clip-rule="evenodd"
   fill="#d09700"
   d="m 871.40212,577.98462 c -1.18233,1.26678 -2.08531,2.48158 -3.22217,3.41705 -4.80726,3.94976 -9.68599,7.80207 -14.51924,11.70634 -7.69811,6.21696 -7.94497,6.45083 -1.2343,13.82414 3.58597,3.94325 3.93027,6.35338 -0.5132,9.80941 -8.87394,6.89907 -7.34732,6.91207 -13.90858,-1.53962 -4.13165,-5.32697 -8.49717,-10.46555 -12.84969,-15.61061 -2.25421,-2.66349 -2.35166,-4.77478 0.60416,-7.11996 10.55649,-8.36723 21.04801,-16.81892 31.42911,-25.40703 2.33867,-1.9359 3.80683,-1.96839 5.64528,0.43525 2.67648,3.495 5.55434,6.82112 8.56863,10.48503 z"
   id="path68"
   style="stroke-width:6.4963" />
		<path
   fill-rule="evenodd"
   clip-rule="evenodd"
   fill="#cf9501"
   d="m 278.61452,806.31666 c -2.59202,0 -5.24901,-0.33781 -7.78256,0.0585 -7.59419,1.20181 -10.60846,-1.22781 -10.45256,-9.47811 0.12993,-6.78214 1.13036,-9.54307 8.75052,-9.28972 10.58897,0.3638 21.28189,0.80555 31.87736,-0.8575 6.37287,-1.00693 10.80335,0.38977 9.3027,8.38672 -0.3313,1.7605 -0.1754,3.63793 -0.026,5.44391 0.27284,3.31961 -1.08488,4.78776 -4.46296,4.60587 -9.10132,-0.49372 -18.0922,2.01386 -27.20651,1.13036 z"
   id="path70"
   style="stroke-width:6.4963" />
		<path
   fill-rule="evenodd"
   clip-rule="evenodd"
   fill="#d09700"
   d="m 315.88381,605.32106 c 13.47333,7.86053 26.7128,15.52616 39.86781,23.32823 1.9359,1.14984 0.39627,2.76742 -0.29883,4.04069 -1.61108,2.96232 -3.40406,5.82719 -4.94369,8.82198 -1.53313,2.97531 -3.37158,3.3456 -6.24944,1.64357 -11.62189,-6.8601 -23.27625,-13.65523 -35.04755,-20.26197 -2.91684,-1.63707 -3.81334,-3.22217 -1.70853,-5.96361 2.86487,-3.72887 3.521,-9.14029 8.38023,-11.60889 z"
   id="path72"
   style="stroke-width:6.4963" />
		<path
   fill-rule="evenodd"
   clip-rule="evenodd"
   fill="#d09700"
   d="m 459.75093,1046.6734 c -0.98745,1.585 -1.68905,2.6764 -2.35816,3.7873 -6.40536,10.6929 -13.10954,21.2104 -19.06666,32.1372 -2.82588,5.1775 -5.48287,5.275 -9.56255,2.0528 -1.21481,-0.955 -2.57254,-1.832 -4.00172,-2.3906 -5.17755,-2.0204 -5.4504,-4.6449 -2.43611,-9.2767 6.63922,-10.2252 12.95362,-20.6972 18.8003,-31.3902 2.71544,-4.9761 5.40492,-4.7942 9.04285,-1.8254 3.04677,2.4881 7.54221,3.1702 9.58205,6.9056 z"
   id="path74"
   style="stroke-width:6.4963" />
		<path
   fill-rule="evenodd"
   clip-rule="evenodd"
   fill="#d09700"
   d="m 895.25654,751.28648 c -1.77998,0.6886 -2.66349,-1.70203 -3.01428,-4.06019 -2.2932,-15.33128 -5.56734,-12.96662 9.54956,-15.77952 9.88738,-1.84494 19.77474,-3.76786 29.57117,-6.03506 4.81376,-1.11087 7.19141,-0.50671 8.2568,5.06061 2.29969,12.04415 2.60501,11.79079 -9.33518,13.8891 -11.16715,1.96188 -22.26283,4.37851 -35.02807,6.92506 z"
   id="path76"
   style="stroke-width:6.4963" />
		<path
   fill-rule="evenodd"
   clip-rule="evenodd"
   fill="#cf9600"
   d="m 305.73009,866.17359 c -0.14292,6.92506 -4.30055,10.86182 -11.36853,10.77087 -6.6847,-0.0844 -12.20655,-5.50237 -11.90772,-11.68035 0.29883,-6.00908 5.59981,-10.77737 11.96619,-10.76438 7.3863,0.0195 11.47247,4.23559 11.31006,11.67386 z"
   id="path78"
   style="stroke-width:6.4963" />
		<path
   fill-rule="evenodd"
   clip-rule="evenodd"
   fill="#d09600"
   d="m 910.90613,891.24282 c -0.052,6.68469 -5.38544,12.04414 -11.72582,11.7583 -6.13901,-0.27283 -10.86832,-5.43091 -10.83583,-11.82327 0.0454,-7.1914 4.59288,-11.64137 11.70633,-11.43349 6.68469,0.19489 10.90079,4.67084 10.85532,11.49846 z"
   id="path80"
   style="stroke-width:6.4963" />
		
		<path
   fill-rule="evenodd"
   clip-rule="evenodd"
   fill="#fefefe"
   d="m 586.07802,519.86221 c 2.2997,5.15156 3.64443,10.7124 6.91206,15.4482 6.40536,9.27672 14.4153,9.20526 19.80724,-0.57167 2.59201,-4.69683 4.24208,-9.90036 6.32739,-14.88304 31.17575,2.68299 61.33159,9.43263 90.25313,21.69766 6.01558,2.55305 9.57555,5.46339 8.0879,12.36246 -1.43568,6.65871 2.02684,9.64051 7.63316,12.92765 80.29429,47.13717 126.11921,116.68008 130.83552,210.18136 6.57426,130.26386 -84.43244,241.37007 -213.14368,263.06777 -136.36389,22.9839 -269.3237,-73.06392 -290.61858,-209.93451 -16.8709,-108.44927 33.74829,-211.64954 129.86758,-264.2371 5.70375,-3.11822 8.94541,-6.38587 7.52921,-13.06406 -1.37072,-6.47682 1.89042,-9.30921 7.70461,-11.7973 28.42783,-12.17406 58.18089,-18.43 88.80446,-21.19742 z"
   id="path84"
   style="stroke-width:6.4963" />
		<path
   fill-rule="evenodd"
   clip-rule="evenodd"
   fill="#fefefe"
   d="m 484.07957,548.12761 c 2.19576,7.34082 -0.67561,11.15415 -7.38629,15.09742 -81.84042,48.17007 -127.66533,119.45401 -132.12179,214.64432 -6.01558,128.50336 81.08034,239.12235 206.60839,265.30245 137.95548,28.7722 276.13184,-61.9292 304.87148,-200.13154 23.28274,-111.93779 -27.50535,-223.8236 -127.00272,-279.79574 -1.5786,-0.89 -3.3326,-1.61109 -4.65785,-2.79342 -3.26114,-2.90384 -2.31268,-7.12644 -1.20181,-10.08876 1.20831,-3.22866 4.0342,-0.0974 5.67127,0.82503 86.58922,49.00161 136.30542,122.70217 142.35997,222.26449 7.90601,130.06248 -76.40302,244.15054 -201.09954,276.66454 -121.64326,31.7214 -250.54289,-26.323 -307.19714,-138.31278 -67.39264,-133.22617 -16.09785,-293.14565 116.17337,-362.0974 1.52663,-0.79256 2.94283,-2.29969 4.98266,-1.57861 z"
   id="path86"
   style="stroke-width:6.4963" />
		<path
   fill-rule="evenodd"
   clip-rule="evenodd"
   fill="#7e0927"
   d="m 579.58171,481.80686 c 0.63664,4.5734 0.37679,7.10047 -3.69639,8.39973 -10.59547,3.39106 -21.087,7.05498 -32.16319,8.67905 -3.03377,0.44175 -5.80119,0.24037 -7.75658,-2.24772 -2.03335,-2.57903 -0.13643,-5.14507 1.03941,-7.1914 6.3014,-10.99175 16.24074,-18.70285 25.19915,-27.28448 1.30575,-1.24728 2.55954,-1.47466 4.08617,-0.28583 7.042,5.4504 16.37068,9.41963 13.29143,19.93065 z"
   id="path88"
   style="stroke-width:6.4963" />
		<path
   fill-rule="evenodd"
   clip-rule="evenodd"
   fill="#7e0827"
   d="m 589.13778,418.38346 c 3.01428,-11.90122 4.87872,-24.2442 10.537,-35.37236 3.30662,-6.5093 6.94454,-6.41835 10.31613,0.18839 5.69076,11.13466 7.76958,23.41918 10.34212,35.50879 0.19488,0.92248 0.039,2.16327 -0.45475,2.94932 -4.09916,6.5028 -25.85528,6.92506 -30.01292,0.55868 -0.63014,-0.96145 -0.48721,-2.43611 -0.72758,-3.83282 z"
   id="path90"
   style="stroke-width:6.4963" />
		<path
   fill-rule="evenodd"
   clip-rule="evenodd"
   fill="#7e0827"
   d="m 543.6052,415.34969 c 11.5764,1.71502 23.69851,5.4569 35.57374,9.92635 3.64444,1.37072 2.4621,14.66216 -1.29926,18.18964 -0.18838,0.1754 -0.42875,0.29234 -0.63013,0.45475 -11.58291,9.60154 -11.66087,9.69248 -22.93845,-0.14941 -6.44433,-5.62581 -12.40793,-11.81678 -16.96184,-19.09264 -3.79385,-6.04156 -1.87094,-9.15329 6.25594,-9.32869 z"
   id="path92"
   style="stroke-width:6.4963" />
		<path
   fill-rule="evenodd"
   clip-rule="evenodd"
   fill="#7e0827"
   d="m 627.7518,431.3371 c -0.94847,-4.99566 0.72109,-6.06755 3.24815,-6.93806 10.00431,-3.45604 20.09956,-6.59375 30.46116,-8.72453 3.52749,-0.72109 7.80206,-1.25379 10.03679,2.13078 2.40363,3.63793 -0.68211,6.70419 -2.83239,9.62752 -6.3079,8.6076 -14.29186,15.59112 -21.89253,22.95794 -1.97488,1.90341 -3.62495,2.2737 -6.04807,0.61715 -7.72409,-5.2815 -16.39016,-9.85489 -12.97311,-19.6708 z"
   id="path94"
   style="stroke-width:6.4963" />
		<path
   fill-rule="evenodd"
   clip-rule="evenodd"
   fill="#7e0927"
   d="m 656.3875,474.79735 c -0.61715,2.03985 -1.0524,3.26115 -1.34473,4.52143 -4.16414,18.00126 -4.18363,18.06622 -21.54824,11.36203 -2.68297,-1.03941 -7.69163,-1.09137 -7.2109,-4.41098 0.79905,-5.54785 -1.66954,-12.34298 4.47595,-16.51361 3.0078,-2.03984 6.26245,-3.81982 8.88695,-6.26893 2.96881,-2.76742 5.41791,-2.62451 7.86702,0.20139 3.20917,3.70938 8.97789,5.6063 8.87395,11.10867 z"
   id="path96"
   style="stroke-width:6.4963" />
		<path
   fill-rule="evenodd"
   clip-rule="evenodd"
   fill="#7e0926"
   d="m 592.06112,517.84186 c -2.37765,-6.84061 -3.48852,-13.94756 -4.78128,-21.04803 -0.7081,-3.87829 0.94846,-5.09959 3.88478,-6.17798 3.15721,-1.16284 3.46903,0.55219 4.53442,3.11173 2.33218,5.63879 7.66565,1.7475 11.57641,2.57254 1.90342,0.40277 4.82676,1.12386 5.42442,-2.52057 0.25985,-1.5721 -1.17583,-4.84624 2.81289,-3.67041 3.13122,0.92248 3.82633,3.06625 3.06626,6.03507 -1.85794,7.21089 -3.65092,14.44127 -5.46338,21.66516 -7.02251,-1.03291 -14.03852,-1.0524 -21.05452,0.0325 z"
   id="path98"
   style="stroke-width:6.4963" />
		<path
   fill-rule="evenodd"
   clip-rule="evenodd"
   fill="#7e0926"
   d="m 623.48373,447.77923 c -13.40187,0 -25.44602,0 -37.63957,0 8.65307,-13.21348 23.29574,-13.56427 37.63957,0 z"
   id="path100"
   style="stroke-width:6.4963" />
		<path
   fill-rule="evenodd"
   clip-rule="evenodd"
   fill="#fdfcfa"
   d="m 612.48549,519.73877 c -1.82546,6.32091 -2.76743,15.59763 -9.69248,15.76003 -6.24945,0.14292 -7.76309,-9.06233 -10.05628,-14.98047 -0.091,-0.22737 -0.0259,-0.51321 -0.0325,-0.76656 6.59374,-3.57297 13.18749,-3.57297 19.78124,-0.013 z"
   id="path102"
   style="stroke-width:6.4963" />
		<path
   fill-rule="evenodd"
   clip-rule="evenodd"
   fill="#0d0000"
   d="m 612.48549,519.73877 c -6.60024,0 -13.18749,0.007 -19.78124,0.013 -0.21438,-0.63664 -0.42226,-1.27328 -0.63664,-1.90991 4.80727,-4.10567 16.22127,-4.11216 21.04152,-0.026 -0.20787,0.64313 -0.40926,1.27977 -0.62364,1.92291 z"
   id="path104"
   style="stroke-width:6.4963" />
		<path
   fill-rule="evenodd"
   clip-rule="evenodd"
   fill="#881b21"
   d="m 585.61029,454.17809 c 0.091,5.25551 -0.29234,10.3746 7.5422,10.25117 3.24166,-0.052 2.70247,4.11215 2.10481,6.39235 -0.90949,3.46903 -3.18319,1.09138 -4.72931,0.3638 -6.35988,-2.9883 -6.3339,-3.04026 -4.9177,-17.00732 z"
   id="path106"
   style="stroke-width:6.4963" />
		<path
   fill-rule="evenodd"
   clip-rule="evenodd"
   fill="#831224"
   d="m 628.56384,463.92254 c 0,-5.15806 0,-8.97789 0,-13.3369 3.8653,1.18232 8.26329,2.86486 8.46468,6.02207 0.20789,3.35209 -4.46296,4.80726 -8.46468,7.31483 z"
   id="path108"
   style="stroke-width:6.4963" />
		<path
   fill-rule="evenodd"
   clip-rule="evenodd"
   fill="#871822"
   d="m 587.04597,476.23303 c 2.63101,1.92292 7.28885,1.85795 7.5552,5.52187 0.18839,2.55304 -3.71589,3.07274 -6.08054,3.48851 -4.15763,0.74057 -3.37158,-2.77393 -3.63793,-5.07362 -0.18189,-1.61758 -0.47423,-3.61844 2.16327,-3.93676 z"
   id="path110"
   style="stroke-width:6.4963" />
		<path
   fill-rule="evenodd"
   clip-rule="evenodd"
   fill="#861723"
   d="m 612.62841,473.87488 c 0.77955,-4.63836 -2.24772,-8.70504 3.05975,-9.85489 2.03335,-0.44175 5.69726,-1.26028 6.04157,1.5786 0.59765,5.11908 -4.52793,5.22302 -9.10132,8.27629 z"
   id="path112"
   style="stroke-width:6.4963" />
		<path
   fill-rule="evenodd"
   clip-rule="evenodd"
   fill="#821025"
   d="m 578.53581,462.96109 c -3.91727,-1.84495 -7.82804,-3.15071 -7.99045,-5.9766 -0.1689,-2.93633 3.96924,-3.98873 6.90557,-5.95711 2.20225,3.75487 0.83803,7.47725 1.08488,11.93371 z"
   id="path114"
   style="stroke-width:6.4963" />
		<path
   fill-rule="evenodd"
   clip-rule="evenodd"
   fill="#831224"
   d="m 612.40753,432.45445 c 3.11823,-1.9164 5.67128,-4.27456 8.21133,-2.85837 2.83888,1.5916 1.02641,5.00216 1.51364,7.80206 -4.02121,-0.25985 -6.41834,-2.52056 -9.72497,-4.94369 z"
   id="path116"
   style="stroke-width:6.4963" />
		<path
   fill-rule="evenodd"
   clip-rule="evenodd"
   fill="#891c21"
   d="m 586.76014,437.63851 c -0.73409,-3.08575 -1.03292,-6.165 1.5656,-7.85403 2.46859,-1.60459 4.63187,0.65612 7.19141,2.34516 -2.29969,3.04677 -5.26201,4.50193 -8.75701,5.50887 z"
   id="path118"
   style="stroke-width:6.4963" />
		<path
   fill-rule="evenodd"
   clip-rule="evenodd"
   fill="#851523"
   d="m 622.90555,475.71983 c -3.11822,3.78085 0.0325,8.18534 -4.83324,8.90643 -1.59809,0.23387 -5.04113,-0.96795 -4.61888,-2.96232 0.73409,-3.43654 4.42399,-4.00171 9.45212,-5.94411 z"
   id="path120"
   style="stroke-width:6.4963" />
		<path
   fill-rule="evenodd"
   clip-rule="evenodd"
   fill="#7e0926"
   d="m 880.13315,644.56522 c -5.51536,-0.0195 -8.52316,-2.42961 -8.6076,-7.3603 -0.0974,-5.67128 3.57946,-8.2828 8.783,-8.71155 5.262,-0.42225 8.59461,2.16327 8.4257,7.5552 -0.18839,5.55434 -4.17062,7.77607 -8.6011,8.51665 z"
   id="path122"
   style="stroke-width:6.4963" />
		<path
   fill-rule="evenodd"
   clip-rule="evenodd"
   fill="#7f0a26"
   d="m 916.9282,839.52576 c -5.06711,-0.007 -8.91292,-2.43611 -9.00387,-7.44477 -0.091,-5.19704 3.26114,-8.74401 8.93242,-8.2568 4.95668,0.42226 9.38715,2.62451 9.06884,8.39323 -0.28585,5.04112 -3.72239,7.67862 -8.99739,7.30834 z"
   id="path124"
   style="stroke-width:6.4963" />
		<path
   fill-rule="evenodd"
   clip-rule="evenodd"
   fill="#800c26"
   d="m 480.11033,501.62059 c -0.66911,4.5734 -3.12472,8.14636 -7.82154,7.99045 -5.67777,-0.1884 -8.70505,-4.3785 -8.90644,-9.80942 -0.17539,-4.81376 3.14422,-7.92549 7.66564,-7.97745 5.99609,-0.0715 7.96448,4.69682 9.06234,9.79642 z"
   id="path126"
   style="stroke-width:6.4963" />
		<path
   fill-rule="evenodd"
   clip-rule="evenodd"
   fill="#7f0b26"
   d="m 814.66991,544.35326 c 5.50887,0.11044 8.46469,3.12473 8.26979,7.66564 -0.23387,5.34645 -3.87829,9.23774 -9.30271,9.4911 -4.48244,0.21438 -7.86701,-2.57254 -7.64614,-7.67213 0.25335,-5.69077 3.60545,-8.72454 8.67906,-9.48461 z"
   id="path128"
   style="stroke-width:6.4963" />
		<path
   fill-rule="evenodd"
   clip-rule="evenodd"
   fill="#800d26"
   d="m 488.22422,1082.481 c -0.0779,4.0276 -2.1113,6.8861 -5.59332,8.64 -2.21524,1.1175 -4.58639,0.8446 -6.65871,-0.5457 -2.6375,-1.7734 -0.27934,-3.7028 0.1039,-5.4699 0.37029,-1.7344 1.22131,-3.4105 2.11129,-4.9826 1.26029,-2.2217 0.77956,-6.7042 4.48246,-5.9311 3.63793,0.7665 5.97009,3.9887 5.55434,8.2893 z"
   id="path130"
   style="stroke-width:6.4963" />
		<path
   fill-rule="evenodd"
   clip-rule="evenodd"
   fill="#841324"
   d="m 406.52672,1026.5413 c 2.94932,0.6951 4.47595,2.1828 4.55391,4.3071 0.091,2.5465 -1.61109,4.398 -4.11866,4.7098 -2.1113,0.2663 -4.69033,-0.7991 -4.23559,-3.1053 0.44175,-2.2217 2.56604,-4.1056 3.80034,-5.9116 z"
   id="path132"
   style="stroke-width:6.4963" />
		<path
   fill-rule="evenodd"
   clip-rule="evenodd"
   fill="#8a1f20"
   d="m 834.43815,997.91211 c 3.44955,1.70203 5.33347,2.52709 7.11996,3.54049 1.45516,0.825 3.75485,1.2148 2.98829,3.6834 -0.26634,0.864 -1.2213,1.8125 -2.07881,2.1308 -1.86444,0.6951 -2.78042,-0.968 -3.61844,-2.1503 -1.33824,-1.8709 -2.42962,-3.9238 -4.411,-7.20439 z"
   id="path134"
   style="stroke-width:6.4963" />
		<path
   fill-rule="evenodd"
   clip-rule="evenodd"
   fill="#891c21"
   d="m 762.25125,1056.8141 c 3.34559,3.1702 5.36594,5.0216 7.30184,6.9575 1.19532,1.1823 1.90991,2.4102 -0.1689,3.5665 -1.72802,0.955 -3.30663,1.7605 -4.16414,-0.8965 -0.83802,-2.5985 -1.61758,-5.2296 -2.9688,-9.6275 z"
   id="path136"
   style="stroke-width:6.4963" />
		<path
   fill-rule="evenodd"
   clip-rule="evenodd"
   fill="#90291d"
   d="m 540.01924,1096.4221 c -0.11044,3.7223 3.22866,7.9839 -1.25379,10.8747 -0.64963,0.4159 -3.09873,-0.3962 -3.24815,-1.0004 -1.03941,-4.1706 2.19575,-6.7691 4.50194,-9.8743 z"
   id="path138"
   style="stroke-width:6.4963" />
		<path
   fill-rule="evenodd"
   clip-rule="evenodd"
   fill="#fcfafa"
   d="m 905.81952,396.97815 c 0.42877,-4.35902 -2.03983,-9.75095 5.76223,-9.22476 7.43177,0.50023 12.50539,3.62495 12.63531,8.88045 0.12993,5.23602 -5.50887,8.71155 -13.25246,9.04285 -8.43869,0.3573 -3.72238,-5.9636 -5.14508,-8.69854 z"
   id="path140"
   style="stroke-width:6.4963" />
		<path
   fill-rule="evenodd"
   clip-rule="evenodd"
   d="m 808.41397,726.64601 c -0.96145,6.65871 -1.16934,12.42743 -2.75443,17.78687 -1.53963,5.19055 1.00692,6.16499 4.85923,7.23688 16.39667,4.5864 16.09134,4.66434 17.7544,21.32736 1.42918,14.30486 0.17539,28.4798 -0.74708,42.6937 -0.31832,4.81377 -2.05933,7.41229 -7.56819,8.67257 -19.45643,4.47595 -19.33949,4.82674 -24.46508,24.2377 -0.877,3.31312 -0.877,6.08703 2.21524,8.21133 0.63664,0.42875 1.11087,1.08488 1.65656,1.63707 14.5842,14.66865 14.5972,14.67514 5.04113,33.33253 -1.65006,3.22865 -2.9883,6.76264 -5.2685,9.48459 -9.25073,11.06321 -11.70634,23.88691 -10.13424,37.69156 0.89,7.78256 -2.53355,11.50494 -9.56255,14.17492 -12.20006,4.61238 -24.66645,5.43091 -38.50358,4.11866 4.09916,8.35424 -0.67562,11.9337 -6.3339,15.83799 -14.12946,9.75095 -28.96701,18.11168 -44.68157,25.01075 -3.6899,1.62409 -6.81462,2.23471 -9.3092,-1.754 -0.40926,-0.64962 -1.08488,-1.11735 -1.63707,-1.66954 -14.7531,-14.7531 -14.7531,-14.72712 -34.36543,-7.98396 -2.06583,0.7081 -3.8848,1.26678 -4.01472,3.94326 -0.0585,1.25378 -0.71459,2.47509 -1.0394,3.72887 -5.16457,19.92418 -5.16457,19.89168 -25.5045,20.88558 -13.5253,0.6756 -26.95965,-0.3443 -40.41998,-1.4876 -4.27457,-0.3703 -6.69119,-2.0399 -7.26287,-6.2949 -0.0715,-0.5132 -0.22088,-1.0135 -0.3573,-1.5137 -5.59332,-20.08654 -5.6063,-20.00858 -26.10863,-24.87432 -2.6505,-0.63014 -4.43049,-0.38328 -6.10653,1.65007 -0.82503,0.99393 -1.83196,1.83845 -2.72195,2.78041 -13.73969,14.45428 -13.75267,14.48026 -31.74094,4.89821 -5.02813,-2.67648 -10.46554,-4.9047 -14.83106,-8.4322 -12.07013,-9.73795 -25.39405,-15.33776 -41.04364,-14.79857 -3.91076,0.13642 -5.21653,-1.63058 -5.52185,-5.59332 -0.77956,-10.08226 -2.16977,-20.11255 -3.31312,-30.16883 -0.36379,-3.19618 -1.09787,-5.6128 -5.23602,-3.63143 -3.8588,1.86444 -6.152,-0.43525 -8.28928,-3.40406 -11.25809,-15.60412 -20.76867,-32.16969 -28.18096,-49.95008 -1.27327,-3.05975 -1.42268,-5.32046 1.48765,-7.31483 0.84453,-0.57817 1.48766,-1.44867 2.22175,-2.18276 14.71412,-14.74011 14.63616,-14.71412 8.45818,-34.55383 -0.83802,-2.68947 -2.32567,-3.69639 -4.7488,-4.30705 -4.76828,-1.19531 -9.43912,-3.08574 -14.27238,-3.6704 -6.01557,-0.73409 -8.22432,-3.72889 -8.60109,-9.48461 -1.18234,-18.17015 -1.52664,-36.26886 0.98094,-54.39354 0.55868,-4.01471 1.68903,-6.25594 5.81419,-6.47681 0.5197,-0.026 1.03941,-0.078 1.54611,-0.1884 20.15154,-4.32653 20.00861,-4.35902 24.68595,-24.72492 0.67562,-2.92983 -0.20788,-4.24858 -1.88393,-5.95711 -3.27413,-3.33261 -6.03506,-7.33433 -9.76393,-9.99781 -6.22347,-4.44348 -5.54136,-9.06884 -2.62452,-15.05843 7.3798,-15.19485 15.72755,-29.74656 25.75784,-43.36282 2.66348,-3.61844 5.22953,-5.38543 9.58855,-3.62493 1.19532,0.48722 2.55954,0.55868 3.73537,1.06539 11.88824,5.07361 21.29488,2.70896 29.35679,-7.92549 2.88436,-3.80034 3.82633,-6.54827 2.68947,-10.88131 -5.41142,-20.5543 -5.35295,-20.58028 12.20005,-32.05924 2.8194,-1.84496 5.73624,-3.5275 8.59461,-5.30749 1.58511,-0.98743 3.04027,-1.96188 2.01386,-4.30055 -2.63101,-6.00259 1.68254,-6.69768 5.84667,-7.5552 15.07792,-3.07924 15.48719,-3.11173 14.91551,-17.79337 -0.26634,-6.71718 1.88392,-8.44519 8.30877,-9.58204 54.52997,-9.65351 108.92351,-9.12082 163.34952,0.6756 4.15114,0.74708 4.87223,2.6505 4.79427,6.26894 -0.12992,5.69076 -1.76699,12.6483 0.85752,16.75397 2.72194,4.26157 10.45905,2.68297 15.89645,4.11215 2.42961,0.64314 5.90514,0.13642 4.9307,4.87873 -0.60416,2.87786 2.74144,3.3261 4.62536,4.43697 8.49716,5.00215 16.61104,10.56299 24.75741,16.10434 4.32004,2.94282 5.23602,6.08053 3.26114,10.25766 -6.10652,12.94713 -5.02813,23.68551 7.68513,32.50099 3.61844,2.51407 6.01558,5.29449 10.56949,3.05327 0.6756,-0.33131 1.52662,-0.26635 2.28669,-0.44175 19.11213,-4.54091 19.09913,-4.53442 29.62964,11.66736 7.49024,11.53743 13.86311,23.64654 19.44992,36.22988 2.06584,4.65785 2.44912,7.84753 -2.25421,11.0632 -4.0407,2.76093 -7.3798,6.52878 -11.19313,9.64701 -2.20874,1.79947 -3.94975,3.72238 -2.48159,6.54827 1.90342,3.65093 4.398,0.67562 6.60675,0.15592 1.75399,-0.40277 3.43004,-1.07839 6.41834,-2.05933 z"
   id="path142"
   style="stroke-width:6.4963" />
		<path
   fill-rule="evenodd"
   clip-rule="evenodd"
   fill="#fefefe"
   d="m 400.99836,784.87886 c 12.07663,-2.29969 12.07663,-2.29969 14.31136,-15.55865 2.19575,-13.02508 2.18925,-12.92764 15.33127,-12.56384 24.46508,0.6886 44.91544,-8.6076 62.09815,-25.56296 14.11647,-13.93456 32.19569,-16.69549 50.69065,-18.38453 3.42356,-0.31182 3.33261,2.42962 3.78735,4.72282 8.29578,41.6283 16.63053,83.25011 24.9328,124.87841 3.79385,19.04716 7.13945,38.19176 11.55043,57.08302 1.4097,6.04156 -0.71459,6.89258 -5.40492,7.82154 -12.99911,2.59203 -25.43303,7.029 -37.48367,12.50539 -1.99436,0.90298 -5.88564,0.66262 -4.12514,4.80725 1.72801,4.06669 4.2161,1.44219 6.26243,0.40278 9.01037,-4.5669 18.14417,-8.84147 27.87563,-11.67386 1.59809,-0.46124 4.37851,-2.54005 4.59938,1.29277 0.12993,2.14377 1.7605,5.42441 -2.63099,5.9571 -12.88867,1.56562 -22.91247,9.24425 -33.18961,16.12383 -17.74141,11.88174 -35.93756,22.62662 -57.32338,26.56988 -12.08962,2.22822 -24.20522,1.98137 -36.3663,0.66911 -3.21567,-0.35079 -4.35902,-1.69553 -4.64485,-4.84623 -5.34647,-59.45417 -19.57337,-116.849 -40.2511,-172.74318 -0.16241,-0.44824 -0.0195,-1.00043 -0.0195,-1.50065 z"
   id="path144"
   style="stroke-width:6.4963" />
		<path
   fill-rule="evenodd"
   clip-rule="evenodd"
   fill="#fefefe"
   d="m 744.95808,953.23703 c -13.55777,-0.59766 -25.42003,-6.52879 -37.38622,-12.02466 -7.28884,-3.35208 -14.36982,-7.14592 -21.55472,-10.70589 -13.50581,-6.6977 -27.22601,-12.87568 -42.55728,-13.79816 -4.19661,-0.25985 -4.13814,-2.31918 -4.31355,-5.46989 -0.27934,-4.88521 2.97531,-3.21567 5.13208,-3.01427 12.97312,1.2213 25.51748,4.07317 37.47717,9.51058 23.80895,10.83584 48.88468,16.83841 74.90886,19.05366 2.36465,0.20138 4.83975,0.85751 5.24902,-2.59853 2.13078,-17.97527 5.59332,-35.8336 4.82675,-54.08821 -3.57296,14.20092 -5.9701,28.59672 -7.52921,43.12896 -0.65613,6.05455 -1.65656,9.33518 -9.64701,8.64008 -18.79381,-1.62408 -36.81454,-5.13209 -54.02975,-13.10954 -19.40446,-8.99089 -39.72489,-15.01946 -61.28612,-15.77952 -5.4374,-0.1949 -7.19141,-1.36422 -6.24944,-7.67214 9.21175,-61.26663 18.01425,-122.57873 26.6998,-183.91682 0.62365,-4.41098 2.57254,-4.69032 6.06106,-4.68383 21.44429,0.0325 41.27749,6.11952 58.14189,18.88475 20.76869,15.72106 43.30436,16.54609 67.21076,11.84277 2.51407,-0.49373 4.88521,-1.7605 7.55519,-1.01992 0.091,0.43524 0.17541,0.877 0.27285,1.31875 -4.74231,12.90165 -4.49544,26.56987 -5.63229,39.93926 -3.50152,41.1021 -6.98353,82.20421 -10.5565,123.30632 -0.87699,10.06927 -1.82546,20.15153 -2.36465,30.26627 -0.68211,12.72626 -2.72195,14.33084 -14.88303,16.80594 -9.23774,1.87743 -17.98826,0.19488 -27.79768,-2.00737 6.91207,2.04635 13.47983,1.87094 18.96271,5.38544 -1.25379,4.32004 -4.2161,2.18925 -6.71069,1.80597 z"
   id="path146"
   style="stroke-width:6.4963" />
		<path
   fill-rule="evenodd"
   clip-rule="evenodd"
   fill="#d09700"
   d="m 514.50826,633.48254 c 3.80033,5.23602 7.47075,10.56947 11.43998,15.67557 2.26722,2.91035 3.11173,4.69683 -0.91597,7.10046 -35.19697,21.00254 -58.60964,51.27531 -70.30948,90.55196 -1.04591,3.5015 -3.02728,4.76828 -6.5028,5.46989 -9.29622,1.89042 -18.61191,2.20874 -27.82367,0.35079 -4.51493,-0.90947 -6.07404,0.13643 -6.48981,4.54742 -0.5132,5.41142 -2.01384,10.75787 -2.18924,16.1628 -0.1949,6.04805 -2.51408,8.39972 -8.52965,7.3798 -5.99609,-1.00694 -7.49673,0.55219 -5.15806,6.94454 15.25331,41.69327 27.49884,84.24405 34.39791,128.19154 0.46124,2.91034 3.12473,6.39236 -1.98786,8.4322 -4.9242,1.96189 -6.35988,-1.53313 -8.51016,-4.41749 -9.99131,-13.36939 -17.79338,-27.96008 -24.63398,-43.14195 -1.89692,-4.19661 -1.90341,-7.34731 1.96839,-10.10823 12.12209,-8.6206 16.20827,-18.86526 9.89386,-33.67684 -2.50107,-5.86616 -4.26157,-9.33519 -10.58248,-10.87481 -17.49454,-4.26157 -17.50753,-4.50193 -18.51445,-23.10085 -0.68862,-12.72626 -0.24687,-25.41354 1.26028,-38.08133 0.46773,-3.91727 1.74101,-6.27543 5.98958,-6.28841 15.92894,-0.052 23.56859,-8.34775 25.78383,-23.8999 0.81203,-5.72974 0.83152,-9.27022 -3.52099,-13.46034 -14.18143,-13.62924 -13.95407,-13.80465 -4.70982,-31.17575 5.6193,-10.55649 11.99217,-20.60627 18.88475,-30.38322 2.35166,-3.33259 4.84623,-4.33302 8.51665,-3.18318 0.49372,0.15591 1.01992,0.24685 1.48766,0.45474 13.49281,6.04156 24.02981,3.29363 33.47544,-8.70505 3.80033,-4.83325 4.61887,-8.20482 3.1637,-13.49931 -5.0996,-18.54694 -5.02814,-18.6184 11.22561,-28.96701 3.21567,-2.04633 6.18447,-4.69034 10.33561,-5.49588 0.89649,3.09225 1.7605,6.04807 2.61801,9.01038 6.91207,9.21825 15.02595,17.566 19.93716,28.18746 z"
   id="path148"
   style="stroke-width:6.4963" />
		<path
   fill-rule="evenodd"
   clip-rule="evenodd"
   fill="#d09700"
   d="m 469.85267,967.99013 c 29.25285,-1.98786 51.91196,-14.87003 73.53165,-29.97394 4.52793,-3.1572 8.46469,-3.79383 13.60975,-1.96188 10.04329,3.57297 20.50233,5.68427 31.15627,6.20398 4.28756,0.20787 5.75572,1.83845 6.3274,5.89214 1.00692,7.17841 2.57254,14.28536 3.99523,21.39881 0.64962,3.21567 -0.13643,5.96362 -1.50065,8.93242 -3.27413,7.09396 -1.45517,14.03202 4.62537,17.81287 5.92463,3.6769 11.88174,3.37158 17.20221,-1.35773 5.46338,-4.83974 6.73666,-12.1156 1.85145,-18.19615 -4.25508,-5.30098 -1.7605,-10.44604 -1.48766,-15.53265 0.94846,-18.28709 1.17583,-18.22213 18.74832,-22.21086 9.88088,-2.24772 19.44344,-5.49588 28.57724,-9.87439 3.04027,-1.46166 5.58033,-1.59809 8.76351,-0.17539 19.82022,8.84147 38.26323,20.79466 59.61657,26.23857 4.31354,1.09787 5.4569,9.43263 1.81896,12.21304 -14.90251,11.38152 -31.06531,20.62576 -48.37146,27.89513 -3.14422,1.31875 -5.13208,-0.0259 -6.53528,-2.26071 -9.28971,-14.7661 -21.76261,-16.14982 -36.87951,-9.88089 -4.22909,1.7605 -6.56776,3.13772 -7.71761,7.93848 -4.97617,20.67772 -5.20353,20.40492 -26.68031,21.12602 -11.46598,0.3832 -22.79553,-0.7731 -34.18355,-1.4162 -4.18361,-0.2339 -7.029,-1.7281 -7.40578,-6.23 -1.31225,-15.69505 -9.4716,-23.89339 -25.42653,-25.97221 -5.93762,-0.77955 -9.46512,-1.08488 -13.81114,3.67691 -12.76523,14.01253 -13.06406,13.82413 -30.20781,4.63187 -9.77693,-5.22953 -19.44343,-10.66693 -29.61664,-18.91724 z"
   id="path150"
   style="stroke-width:6.4963" />
		<path
   fill-rule="evenodd"
   clip-rule="evenodd"
   fill="#d09700"
   d="m 675.35021,644.46778 c -3.22216,4.3785 -6.87958,8.51015 -9.54957,13.19399 -2.91684,5.12558 -6.38587,6.27543 -12.07013,5.06711 -35.71666,-7.58118 -71.51779,-7.75009 -107.24096,-0.0195 -4.80726,1.0394 -7.57469,-0.25336 -10.38109,-4.15114 -6.4963,-9.04934 -13.49281,-17.7349 -20.28795,-26.56987 -6.79514,-5.4504 -10.97875,-13.04458 -16.14331,-19.81373 -3.39107,-4.44996 -0.59766,-6.59375 3.64442,-7.52272 11.62189,-2.53356 23.39968,-4.20311 35.145,-6.01557 28.82409,-4.44348 57.86256,-3.44954 86.82308,-2.97531 23.01641,0.37679 45.81843,3.92376 68.40607,8.39972 7.88001,1.56561 9.28971,4.3785 4.72931,10.51101 -7.50324,10.09526 -12.99911,21.78211 -23.07487,29.89599 z"
   id="path152"
   style="stroke-width:6.4963" />
		<path
   fill-rule="evenodd"
   clip-rule="evenodd"
   fill="#d09700"
   d="m 705.94779,597.51251 c 0.65613,-3.72888 1.74751,-5.59332 6.05455,-3.02728 8.2568,4.9177 16.23427,10.1927 24.09479,15.70156 3.24165,2.27371 3.96274,5.04113 2.38414,7.96447 -8.50365,15.72754 -2.38414,26.8752 10.38759,36.69111 3.1637,2.43611 5.41792,4.38501 9.45861,2.68947 2.11131,-0.88998 4.50195,-1.13685 6.76266,-1.69553 14.50624,-3.55998 14.51274,-3.56647 22.73706,8.74402 7.49673,11.2386 13.81114,23.10735 19.52139,35.35288 2.30618,4.96317 2.54655,8.54914 -2.43611,11.84276 -3.0013,1.98787 -5.52836,4.69033 -8.23082,7.11345 -3.15071,2.82589 -7.49024,4.95018 -4.64486,10.67343 1.30576,2.6245 -1.18882,3.24165 -3.35209,3.87179 -12.15459,3.56647 -24.54303,3.65092 -37.02243,2.84538 -3.57946,-0.22736 -5.28149,-2.22823 -6.63921,-5.47638 -13.79816,-32.94275 -36.06098,-58.53168 -67.40565,-75.79236 -5.95711,-3.28063 -2.33867,-5.85966 -0.92247,-9.01687 4.01472,-9.34168 10.70591,-16.96834 16.72798,-24.91332 5.52835,-7.28235 8.77651,-15.49368 12.52487,-23.56858 z"
   id="path154"
   style="stroke-width:6.4963" />
		<path
   fill-rule="evenodd"
   clip-rule="evenodd"
   fill="#d09700"
   d="m 597.29064,845.47636 c -4.53442,-54.03624 -9.10782,-108.07248 -13.48632,-162.12172 -0.24687,-2.99479 -3.26115,-7.56818 2.24122,-8.96489 4.72281,-1.20181 7.92548,-0.75357 8.17884,6.1455 1.33824,37.0809 3.32611,74.1488 5.08011,111.2167 0.92897,19.69679 1.83196,39.39357 2.78041,59.09686 0.091,1.94889 0.40928,3.87829 0.62366,5.82069 0.73407,-0.013 1.48115,-0.0195 2.21524,-0.0259 0,-11.43998 -0.19489,-22.87347 0.039,-34.30697 0.96145,-47.23461 2.03333,-94.46922 3.17019,-141.70384 0.0649,-2.54005 -1.96189,-6.53528 3.72888,-6.47032 5.35944,0.0649 4.07967,3.68341 3.94325,6.47032 -1.42918,31.1043 -2.98829,62.2021 -4.46946,93.30639 -1.18233,24.88084 -2.28669,49.76817 -3.41706,74.6555 -0.35728,9.02986 -0.63662,18.05973 -0.69509,25.44603 0.6756,-5.33347 -0.91598,-12.76524 2.13728,-19.48891 4.53442,-44.12939 9.06883,-88.25227 13.60975,-132.38165 1.27327,-12.38845 2.54655,-24.77041 3.82632,-37.15235 0.1819,-1.80598 0.44175,-3.60546 0.66913,-5.40493 0.30532,-2.50108 0.88998,-4.3915 4.22908,-4.15114 3.6964,0.27285 3.20269,2.57254 2.97531,4.89821 -1.7475,18.07921 -3.46253,36.15842 -5.28149,54.22464 -3.96274,39.49102 -7.99045,78.97555 -11.96619,118.46657 -1.71503,17.03331 -3.66391,34.05362 -4.87223,51.1259 -0.48722,6.86009 -5.12558,5.78171 -9.15329,6.54177 -5.48287,1.03292 -4.87872,-3.27412 -5.33346,-6.34688 -5.52186,-37.71103 -10.99175,-75.42857 -16.43564,-113.1526 -5.00216,-34.64478 -10.0238,-69.28306 -14.82457,-103.94733 -0.5327,-3.80683 -3.99522,-10.09526 1.33824,-11.19313 7.10046,-1.45517 4.41749,6.37287 4.89821,9.6535 7.25637,49.51482 14.03852,99.1011 20.91159,148.66789 0.70811,5.13208 1.27328,10.29014 1.90343,15.43522 3.08574,6.126 0.92896,13.27843 3.62493,18.94971 0.5262,1.48115 1.81896,0 0.94847,0.57166 -0.25336,0.16242 -0.42877,0.0325 -0.60417,-0.37677 -3.26763,-7.5617 -1.75399,-15.6561 -2.53355,-23.50363 z"
   id="path156"
   style="stroke-width:6.4963" />
		<path
   fill-rule="evenodd"
   clip-rule="evenodd"
   fill="#d09700"
   d="m 495.9743,601.88451 c -0.0454,-0.77955 0,-1.57209 -0.14292,-2.32567 -2.55304,-13.80464 -2.52705,-13.63573 11.97269,-16.20827 63.54683,-11.28408 126.93775,-9.93935 190.37414,1.24079 7.23688,1.27977 7.32783,4.30704 6.39887,9.53657 -1.14336,1.71503 -0.052,3.54699 -0.27934,5.30098 -0.57818,4.42399 -2.27371,7.17192 -7.60718,5.9766 -14.5842,-3.28713 -29.37628,-5.55433 -44.22033,-7.1979 -7.91899,-0.8835 -15.87046,-1.99437 -23.86092,-2.1048 -12.70677,-0.1754 -25.42653,0.20788 -38.1268,-0.0974 -28.8241,-0.6886 -57.09599,3.61844 -85.30944,8.73103 -3.30662,0.59767 -7.82155,3.46253 -9.19877,-2.85188 z"
   id="path158"
   style="stroke-width:6.4963" />
		<path
   fill-rule="evenodd"
   clip-rule="evenodd"
   fill="#d09700"
   d="m 671.73826,565.59617 c 0,2.56605 -0.013,5.12559 0,7.68513 0.013,2.21524 -0.0974,4.24208 -3.21567,4.0277 -2.74793,-0.19488 -3.31961,-1.88392 -3.41705,-4.22909 -0.12343,-2.9818 0.57817,-6.11302 -2.35166,-9.02336 -0.12993,2.7999 -0.3508,5.59981 -0.3573,8.39972 -0.007,2.55954 -0.877,3.80034 -3.67041,3.60545 -2.37765,-0.1689 -3.98873,-0.65613 -3.89778,-3.51451 0.12343,-3.3326 0.0325,-6.6717 0.0325,-11.00473 -4.50195,3.11822 -2.63101,6.76265 -2.79992,9.70547 -0.19488,3.41057 -1.14335,4.20311 -4.69682,3.86531 -25.09521,-2.41013 -50.2554,-3.28713 -75.44805,-1.79947 -5.00216,0.29232 -6.53528,-1.40971 -6.03507,-6.10653 0.1689,-1.59809 0.72758,-3.53399 -1.26028,-5.28149 -2.56605,2.6245 -1.32525,5.85317 -1.51364,8.67256 -0.1819,2.73493 -1.53313,3.54048 -3.96925,3.59245 -2.70895,0.0585 -2.53356,-1.79298 -2.81939,-3.64443 -0.39628,-2.56603 1.43568,-5.76221 -1.86444,-7.62666 -3.84581,3.14422 2.78691,11.46598 -5.0801,11.58291 -7.08098,0.11045 -0.96796,-7.5552 -4.54093,-10.29663 -2.73493,1.72801 -1.3902,4.58638 -1.5786,6.95104 -0.18839,2.50108 -0.24036,4.52143 -3.60544,4.7553 -3.72888,0.26634 -3.36508,-2.06584 -3.59895,-4.44997 -0.24036,-2.39065 1.18232,-5.21654 -3.09874,-8.24382 0,4.13165 -0.0779,7.2109 0.0195,10.28365 0.11043,3.31961 -2.01385,3.66391 -4.5669,3.84581 -3.34559,0.24036 -2.8129,-2.07231 -3.00129,-4.08617 -0.30533,-3.20918 0.85751,-6.58075 -1.33175,-10.62146 -2.43611,3.8588 -1.42269,7.47725 -1.45516,10.78387 -0.0325,3.41056 -0.89649,5.29448 -4.70982,5.53485 -4.72281,0.28583 -4.09917,-2.86487 -4.02772,-5.62581 0.46774,-17.07228 -3.1572,-13.63573 13.71371,-16.44863 49.09905,-8.17884 98.1981,-7.5487 147.23219,0.59766 3.09224,0.51321 8.13337,-0.50022 8.85446,3.11173 1.10437,5.47638 0.6951,11.38802 0.052,17.02031 -0.29233,2.54006 -3.48851,1.14335 -5.40492,1.13036 -2.41662,-0.013 -3.80684,-1.16284 -3.8718,-3.80683 -0.0779,-3.20918 -0.37678,-6.41185 -0.57168,-9.62103 -0.70809,0.0844 -1.42268,0.18189 -2.14377,0.27934 z"
   id="path160"
   style="stroke-width:6.4963" />
		<path
   fill-rule="evenodd"
   clip-rule="evenodd"
   fill="#fefefe"
   d="m 457.71109,749.37007 c 1.9294,-10.19919 5.67126,-18.33906 9.60153,-26.39448 12.97962,-26.56337 32.29312,-47.41001 57.38834,-62.89719 1.96837,-1.22131 4.22259,-4.44348 6.63272,-2.28021 2.13729,1.91641 5.03464,4.13814 3.41056,8.45819 -1.02642,2.73495 -0.27284,6.16499 -0.20788,9.27672 0.039,2.19575 -0.68211,4.67084 3.35209,4.43048 2.6375,-0.15591 2.29969,3.04027 2.70246,4.84624 1.35123,6.08053 2.07232,12.304 3.66391,18.30658 1.32525,5.00865 -0.58466,6.25593 -5.13857,6.54827 -10.12773,0.64963 -20.0281,2.55954 -29.5322,6.28192 -7.84103,3.07276 -14.5712,7.60718 -20.46335,13.72669 -8.49716,8.83497 -19.00818,14.64916 -31.40961,19.69679 z"
   id="path162"
   style="stroke-width:6.4963" />
		<path
   fill-rule="evenodd"
   clip-rule="evenodd"
   fill="#fefefe"
   d="m 742.93124,733.72048 c -6.33389,-1.70203 -10.76437,-3.40407 -14.80507,-6.41185 -19.98912,-14.86354 -41.92064,-24.49756 -67.39265,-23.84792 -4.12515,0.1039 -4.80076,-1.54613 -4.17062,-5.06063 0.87701,-4.83325 1.45518,-9.72496 2.26072,-14.5712 0.40276,-2.41014 0.11693,-5.16456 4.46295,-4.06668 4.22261,1.06539 2.42962,-2.84539 2.66999,-4.67085 0.74057,-5.63879 -1.61758,-11.64138 2.9753,-16.83842 2.15678,-2.43611 3.50151,-2.91684 6.30141,-1.33824 30.99386,17.54652 53.38012,42.65473 67.69797,76.80579 z"
   id="path164"
   style="stroke-width:6.4963" />
		<path
   fill-rule="evenodd"
   clip-rule="evenodd"
   fill="#d09700"
   d="m 795.52531,833.81551 c 0.58466,-23.15932 3.46252,-45.75346 6.67819,-68.29563 1.767,-12.39494 1.85795,-11.91422 14.11647,-9.43263 6.10652,1.2343 7.92549,4.10567 8.37374,9.80292 1.2213,15.54565 0.93546,31.03933 0.0259,46.58498 -0.3443,5.9636 -2.74144,8.84147 -8.56214,9.62753 -3.56646,0.48072 -6.97702,2.0918 -10.54999,2.57252 -5.41792,0.74059 -9.32868,2.72846 -10.08226,9.14031 z"
   id="path166"
   style="stroke-width:6.4963" />
		<path
   fill-rule="evenodd"
   clip-rule="evenodd"
   fill="#cf9600"
   d="m 616.1559,905.83352 c 3.09224,-20.51533 6.13901,-41.04364 9.28321,-61.55897 8.19833,-53.5815 16.41617,-107.163 24.69895,-160.73151 0.3443,-2.21524 -0.87701,-6.02208 3.38458,-5.54784 4.26157,0.47423 2.39063,3.8653 2.06582,6.11951 -10.62796,73.42122 -21.32087,146.82943 -31.92933,220.25714 -0.44824,3.11822 -0.89649,5.63229 -4.80077,5.63229 -3.1702,0.007 -3.1442,-1.9424 -2.70246,-4.17062 z"
   id="path168"
   style="stroke-width:6.4963" />
		<path
   fill-rule="evenodd"
   clip-rule="evenodd"
   fill="#ce9600"
   d="m 594.25036,906.75599 c 0.46125,1.66955 0.52621,3.3391 -1.72151,3.41705 -2.8194,0.10391 -4.02771,-1.70852 -4.53442,-4.33952 -2.05933,-10.69292 -4.19662,-21.38583 -6.34689,-32.06576 -12.36246,-61.4745 -24.81587,-122.92953 -36.89249,-184.4625 -0.61715,-3.14421 -5.09961,-8.98438 0.87699,-10.1797 5.39193,-1.07839 3.82632,5.69725 4.47595,8.86744 14.65566,71.3424 29.05147,142.74975 43.47975,214.13763 0.31832,1.53312 0.44825,3.08574 0.66262,4.62536 z"
   id="path170"
   style="stroke-width:6.4963" />
		<path
   fill-rule="evenodd"
   clip-rule="evenodd"
   fill="#d09700"
   d="m 600.18149,659.96796 c 19.8592,-0.24037 38.53607,2.29969 57.11549,6.08053 4.0472,0.82504 5.98959,2.15028 5.59982,6.48981 -0.51971,5.78171 -4.69683,3.10523 -6.95754,2.72195 -37.39272,-6.26892 -74.73997,-6.3209 -112.13268,-0.007 -2.05283,0.3443 -5.45689,2.44261 -6.07404,-2.02684 -0.49373,-3.63144 0.013,-6.24295 4.69682,-7.2044 19.35899,-3.96275 38.82191,-6.41835 57.75213,-6.05456 z"
   id="path172"
   style="stroke-width:6.4963" />
		<path
   fill-rule="evenodd"
   clip-rule="evenodd"
   fill="#fbfbfb"
   d="m 744.95808,953.23703 c 2.18926,-0.40277 4.61887,0.48073 6.54828,-1.26677 3.05326,-3.77436 7.67213,-2.4686 11.55043,-3.43655 10.46554,-2.61801 11.7648,-3.75486 12.79771,-14.36982 4.33954,-44.58412 8.45169,-89.18774 12.53787,-133.79784 1.72151,-18.82629 3.57946,-37.63959 5.35944,-56.45936 0.24037,-2.50758 1.28628,-5.1061 -0.21438,-7.59418 l 0.12993,0.11692 c 0.0844,-0.24685 0.12992,-0.68211 0.25336,-0.70809 3.11172,-0.60415 6.44433,-4.27457 8.95191,-1.85145 1.38371,1.33824 -0.091,5.8207 -0.55868,8.84797 -9.75746,62.55289 -15.36376,125.46309 -16.83193,188.76956 -0.39628,17.0268 2.91684,14.78558 -16.07834,20.7232 -7.88652,2.4621 -16.18229,3.65742 -24.4456,1.02641 z"
   id="path174"
   style="stroke-width:6.4963" />
		<path
   fill-rule="evenodd"
   clip-rule="evenodd"
   fill="#0d0a00"
   d="m 495.9743,601.88451 c 1.74751,4.24859 5.13859,2.33218 7.80856,1.77999 34.91763,-7.17841 70.17306,-10.08225 105.81177,-9.56904 27.04412,0.39626 53.73092,3.56646 80.26182,8.4192 11.23211,2.05933 11.20613,2.22173 14.72063,-8.39322 0.45473,1.12386 0.91597,2.25422 1.37071,3.38457 -0.29233,7.28236 -3.44304,13.30443 -7.77607,19.02767 -7.33433,9.69248 -14.33734,19.63183 -21.47678,29.46723 -0.44824,-0.51321 -0.89649,-1.02641 -1.34473,-1.53313 8.19184,-11.92071 16.37717,-23.84792 24.65347,-35.88558 -45.74697,-13.66822 -135.4609,-16.71498 -201.3464,-0.57167 5.84667,8.17235 11.50495,16.07834 17.16323,23.97786 -0.43525,0.49372 -0.877,0.99393 -1.31874,1.48764 -7.07448,-9.08182 -15.53267,-17.18921 -19.93716,-28.15497 0.47423,-1.14335 0.94196,-2.28669 1.40969,-3.43655 z"
   id="path176"
   style="stroke-width:6.4963" />
		<path
   fill-rule="evenodd"
   clip-rule="evenodd"
   fill="#ce9600"
   d="m 607.76268,912.32982 c 7.76957,0 15.54565,0.19489 23.30224,-0.091 3.50799,-0.13641 5.98958,0.47423 4.95668,4.39801 -0.93547,3.5015 3.82631,9.4651 -4.10567,10.20568 -16.02638,1.49415 -32.03327,1.32525 -48.07914,0.0325 -7.86052,-0.63664 -3.92376,-6.28842 -4.69032,-9.8419 -0.92898,-4.26807 1.3902,-5.00865 5.33345,-4.82026 7.7436,0.38979 15.51967,0.11694 23.28276,0.11694 z"
   id="path178"
   style="stroke-width:6.4963" />
		<path
   fill-rule="evenodd"
   clip-rule="evenodd"
   fill="#ce9600"
   d="m 594.23087,930.38304 c 7.03551,0 13.49933,0.1884 19.94365,-0.0715 4.39151,-0.1754 5.2815,1.77349 4.84625,5.64528 -1.19532,10.5565 -2.2802,21.13248 -3.19618,31.72145 -0.27285,3.12472 -1.61109,4.67734 -4.26157,2.94282 -3.43005,-2.24122 -9.18578,5.59981 -10.73189,-2.4426 -2.39714,-12.41443 -4.37202,-24.91333 -6.60026,-37.7955 z"
   id="path180"
   style="stroke-width:6.4963" />
		<path
   fill-rule="evenodd"
   clip-rule="evenodd"
   fill="#ce9600"
   d="m 792.30314,856.41614 c 5.86616,5.6193 10.61496,10.18621 15.38324,14.72712 1.27978,1.21481 1.5786,2.48808 0.85751,4.14464 -5.11908,11.66736 -10.36809,23.24377 -19.35248,33.08567 1.00692,-16.77345 2.00735,-33.54691 3.11173,-51.95743 z"
   id="path182"
   style="stroke-width:6.4963" />
		<path
   fill-rule="evenodd"
   clip-rule="evenodd"
   fill="#cf9600"
   d="m 609.41274,973.40806 c 6.37287,0 11.2321,5.00215 11.12167,11.43998 -0.11044,6.11302 -4.7488,10.95276 -10.70591,11.14766 -6.39885,0.20787 -11.27108,-4.5734 -11.34904,-11.14766 -0.0844,-6.72367 4.43697,-11.44649 10.93328,-11.43998 z"
   id="path184"
   style="stroke-width:6.4963" />
		<path
   fill-rule="evenodd"
   clip-rule="evenodd"
   fill="#f9f9f9"
   d="m 665.93707,925.87461 c -12.99911,6.26893 -26.01769,10.21868 -39.67292,12.05713 -1.4097,0.1884 -3.92377,2.1178 -4.11866,-1.16283 -0.13642,-2.31269 -1.03291,-5.57383 2.83239,-6.165 2.55954,-0.38977 5.16456,-0.72758 7.7306,-0.62364 4.62536,0.1884 7.52922,-0.92248 6.55477,-6.39886 -0.62365,-3.52748 1.66955,-3.67041 4.27457,-3.39756 7.49673,0.77306 14.77258,2.34516 22.39925,5.69076 z"
   id="path186"
   style="stroke-width:6.4963" />
		<path
   fill-rule="evenodd"
   clip-rule="evenodd"
   fill="#fafafa"
   d="m 592.25601,939.38042 c -13.21349,-0.47423 -25.11471,-3.17669 -37.53564,-7.27585 5.43091,-4.45647 11.14116,-6.54179 17.22819,-7.76958 0.92248,-0.1884 2.76094,-0.0454 2.78692,0.13642 1.11736,8.15286 7.62016,4.7293 12.02466,5.59332 4.16412,0.82502 4.18361,0.69509 5.49587,9.31569 z"
   id="path188"
   style="stroke-width:6.4963" />
		<path
   fill-rule="evenodd"
   clip-rule="evenodd"
   fill="#765600"
   d="m 609.36077,854.55171 c -0.57817,7.35381 -1.15634,14.70763 -1.74102,22.06144 -0.83801,-9.38067 -2.50756,-18.76132 0.29883,-28.01856 0.48073,1.98787 0.96147,3.96924 1.44219,5.95712 z"
   id="path190"
   style="stroke-width:6.4963" />
		<path
   fill-rule="evenodd"
   clip-rule="evenodd"
   fill="#7e5c00"
   d="m 597.29064,845.47636 c 3.18968,8.1009 0.24686,16.79295 2.68297,24.98479 -3.44954,-6.51579 -3.66392,-13.59026 -4.11865,-20.61926 0.48072,-1.44869 0.96145,-2.90385 1.43568,-4.36553 z"
   id="path192"
   style="stroke-width:6.4963" />
		<path
   fill-rule="evenodd"
   clip-rule="evenodd"
   fill="#020202"
   d="m 420.01953,759.60824 c 17.20872,40.54993 29.94147,81.22327 38.38666,123.24136 3.32611,16.53309 6.35338,33.11815 7.97096,49.92408 0.42226,4.398 2.22824,6.02207 6.74317,6.51579 18.13767,1.98787 35.59324,-1.13685 53.82835,-7.04849 -6.47031,6.13901 -22.20436,11.82327 -34.55383,13.03808 -0.25985,0.026 -0.5197,0.039 -0.77956,0.0585 -29.11642,2.47509 -28.70715,2.40363 -33.43646,-26.05018 -8.34775,-50.19043 -20.54131,-99.47138 -36.34032,-147.84934 -1.10437,-3.37808 -3.18968,-6.60674 -1.81897,-11.82977 z"
   id="path194"
   style="stroke-width:6.4963" />
		<path
   fill-rule="evenodd"
   clip-rule="evenodd"
   fill="#030303"
   d="m 492.51178,951.29464 c -12.9991,5.61281 -26.64134,5.93762 -40.56941,2.84538 -4.64486,-1.03291 -3.79384,-5.12558 -4.17712,-8.17885 -5.19055,-42.01158 -13.28494,-83.42551 -25.31609,-124.0274 -2.79991,-9.43263 -6.09354,-18.72884 -9.12082,-28.09001 -0.76007,-2.34517 -2.59202,-5.50237 1.31875,-6.28842 3.07275,-0.62364 2.6505,2.93633 3.25465,4.79427 15.70157,48.11161 27.16105,97.27563 35.86609,147.09577 1.94889,11.17364 2.1243,11.57641 13.49281,11.81028 8.45169,0.1754 16.90338,0.039 25.25114,0.039 z"
   id="path196"
   style="stroke-width:6.4963" />
		<path
   fill-rule="evenodd"
   clip-rule="evenodd"
   fill="#070707"
   d="m 494.0644,766.95556 c 0.67561,5.82719 1.13035,9.42614 1.48115,13.02509 0.13643,1.46167 0.60415,3.17019 -1.81247,3.43654 -2.18925,0.24686 -3.56647,-0.46123 -3.78734,-2.75443 -0.66912,-6.96404 -1.32525,-13.94107 -1.90342,-20.9116 -0.0975,-1.19531 -0.27284,-2.70895 1.55911,-2.9753 2.10481,-0.31183 4.0342,-0.27285 5.49587,1.77999 2.83239,3.96923 5.81419,7.83454 9.25724,12.43392 1.24728,-4.52143 -0.46774,-8.08141 -0.46124,-11.68685 0,-1.61109 -0.93547,-3.83932 1.96188,-4.17712 2.72844,-0.31183 3.59895,1.11736 3.78734,3.62493 0.48073,6.19748 1.20832,12.38195 1.65007,18.58592 0.11043,1.55912 1.18232,3.78085 -1.5851,4.43698 -2.15028,0.50671 -3.97573,0.3378 -5.46339,-1.68904 -2.88436,-3.91078 -5.95062,-7.69812 -10.1797,-13.12903 z"
   id="path198"
   style="stroke-width:6.4963" />
		<path
   fill-rule="evenodd"
   clip-rule="evenodd"
   fill="#060606"
   d="m 493.95395,848.22431 c -0.052,-8.49067 4.95019,-13.60326 13.25896,-13.56429 7.56169,0.039 12.53137,5.73624 12.66779,14.51274 0.12992,8.17885 -5.275,13.59027 -13.49932,13.5253 -7.83454,-0.052 -12.36896,-5.33346 -12.42743,-14.47375 z"
   id="path200"
   style="stroke-width:6.4963" />
		<path
   fill-rule="evenodd"
   clip-rule="evenodd"
   fill="#070707"
   d="m 474.87431,859.3005 c 0.007,2.71545 1.96839,5.76872 -2.4621,6.28842 -4.80725,0.56518 -2.99479,-3.28713 -3.28063,-5.25551 -0.81853,-5.6193 -1.19532,-11.31006 -1.66305,-16.97484 -0.15591,-1.90991 -1.16934,-4.23559 2.12429,-4.75529 3.15071,-0.49372 3.1637,1.7605 3.63793,3.75486 0.66912,2.81939 -0.94196,6.88608 5.01514,6.21047 5.2815,-0.59116 5.67777,-3.15721 4.96319,-7.2109 -0.39628,-2.26071 -0.2014,-4.25508 2.7934,-4.32653 2.50108,-0.0585 2.79341,1.76049 2.97531,3.65092 0.63014,6.43133 1.28627,12.86267 1.90991,19.30051 0.20788,2.13079 0.42875,4.0472 -2.84538,4.11865 -3.30012,0.0715 -2.70896,-2.14377 -3.19619,-4.05368 -0.64313,-2.54005 1.82547,-6.80813 -3.56646,-6.90557 -4.46946,-0.091 -8.84797,-0.078 -6.40536,6.15849 z"
   id="path202"
   style="stroke-width:6.4963" />
		<path
   fill-rule="evenodd"
   clip-rule="evenodd"
   fill="#070707"
   d="m 535.95255,832.23041 c 0.70809,0.14292 2.57903,0.24037 4.2161,0.91597 2.43612,1.00694 5.42441,3.30663 4.45646,5.4634 -1.33174,2.95582 -4.14463,2.49458 -6.90557,-0.0195 -2.61151,-2.37765 -6.38586,-1.79948 -8.00344,1.4032 -2.35166,4.67084 -2.16326,9.8354 1.94239,13.56428 3.14421,2.85188 6.35988,1.5786 8.22433,-2.09181 1.16283,-2.29969 2.46859,-3.20268 4.80076,-1.75401 2.71546,1.68905 1.0459,3.67042 0.12343,5.32048 -2.51407,4.49545 -10.10174,6.32739 -15.2728,3.85881 -5.22304,-2.50108 -8.41922,-10.13423 -6.8601,-16.79945 1.48765,-6.37287 5.57382,-9.70547 13.27844,-9.86138 z"
   id="path204"
   style="stroke-width:6.4963" />
		<path
   fill-rule="evenodd"
   clip-rule="evenodd"
   fill="#080808"
   d="m 484.93059,776.97936 c 0.12993,1.54612 0.25986,3.09874 0.39628,4.63836 0.16241,1.88392 -0.70161,2.89085 -2.57254,3.08574 -1.85794,0.18189 -2.72845,-0.50671 -2.92983,-2.51407 -0.72109,-7.1979 -1.62408,-14.38281 -2.44261,-21.56772 -0.25336,-2.17627 1.2278,-2.42312 2.85837,-2.70897 2.40363,-0.42225 3.04027,0.55869 3.20268,2.85188 0.38328,5.41143 1.08489,10.80336 1.65655,16.19529 -0.0585,0.007 -0.11693,0.013 -0.1689,0.0195 z"
   id="path206"
   style="stroke-width:6.4963" />
		<path
   fill-rule="evenodd"
   clip-rule="evenodd"
   fill="#020202"
   d="m 793.53094,736.31251 c 5.24251,-0.091 3.06626,3.74836 2.86487,5.98958 -2.56604,28.69417 -5.24901,57.38185 -7.95797,86.05652 -3.39106,35.90507 -7.23039,71.77765 -9.95883,107.73468 -0.62364,8.21782 -4.30055,11.39451 -10.85532,13.61626 -5.24252,1.77998 -10.67343,2.0918 -16.12382,2.2672 -9.03637,-0.93547 -17.57251,-3.508 -26.16711,-7.7306 5.77521,-1.30575 10.56948,1.50715 15.66258,1.61758 4.13815,0.0974 8.2698,0.77955 12.40145,0.72109 17.68293,-0.25986 18.57942,-1.59809 20.0216,-19.20307 4.18362,-51.17138 8.70504,-102.31676 13.09654,-153.47514 0.7081,-8.2568 1.80597,-16.51361 2.04634,-24.7899 0.15591,-5.07361 1.27977,-9.32219 4.96967,-12.8042 z"
   id="path208"
   style="stroke-width:6.4963" />
		<path
   fill-rule="evenodd"
   clip-rule="evenodd"
   fill="#050505"
   d="m 705.33714,787.12658 c -6.80163,-0.67561 -11.92072,-2.75443 -13.74617,-9.23774 -1.7605,-6.26894 -0.52621,-12.01166 4.58638,-16.18879 5.03464,-4.11865 10.68642,-3.29362 16.03938,-0.38328 2.8129,1.52663 5.81419,4.57989 3.92376,7.22389 -1.9229,2.68298 -4.69034,0.28584 -6.71718,-2.20874 -2.49458,-3.07275 -6.13251,-3.04677 -9.03635,-0.66262 -3.80684,3.13121 -4.45646,7.66563 -2.76743,12.04413 1.38372,3.58597 4.78128,4.42399 8.47768,3.92378 1.4032,-0.1884 2.71545,-0.73409 2.92983,-2.10481 0.24036,-1.54612 -1.09138,-2.11129 -2.4491,-2.39714 -1.44219,-0.30532 -3.24167,-0.18189 -2.63101,-2.66997 0.60415,-2.47509 2.55305,-2.97531 4.09917,-1.9489 2.54005,1.68254 8.16585,-1.29926 7.63315,5.15807 -0.57817,6.93155 -3.80033,9.8549 -10.34211,9.45212 z"
   id="path210"
   style="stroke-width:6.4963" />
		<path
   fill-rule="evenodd"
   clip-rule="evenodd"
   fill="#050505"
   d="m 726.59954,775.18638 c -1.33174,5.56083 -2.15028,8.97788 -2.96881,12.39494 -0.3443,1.44218 -0.25336,3.29363 -2.63101,2.8129 -1.63056,-0.33131 -3.07274,-0.90949 -2.65699,-2.9948 1.46168,-7.34732 2.91035,-14.70113 4.47595,-22.02246 0.25336,-1.20181 0.91599,-2.48809 2.67648,-1.83845 1.92941,0.70809 3.66392,1.24079 4.398,3.76786 1.35123,4.67083 3.28064,9.16627 5.0996,14.09697 2.29319,-3.53399 1.95538,-7.25637 3.02728,-10.55649 0.48722,-1.50715 -0.29233,-4.68384 3.29362,-3.96924 3.09225,0.61715 2.54006,2.68297 2.12429,4.75529 -1.21481,6.09353 -2.32567,12.20006 -3.74187,18.24162 -0.32481,1.40969 0.36379,4.2031 -2.55305,3.78734 -1.9359,-0.27935 -4.0342,-0.57816 -4.86572,-3.11173 -1.44218,-4.39799 -3.18969,-8.68556 -5.67777,-15.36375 z"
   id="path212"
   style="stroke-width:6.4963" />
		<path
   fill-rule="evenodd"
   clip-rule="evenodd"
   fill="#070707"
   d="m 757.80777,770.41809 c 8.05541,-0.11043 13.75268,4.95668 13.96705,12.41444 0.24687,8.54912 -5.52185,15.60411 -12.8172,15.68207 -7.97746,0.0844 -13.50581,-5.02164 -13.7072,-12.66129 -0.23387,-9.18578 4.7553,-15.33128 12.55735,-15.43522 z"
   id="path214"
   style="stroke-width:6.4963" />
		<path
   fill-rule="evenodd"
   clip-rule="evenodd"
   fill="#070707"
   d="m 677.16917,854.5582 c -0.70809,3.52099 -1.47466,7.0355 -2.1048,10.56949 -0.3638,2.00085 -1.55911,2.46858 -3.3326,2.19575 -2.14378,-0.33132 -2.15028,-1.61109 -1.7605,-3.39757 1.42918,-6.59375 2.66348,-13.21998 4.11216,-19.80723 0.29882,-1.37072 0.40927,-3.22866 2.57253,-3.31961 2.07882,-0.0844 3.5275,0.92248 4.17063,2.83239 1.51364,4.52793 2.91035,9.09482 4.46946,14.01902 3.07925,-3.32611 2.1178,-7.33432 3.41055,-10.66693 0.68211,-1.77349 0.67562,-3.59246 3.32611,-3.04027 2.17627,0.45474 2.1113,2.02035 1.78648,3.57297 -1.41619,6.85359 -2.91033,13.69421 -4.36551,20.5413 -0.27934,1.30576 -0.54569,2.53356 -2.31918,2.41663 -2.31268,-0.14292 -3.74187,-1.09138 -4.43697,-3.52749 -1.18234,-4.16414 -2.72845,-8.22432 -4.11865,-12.32998 -0.46774,-0.0195 -0.93547,-0.039 -1.40971,-0.0585 z"
   id="path216"
   style="stroke-width:6.4963" />
		<path
   fill-rule="evenodd"
   clip-rule="evenodd"
   fill="#050505"
   d="m 663.85176,757.44497 c 2.35816,3.88479 5.56083,4.60589 8.23731,6.04807 4.71631,2.53356 6.19747,6.56126 4.20959,11.11517 -2.29318,5.262 -7.11994,5.18404 -12.04413,4.13814 -4.81376,-1.01992 -8.06192,-3.41056 -8.56863,-8.62059 -0.11044,-1.11087 0.0195,-2.16328 1.33824,-2.33867 1.50714,-0.20789 3.20267,-0.51321 4.01472,1.33824 0.72758,1.67604 1.26677,3.62493 3.09873,4.28755 2.14378,0.77956 4.79427,1.68905 6.32739,-0.78604 1.55912,-2.52057 -0.94845,-3.58597 -2.57252,-4.74881 -0.62365,-0.44174 -1.40971,-0.65612 -2.10481,-1.00042 -3.82632,-1.90991 -7.45776,-4.00172 -7.02899,-9.1468 0.24036,-2.86487 1.79297,-4.95018 4.52142,-5.73624 4.78777,-1.38371 9.27672,-0.48721 13.12903,2.70897 1.9359,1.60458 3.20267,4.30704 1.48764,6.08053 -1.72151,1.77999 -4.13814,0.92898 -5.52185,-1.71502 -1.88392,-3.59895 -4.78778,-2.92983 -8.52314,-1.62408 z"
   id="path218"
   style="stroke-width:6.4963" />
		<path
   fill-rule="evenodd"
   clip-rule="evenodd"
   fill="#090909"
   d="m 753.86452,884.35674 c -5.58683,-0.0844 -9.10132,-1.0459 -11.40751,-4.20311 -1.49415,-2.05932 -3.3261,-5.29448 -1.14335,-7.02251 2.40363,-1.90341 4.385,0.46774 5.50237,3.1767 1.0524,2.54655 3.44304,3.00779 5.87916,2.35166 0.81203,-0.21438 1.84495,-1.2213 1.99436,-2.00735 0.50671,-2.74145 -2.06582,-3.20269 -3.67691,-4.30705 -1.48765,-1.01992 -3.22217,-1.73452 -4.5669,-2.90385 -2.86487,-2.48158 -3.63143,-5.59982 -1.90991,-9.09482 2.36466,-4.81376 6.6847,-4.3915 10.80335,-3.54699 3.80034,0.77956 6.54828,3.08574 7.01601,7.28886 0.11693,1.03941 -0.0259,2.34516 -1.28627,2.36465 -1.22131,0.0195 -2.76094,-0.27934 -3.60545,-1.0459 -1.44867,-1.31875 -1.7605,-3.81333 -4.24858,-4.10567 -1.29926,-0.15591 -2.65049,-0.29233 -3.42356,1.07838 -0.82502,1.46817 0.11694,2.44911 1.22131,3.13772 1.97488,1.2213 4.15763,2.13728 6.04157,3.48202 3.27413,2.33217 4.78776,5.56084 3.33909,9.50409 -1.39021,3.72888 -4.12515,5.91813 -6.52878,5.85317 z"
   id="path220"
   style="stroke-width:6.4963" />
		<path
   fill-rule="evenodd"
   clip-rule="evenodd"
   fill="#050505"
   d="m 733.01138,880.01721 c -0.25335,-0.039 -0.50671,-0.0974 -0.76006,-0.12343 -14.79208,-1.57211 -14.79208,-1.57211 -11.78429,-16.14331 0.052,-0.25336 0.10391,-0.50671 0.15591,-0.76007 2.65049,-12.40794 6.63922,-14.44128 18.25461,-9.34818 1.5656,0.68211 2.68297,1.30575 2.07881,3.38457 -0.60415,2.07882 -1.88392,1.45517 -3.43005,1.68255 -3.55997,0.53269 -8.84146,-5.37895 -10.23817,0.77956 -1.14334,5.05412 5.67128,2.1048 8.2698,4.17712 1.0459,0.83152 3.18969,0.36379 2.60501,2.83888 -0.57817,2.44261 -2.08531,2.13078 -4.05369,2.18925 -3.11172,0.0844 -8.08789,-5.35945 -9.03636,1.59809 -0.83152,6.08055 5.57383,3.17669 8.47118,4.79427 1.44868,0.80555 3.96925,0.23387 3.62495,2.93633 -0.31183,2.48809 -2.24773,2.39714 -4.15765,1.99437 z"
   id="path222"
   style="stroke-width:6.4963" />
		<path
   fill-rule="evenodd"
   clip-rule="evenodd"
   fill="#070707"
   d="m 707.26005,847.03548 c 4.65784,-0.12992 8.08139,1.767 9.91985,6.07404 0.57168,1.33175 1.42268,3.18969 -0.7146,3.92377 -1.25378,0.42875 -2.91034,1.17584 -3.96274,-0.90948 -1.90991,-3.76785 -5.00864,-6.152 -8.52965,-2.55304 -3.33259,3.39106 -4.96317,8.10737 -2.55304,12.86917 1.98137,3.91077 5.18405,4.22909 8.04242,0.98744 1.91641,-2.16327 3.521,-2.05933 5.15157,-0.27285 2.18276,2.40364 -0.50672,3.76786 -1.72152,4.95668 -3.63793,3.53399 -7.98396,3.60545 -12.21305,1.2213 -6.42484,-3.63793 -6.37287,-9.76394 -4.98916,-15.76653 1.37722,-5.89213 4.58639,-10.48502 11.56992,-10.5305 z"
   id="path224"
   style="stroke-width:6.4963" />
		<path
   fill-rule="evenodd"
   clip-rule="evenodd"
   fill="#0b0b0b"
   d="m 649.09865,852.49238 c 2.59852,-4.52793 5.09959,-8.35425 7.03549,-12.44692 1.29926,-2.75443 3.20269,-3.59245 5.4634,-2.25422 2.89735,1.71503 -0.0259,3.54049 -0.75358,4.9307 -2.87136,5.46339 -6.04155,10.77736 -9.24424,16.06536 -0.96794,1.59809 -1.38371,4.07317 -4.32004,3.54048 -2.78041,-0.50021 -3.63793,-2.13728 -3.90427,-4.80727 -0.66262,-6.65871 -1.70203,-13.28494 -2.37115,-19.95014 -0.13643,-1.4032 -1.47467,-4.02771 1.61108,-4.0342 2.05933,-0.007 3.96274,0.88998 4.19661,3.59895 0.42226,4.82025 0.15592,9.76394 2.2867,15.35726 z"
   id="path226"
   style="stroke-width:6.4963" />
		<path
   fill-rule="evenodd"
   clip-rule="evenodd"
   fill="#070707"
   d="m 689.5836,759.63423 c -1.26677,6.4898 -2.4491,12.59633 -3.65741,18.70286 -0.40927,2.06582 -0.7016,4.12515 -3.78734,3.71588 -3.38458,-0.44175 -2.56605,-2.68947 -2.18926,-4.62537 1.20181,-6.10002 2.43611,-12.20655 3.8718,-18.2546 0.38977,-1.63707 -0.25985,-4.69684 3.3391,-3.73538 2.54005,0.68211 3.44303,2.07882 2.42311,4.19661 z"
   id="path228"
   style="stroke-width:6.4963" />
		<path
   fill-rule="evenodd"
   clip-rule="evenodd"
   fill="#121212"
   d="m 660.51915,861.51574 c 1.32524,-6.60675 2.60502,-12.94063 3.8653,-19.29401 0.44825,-2.2997 1.27328,-3.83282 4.13814,-3.18969 2.91684,0.65613 1.90343,2.61801 1.56562,4.2161 -1.31875,6.34039 -2.79992,12.62881 -4.15764,18.95621 -0.37029,1.70852 -0.0195,3.82632 -2.90385,3.39106 -2.75443,-0.40926 -3.55997,-1.79947 -2.50757,-4.07967 z"
   id="path230"
   style="stroke-width:6.4963" />
		<path
   fill-rule="evenodd"
   clip-rule="evenodd"
   fill="#1c1400"
   d="m 657.91413,611.49255 c -8.2568,13.40837 -16.5006,26.81673 -24.75741,40.2316 -0.79905,-0.48073 -1.59809,-0.95495 -2.40363,-1.43568 8.23731,-13.42136 16.46163,-26.84273 24.69894,-40.26408 0.81854,0.48722 1.63707,0.97444 2.4621,1.46816 z"
   id="path232"
   style="stroke-width:6.4963" />
		<path
   fill-rule="evenodd"
   clip-rule="evenodd"
   fill="#1b1400"
   d="m 565.86802,649.15811 c -7.83454,-13.68771 -15.66258,-27.36893 -23.49712,-41.05664 0.82502,-0.48072 1.65006,-0.95494 2.47509,-1.43567 7.78907,13.7072 15.58463,27.42089 23.3737,41.12809 -0.78606,0.46124 -1.56562,0.90948 -2.35167,1.36422 z"
   id="path234"
   style="stroke-width:6.4963" />
		<path
   fill-rule="evenodd"
   clip-rule="evenodd"
   fill="#1a1300"
   d="m 581.05638,647.81987 c -7.96446,-13.7007 -15.92894,-27.4079 -23.89341,-41.11509 0.79256,-0.46774 1.5786,-0.94197 2.36466,-1.4097 7.97097,13.7007 15.94193,27.4014 23.91289,41.1021 -0.79255,0.47424 -1.59159,0.94846 -2.38414,1.42269 z"
   id="path236"
   style="stroke-width:6.4963" />
		<path
   fill-rule="evenodd"
   clip-rule="evenodd"
   fill="#181200"
   d="m 542.75418,654.03683 c -7.67214,-13.6812 -15.35077,-27.36891 -23.0229,-41.05013 0.80555,-0.44175 1.6046,-0.89 2.40364,-1.33175 7.7241,13.69422 15.4417,27.38193 23.16581,41.07613 -0.84451,0.42875 -1.69553,0.864 -2.54655,1.30575 z"
   id="path238"
   style="stroke-width:6.4963" />
		<path
   fill-rule="evenodd"
   clip-rule="evenodd"
   fill="#1b1300"
   d="m 614.23949,649.1906 c 8.29578,-13.47334 16.59805,-26.94667 24.89384,-40.42 0.75356,0.46124 1.50713,0.92247 2.2672,1.38371 -8.2633,13.54479 -16.52659,27.09608 -24.78989,40.64736 -0.79254,-0.53919 -1.5851,-1.07188 -2.37115,-1.61107 z"
   id="path240"
   style="stroke-width:6.4963" />
		<path
   fill-rule="evenodd"
   clip-rule="evenodd"
   fill="#1a1300"
   d="m 642.53089,651.09401 c 8.23731,-13.29794 16.46813,-26.59586 24.70544,-39.90029 0.76006,0.46774 1.51364,0.93547 2.2802,1.3967 -8.17884,13.31743 -16.35119,26.64134 -24.51705,39.95876 -0.82503,-0.48072 -1.65005,-0.96795 -2.46859,-1.45517 z"
   id="path242"
   style="stroke-width:6.4963" />
		<path
   fill-rule="evenodd"
   clip-rule="evenodd"
   fill="#191200"
   d="m 554.44753,650.83416 c -7.93849,-13.63574 -15.87048,-27.27148 -23.81545,-40.90722 0.79254,-0.45474 1.5786,-0.91598 2.36465,-1.37072 7.93199,13.55128 15.85748,27.10907 23.78947,40.66036 -0.77956,0.53919 -1.55912,1.07838 -2.33867,1.61758 z"
   id="path244"
   style="stroke-width:6.4963" />
		<path
   fill-rule="evenodd"
   clip-rule="evenodd"
   fill="#171100"
   d="m 654.14628,654.0823 c 8.15935,-13.25245 16.32521,-26.50491 24.48456,-39.75736 0.74058,0.45474 1.48766,0.91598 2.22824,1.37071 -8.10739,13.23947 -16.21478,26.47244 -24.32217,39.7054 -0.79254,-0.44175 -1.59809,-0.88349 -2.39063,-1.31875 z"
   id="path246"
   style="stroke-width:6.4963" />
		<path
   fill-rule="evenodd"
   clip-rule="evenodd"
   fill="#f8f8f8"
   d="m 513.70272,849.57554 c 0.1689,4.63836 -2.24123,7.98395 -6.58725,7.8995 -5.82069,-0.11044 -7.32784,-4.82025 -7.37331,-9.88737 -0.039,-4.52143 2.30618,-7.81505 6.74966,-7.82155 6.16499,-0.013 7.0225,4.89821 7.2109,9.80942 z"
   id="path248"
   style="stroke-width:6.4963" />
		<path
   fill-rule="evenodd"
   clip-rule="evenodd"
   fill="#fbfbfb"
   d="m 751.29848,784.07982 c 0.62365,-4.0537 1.70853,-8.86746 7.96446,-8.55563 4.63187,0.23387 6.80164,3.3326 6.30142,8.00994 -0.5262,4.93719 -1.89692,9.60802 -7.97746,9.45861 -4.76828,-0.11693 -6.4898,-3.60544 -6.28842,-8.91292 z"
   id="path250"
   style="stroke-width:6.4963" />
	</g>
</g>
</svg>
