<svg width="500" height="548" viewBox="0 0 500 548" fill="none" xmlns="http://www.w3.org/2000/svg">
<g clip-path="url(#clip0_19_355)">
<path fill-rule="evenodd" clip-rule="evenodd" d="M249.473 547.43C150.174 543.316 74.605 499.488 27.8722 411.08C-21.5674 317.542 -3.74762 201.692 69.5253 125.229C100.076 93.3478 136.442 70.9671 178.776 58.4076C182.232 57.3835 183.463 56.1429 183.405 52.2541C183.12 33.8434 197.141 20.6027 215.539 21.699C219.107 21.911 220.957 21.4598 222.68 17.6613C228.012 5.91384 237.689 -0.262148 250.587 0.00853205C263.422 0.283726 272.796 6.63114 277.804 18.6493C279.013 21.5456 280.069 22.4253 283.538 22.0328C301.646 19.9756 316.895 33.8615 316.728 52.0646C316.696 55.5745 317.237 57.2436 321.036 58.3985C387.925 78.704 437.978 119.924 471.028 181.31C495.182 226.166 504.141 274.495 498.25 325.004C489.75 397.853 455.541 456.423 396.438 499.867C355.43 530.012 309.094 545.617 258.112 547.083C256.677 547.128 255.238 547.362 253.804 547.417C252.365 547.48 250.916 547.43 249.473 547.43Z" fill="#020101"/>
<path fill-rule="evenodd" clip-rule="evenodd" d="M3.41184 309.508C3.74568 239.591 21.5789 188.054 57.5612 143.257C90.133 102.695 131.619 74.8739 181.907 60.6813C185.272 59.7339 187.153 58.6241 186.693 54.5279C184.614 36.1939 199.235 21.5907 219.743 25.4073C222.256 25.8765 223.009 25.6058 223.821 23.0479C227.985 9.92894 237.071 3.25669 250.145 3.27022C263.142 3.28376 272.052 9.93796 276.32 23.2418C277.141 25.8088 278.079 26.2735 280.488 25.7005C298.791 21.3516 315.622 35.7698 313.466 54.2797C313.015 58.1459 314.355 59.6257 317.959 60.6362C355.922 71.2784 389.22 90.1853 418.07 117.1C454.382 150.975 478.44 191.938 489.998 240.218C497.162 270.137 498.344 300.354 494.424 330.846C488.902 373.803 472.896 412.506 446.64 446.778C413.297 490.312 370.277 520.037 317.323 534.993C298.371 540.347 279.085 543.181 259.348 543.92C199.758 546.14 146.227 529.096 99.1736 492.911C59.9432 462.739 32.0903 423.825 16.2646 376.758C7.60736 350.994 3.12763 324.436 3.41184 309.508Z" fill="#7E0827"/>
<path fill-rule="evenodd" clip-rule="evenodd" d="M466.612 59.8016C451.991 59.7655 440.446 47.5804 440.604 32.3412C440.762 17.341 452.351 5.27323 466.571 5.30481C481.048 5.33634 492.71 17.72 492.552 32.896C492.394 48.0451 481.021 59.8377 466.612 59.8016Z" fill="#FEFEFE"/>
<path fill-rule="evenodd" clip-rule="evenodd" d="M261.951 108.321C284.115 108.443 304.985 114.339 325.15 122.938C351.42 134.139 374.053 150.623 392.825 172.097C417.348 200.144 432.759 232.531 438.118 269.601C445.345 319.509 434.64 365.349 405.79 406.451C375.054 450.247 332.865 476.607 279.861 485.355C240.811 491.801 203.358 486.288 167.953 469.109C124.992 448.267 93.927 415.637 74.9343 371.62C62.9162 343.767 58.2063 314.655 60.2048 284.583C62.2033 254.492 71.0049 226.238 86.6863 200.406C111.607 159.353 147.084 131.315 192.693 116.31C207.26 111.515 222.211 108.276 237.667 108.104C238.709 108.826 239.385 109.67 238.591 110.983C234.409 114.321 229.212 113.125 224.525 113.82C208.907 116.143 193.812 120.073 179.182 126.028C174.982 127.738 172.46 129.926 172.934 134.735C173.367 139.133 170.872 141.56 167.213 143.586C144.327 156.263 124.866 172.946 109.342 194.059C90.9946 219.011 79.9148 246.868 76.5088 277.707C72.6922 312.314 77.7448 345.589 94.0172 376.402C122.272 429.892 166.356 462.518 226.6 470.648C287.201 478.827 338.765 459.157 380.134 414.427C405.05 387.481 419.59 355.117 423.619 318.418C429.132 268.13 415.828 223.247 383.324 184.517C369.578 168.136 353.224 154.395 334.141 144.33C329.982 142.138 327.659 139.377 328.2 134.563C328.646 130.535 326.652 128.41 322.967 126.867C304.84 119.283 286.073 114.461 266.467 112.972C264.302 112.805 262.073 112.719 260.927 110.36C260.81 109.449 260.814 108.596 261.951 108.321Z" fill="#010101"/>
<path fill-rule="evenodd" clip-rule="evenodd" d="M238.569 110.658C238.267 109.81 237.964 108.957 237.662 108.104C236.891 103.873 236.115 99.641 235.343 95.4049C234.716 91.9718 232.524 94.0921 231.229 94.4666C223.645 96.65 216.346 99.9253 208.208 99.8215C199.749 99.7132 196.753 94.8951 201.021 87.456C205.009 80.5085 210.626 74.8694 216.847 69.8663C219.36 67.8453 220.212 66.5505 216.96 63.9384C211.785 59.779 207.13 54.9294 203.133 49.5428C201.517 47.3684 199.966 45.1533 199.551 42.3743C198.82 37.4886 200.805 35.0434 205.984 34.5652C214.704 33.7577 222.743 36.7803 230.643 39.6269C235.628 41.4224 236.976 40.466 237.784 35.4089C238.826 28.8674 240.59 22.3711 243.225 16.2403C244.862 12.4282 246.78 8.4492 251.882 8.51687C256.804 8.58451 258.5 12.7034 259.966 16.2222C262.664 22.696 264.568 29.5216 265.605 36.4555C266.223 40.6014 267.757 40.8585 271.244 39.6585C278.548 37.1502 285.848 34.4389 293.747 34.4524C302.521 34.466 305.296 39.1533 300.658 46.633C296.454 53.4181 290.801 58.9986 284.769 64.2001C283.858 64.9851 281.575 65.6753 282.852 67.3671C284.219 69.1761 286.073 71.1024 288.103 71.7566C289.587 72.2348 289.47 69.6678 289.678 68.355C290.269 64.5746 291.816 63.158 295.885 64.5881C299.756 65.9505 303.938 66.4062 307.971 67.34C312.897 68.4814 314.201 72.2483 311.44 76.5115C310.028 78.695 308.562 77.0393 307.168 76.9265C305.571 76.7957 304.015 76.2544 302.422 75.9656C301.696 75.8348 300.915 75.9972 300.654 76.7912C300.324 77.7927 300.767 78.5597 301.777 78.8619C302.634 79.1236 303.532 79.2499 304.412 79.4439C307.258 80.08 310.146 80.3958 308.792 84.7988C307.47 89.0891 307.737 89.1703 302.215 88.3673C301.791 89.9417 302.382 91.6425 303.712 91.7507C310.073 92.2831 307.123 96.3433 306.536 99.1674C305.607 103.625 302.494 101.089 300.076 100.859C289.29 99.835 278.756 97.7463 268.668 93.6996C266.065 92.653 265.109 93.7537 264.635 96.2305C263.859 100.286 262.849 104.301 261.938 108.33C261.798 109.11 261.653 109.891 261.509 110.671C262.289 117.24 259.163 122.243 254.295 125.852C250.925 128.347 246.825 127.313 243.992 124.237C240.549 120.474 238.068 116.103 238.569 110.658Z" fill="#D09700"/>
<path fill-rule="evenodd" clip-rule="evenodd" d="M63.9402 411.581C67.2245 410.873 70.6215 410.489 73.7569 409.375C77.6997 407.972 79.5404 409.497 81.2772 412.876C84.8502 419.823 85.0081 419.737 78.8682 424.501C72.7599 429.243 66.5884 433.907 60.5793 438.775C58.486 440.467 57.4484 440.954 55.7838 438.116C51.4213 430.655 51.2634 430.763 58.0078 425.773C59.6906 424.533 61.2966 423.188 62.5372 421.041C59.086 421.781 55.6394 422.516 52.1928 423.265C49.8739 423.77 47.8664 424.276 46.3777 421.321C45.0649 418.709 44.6814 417.003 47.122 414.829C49.7702 412.47 51.9356 409.564 54.8364 406.307C50.7175 406.686 47.8889 408.504 44.8709 409.704C37.9189 412.461 38.4738 405.599 36.4933 402.703C33.9445 398.981 38.6137 399.432 40.1205 398.841C47.9702 395.746 55.9958 393.107 63.9132 390.193C66.6876 389.169 68.3117 389.457 69.9087 392.417C74.0952 400.172 74.3433 400.122 67.9327 406.343C66.4169 407.814 64.4094 408.788 62.6274 409.988C63.0741 410.516 63.5071 411.044 63.9402 411.581Z" fill="#D09700"/>
<path fill-rule="evenodd" clip-rule="evenodd" d="M439.611 417.924C442.377 419.503 445.088 421.203 447.935 422.625C450.831 424.064 451.399 425.773 449.59 428.57C444.497 436.461 447.014 436.28 438.759 431.593C432.344 427.943 426.028 424.127 419.559 420.576C416.626 418.966 416.166 417.721 417.79 414.351C420.501 408.716 424.602 407.051 430.268 407.304C433.142 407.435 436.02 407.327 439.661 407.327C436.675 404.079 433.237 402.671 430.061 401.078C427.147 399.621 426.962 398.119 428.676 395.719C429.614 394.402 430.481 393.003 431.162 391.546C432.195 389.313 433.282 388.672 435.678 390.121C443.383 394.763 451.192 399.233 459.042 403.632C461.527 405.026 462.204 406.253 460.846 409.149C458.415 414.328 455.442 417.797 449.054 416.877C446.067 416.44 442.959 416.8 439.909 416.8C439.81 417.175 439.711 417.549 439.611 417.924Z" fill="#D09700"/>
<path fill-rule="evenodd" clip-rule="evenodd" d="M32.2392 275.619C35.8753 276.756 38.9565 277.459 42.1099 277.319C47.2077 277.103 47.6679 280.044 46.9145 283.929C46.2604 287.267 46.8062 291.02 40.7611 289.599C32.582 287.668 24.1053 286.947 15.7232 286.008C12.7773 285.679 12.1728 284.429 12.3893 281.822C12.8405 276.408 13.9006 271.775 20.4015 270.39C23.6541 269.7 26.6542 267.837 31.1384 265.915C26.379 265.229 23.0225 264.548 19.6345 264.313C16.418 264.088 15.2992 262.784 15.5743 259.522C16.2195 251.907 16.4134 251.519 23.8707 252.439C31.7068 253.405 39.5069 254.682 47.3431 255.679C49.5897 255.963 50.316 256.856 50.3521 259.13C50.4739 266.213 49.0664 268.576 42.6333 271.252C39.34 272.61 36.0648 274.008 32.2392 275.619Z" fill="#D09700"/>
<path fill-rule="evenodd" clip-rule="evenodd" d="M356.441 108.037C354.708 111.158 352.859 114.231 351.28 117.429C350.08 119.865 348.74 120.668 346.317 118.959C345.005 118.034 343.516 117.339 342.063 116.626C339.699 115.467 339.018 114.086 340.502 111.537C345.014 103.76 349.385 95.9012 353.639 87.9793C354.961 85.5251 356.125 85.3176 358.714 86.4093C364.29 88.7688 367.507 92.062 366.524 98.6035C366.05 101.761 366.438 105.05 366.438 109.182C369.862 105.853 371.112 102.109 372.993 98.8516C376.142 93.3839 378.663 98.3734 381.339 99.1674C384.046 99.9749 385.597 101.369 383.689 104.667C379.083 112.593 374.734 120.673 370.408 128.757C369.298 130.828 368.306 130.905 366.19 130.038C360.099 127.544 356.332 123.975 357.699 116.694C358.205 113.978 357.781 111.086 357.781 108.276C357.334 108.208 356.887 108.122 356.441 108.037Z" fill="#D09700"/>
<path fill-rule="evenodd" clip-rule="evenodd" d="M460.77 192.146C460.697 202.098 452.735 210.15 443.027 210.083C432.705 210.011 424.729 201.565 424.801 190.779C424.873 180.836 432.632 173.288 442.756 173.315C452.911 173.352 460.842 181.643 460.77 192.146Z" fill="#D09700"/>
<path fill-rule="evenodd" clip-rule="evenodd" d="M450.624 327.548C450.669 316.55 458.149 308.718 468.52 308.822C478.4 308.917 486.741 317.502 486.484 327.314C486.213 337.834 478.589 345.531 468.389 345.571C457.779 345.612 450.579 338.308 450.624 327.548Z" fill="#D09700"/>
<path fill-rule="evenodd" clip-rule="evenodd" d="M177.238 97.7012C177.17 107.933 168.851 115.814 158.308 115.638C148.297 115.471 140.8 107.351 140.953 96.8395C141.102 86.9958 149.484 79.11 159.657 79.2454C169.952 79.3762 177.305 87.0996 177.238 97.7012Z" fill="#D09700"/>
<path fill-rule="evenodd" clip-rule="evenodd" d="M396.772 115.638C408.145 116.026 415.598 123.808 415.282 134.951C415.002 144.587 406.647 152.072 396.56 151.715C386.82 151.372 378.447 142.657 378.614 133.034C378.785 123.285 387.113 115.309 396.772 115.638Z" fill="#D09700"/>
<path fill-rule="evenodd" clip-rule="evenodd" d="M163.695 518.765C159.386 518.639 153.553 515.12 147.314 512.946C145.595 512.346 145.491 511.159 146.186 509.486C149.845 500.688 153.422 491.855 156.928 482.995C157.816 480.748 159.089 480.487 161.11 481.421C165.837 483.604 170.818 485.332 175.311 487.912C182.092 491.806 184.632 499.371 182.394 507.081C180.224 514.57 174.301 518.865 163.695 518.765Z" fill="#D09700"/>
<path fill-rule="evenodd" clip-rule="evenodd" d="M456.195 236.799C453.858 231.845 457.282 231.421 460.197 230.33C464.203 228.827 463.688 232.324 464.46 234.101C465.597 236.731 466.305 239.551 467.234 242.276C469.179 247.982 468.619 248.812 462.421 249.327C453.182 250.094 446.622 246.349 443.338 238.427C440.442 231.462 442.115 222.647 447.227 217.892C452.703 212.799 462.394 211.653 468.876 215.338C477.358 220.157 480.714 232.887 475.675 240.832C474.362 242.898 473.401 243.85 471.452 241.301C469.021 238.125 465.61 235.757 467.031 230.69C467.794 227.966 465.331 225.958 462.601 225.543C458.961 224.993 455.64 226.274 453.718 229.414C452.049 232.148 452.559 234.931 456.195 236.799Z" fill="#D09700"/>
<path fill-rule="evenodd" clip-rule="evenodd" d="M114.115 493.303C107.177 489.072 100.441 485.476 103.811 475.809C103.198 476.391 102.341 476.851 102.016 477.564C99.9496 482.052 97.518 481.321 94.3691 478.551C88.0668 473.007 88.3465 475.398 93.1059 468.992C97.8247 462.64 102.873 456.532 107.628 450.207C109.374 447.884 110.813 447.369 113.177 449.44C116.285 452.16 119.66 454.578 122.939 457.096C127.5 460.605 129.837 465.184 128.073 470.787C126.49 475.8 123.093 479.097 117.151 478.064C114.999 477.694 115.46 479.382 115.342 480.496C114.914 484.592 114.548 488.697 114.115 493.303Z" fill="#D09700"/>
<path fill-rule="evenodd" clip-rule="evenodd" d="M117.512 137.996C117.507 144.962 112.929 151.192 106.053 153.998C100.27 156.357 95.1089 155.054 90.0156 149.757C86.2667 145.864 82.775 141.723 78.9539 137.906C76.8471 135.804 76.59 134.712 79.1659 132.538C85.8156 126.939 85.6758 126.741 91.8427 133.259C94.3194 135.876 96.6202 138.664 99.2052 141.163C100.577 142.49 102.323 143.969 104.384 142.066C106.459 140.148 105.138 138.285 103.861 136.855C100.383 132.957 96.7781 129.159 93.0518 125.491C90.5299 123.01 90.6878 121.377 93.521 119.098C99.8413 114.019 99.7466 113.838 105.494 119.924C108.341 122.933 111.138 126.001 113.822 129.15C116.078 131.784 118.013 134.635 117.512 137.996Z" fill="#D09700"/>
<path fill-rule="evenodd" clip-rule="evenodd" d="M294.514 531.844C287.088 531.817 282.739 528.731 280.696 521.499C279.09 515.806 278.057 509.95 276.487 504.248C275.747 501.555 276.103 500.156 279.108 499.958C280.163 499.89 281.278 499.646 282.225 499.186C287.332 496.723 288.703 499.574 289.493 503.919C290.332 508.498 291.527 513.018 292.642 517.543C293.097 519.383 293.995 521.219 296.269 520.628C298.452 520.056 299.287 518.391 298.687 516C297.554 511.471 296.945 506.788 295.488 502.376C293.864 497.467 295.61 495.888 300.279 494.756C304.836 493.646 307.285 493.935 307.953 499.159C308.494 503.418 309.649 507.6 310.592 511.804C313.362 524.084 307.114 531.889 294.514 531.844Z" fill="#D09700"/>
<path fill-rule="evenodd" clip-rule="evenodd" d="M414.389 470.778C408.817 460.903 403.304 451.078 397.724 441.297C396.853 439.763 397.277 438.802 398.252 437.489C404.856 428.593 404.816 428.566 415.034 432.608C422.04 435.378 429.032 438.18 436.061 440.882C438.633 441.87 439.72 442.889 437.225 445.258C435.411 446.981 433.9 449.025 432.24 450.915C431.536 451.714 430.918 452.273 429.547 452.093C424.548 451.429 421.589 454.822 422.82 459.829C423.136 461.124 422.811 461.918 422.044 462.676C419.5 465.184 417.822 468.509 414.389 470.778Z" fill="#D09700"/>
<path fill-rule="evenodd" clip-rule="evenodd" d="M360.28 468.938C361.457 469.786 362.513 470.472 363.474 471.27C370.818 477.36 378.082 483.541 385.498 489.532C388.142 491.67 388.115 493.091 384.921 494.179C381.312 495.401 378.979 500.697 373.566 496.885C372.181 495.906 367.475 498.329 366.56 501.929C365.869 504.649 359.378 510.983 356.905 510.893C355.078 510.826 355.182 509.156 354.97 508.132C352.976 498.455 351.131 488.747 349.205 479.061C348.758 476.833 349.367 475.312 351.46 474.184C354.465 472.569 357.329 470.711 360.28 468.938Z" fill="#D09700"/>
<path fill-rule="evenodd" clip-rule="evenodd" d="M183.91 526.953C189.68 517.168 195.278 507.758 200.778 498.293C201.842 496.466 203.065 495.721 205.163 496.299C207.409 496.917 209.683 497.616 211.984 497.779C215.106 498 216.315 499.637 216.685 502.479C217.907 511.917 219.098 521.364 220.519 530.77C220.939 533.558 220.064 534.744 217.551 533.806C213.906 532.448 208.812 534.424 206.994 528.356C206.331 526.141 200.814 525.023 199.42 526.755C195.531 531.586 191.615 528.176 187.731 527.996C186.68 527.946 185.656 527.445 183.91 526.953Z" fill="#D09700"/>
<path fill-rule="evenodd" clip-rule="evenodd" d="M45.4709 236.402C42.6378 236.641 42.3806 239.194 41.2257 240.859C38.7806 244.382 35.6813 246.66 31.188 245.641C26.6632 244.612 23.1398 242.036 22.1969 237.313C21.2721 232.662 21.6285 228.006 24.0376 223.666C27.6015 217.251 28.0572 217.251 33.6692 221.713C35.9114 223.495 35.6903 224.456 33.9715 226.301C32.4241 227.952 30.9264 229.928 32.4106 232.54C34.955 232.229 35.167 229.878 36.2497 228.354C38.8257 224.713 41.4648 221.429 46.7701 222.732C52.6935 224.185 56.095 227.641 56.7221 233.325C57.2364 237.985 55.9687 242.221 53.704 246.263C49.8468 253.139 49.1521 253.206 43.125 248.406C41.0678 246.773 40.6257 245.826 42.6603 243.913C44.731 241.969 46.8423 239.821 45.4709 236.402Z" fill="#D09700"/>
<path fill-rule="evenodd" clip-rule="evenodd" d="M106.477 443.859C105.277 446.489 102.868 447.568 100.906 449.034C99.2232 450.292 98.5105 448.276 97.4097 447.532C95.4788 446.219 94.2833 441.775 92.1179 443.593C90.0698 445.321 93.742 447.699 95.2533 449.404C97.3059 451.718 95.4653 452.67 94.1254 453.563C92.4608 454.664 91.4367 458.066 88.4728 455.575C88.0622 455.232 87.8096 454.668 87.363 454.402C85.6126 453.365 85.0577 448.871 82.4501 451.335C80.7313 452.95 83.8622 455.372 85.4502 456.775C88.8246 459.771 86.8397 461.363 84.4848 463.488C82.0125 465.726 80.3885 466.371 78.0697 463.145C75.029 458.914 71.42 455.093 68.0094 451.136C66.444 449.327 66.2725 447.892 68.3478 446.21C75.4802 440.426 82.5133 434.516 89.5555 428.629C91.0172 427.407 92.1766 426.292 93.9134 428.485C97.6172 433.127 101.547 437.593 105.368 442.145C105.801 442.673 106.121 443.309 106.477 443.859Z" fill="#D09700"/>
<path fill-rule="evenodd" clip-rule="evenodd" d="M467.045 303.133C464.55 303.133 462.944 303.128 461.333 303.133C453.236 303.151 451.652 301.622 452.153 293.438C452.595 286.301 455.703 280.5 462.515 277.667C469.436 274.784 476.343 275.258 482.243 280.347C488.054 285.359 488.568 292.108 487.612 299.177C487.314 301.396 485.866 302.145 483.822 302.145C480.958 302.136 478.093 302.14 474.791 302.14C476.478 297.602 478.828 293.122 473.708 289.856C471.313 288.327 468.331 288.259 466.129 290.19C461.604 294.169 464.546 298.338 467.045 303.133Z" fill="#D09700"/>
<path fill-rule="evenodd" clip-rule="evenodd" d="M341.567 93.0094C338.31 88.7913 334.922 85.683 329.977 88.5116C327.189 90.1086 326.409 93.3387 327.537 96.1493C329.553 101.188 333.979 100.994 338.49 99.8802C338.955 102.231 337.615 103.832 336.911 105.551C334.141 112.354 332.089 113.094 325.236 110.017C318.582 107.031 314.743 102 314.395 94.629C314.043 87.1267 317.165 81.068 323.675 77.6078C330.338 74.0619 337.236 75.0273 343.615 79.1371C345.289 80.2153 346.268 81.4153 345.307 83.5853C344.021 86.4996 342.947 89.4996 341.567 93.0094Z" fill="#D09700"/>
<path fill-rule="evenodd" clip-rule="evenodd" d="M342.325 494.946C337.326 493.741 333.23 493.727 331.15 498C329.598 501.176 330.406 504.726 333.632 506.544C338.856 509.481 341.802 505.155 345.086 501.618C345.722 503.007 346.29 503.878 346.525 504.834C347.305 508.01 350.865 511.24 348.347 514.331C345.027 518.409 339.771 519.758 334.642 519.447C325.087 518.874 317.928 511.042 317.72 501.631C317.517 492.419 324.677 484.407 334.141 483.207C336.275 482.936 337.926 483.027 338.693 485.639C339.55 488.553 340.89 491.327 342.325 494.946Z" fill="#D09700"/>
<path fill-rule="evenodd" clip-rule="evenodd" d="M254.756 510.316C259.357 500.404 259.804 500.192 271.98 500.901C271.867 503.959 269.864 506.179 268.443 508.516C264.211 515.454 260.327 522.131 262.055 531.032C263.426 538.096 257.02 534.97 253.858 535.791C250.122 536.761 248.918 534.627 249.527 531.302C251.417 521.003 244.443 514.213 239.859 506.454C239.092 505.155 237.139 503.896 238.339 502.344C238.97 501.528 240.969 501.749 242.358 501.546C248.349 500.68 253.497 501.383 254.756 510.316Z" fill="#D09700"/>
<path fill-rule="evenodd" clip-rule="evenodd" d="M40.9144 187.07C42.9761 187.986 45.0739 189.01 47.2483 189.854C50.6589 191.176 49.4092 193.292 48.3716 195.471C47.3295 197.659 49.0483 198.331 50.501 199.021C55.0484 201.177 59.5507 203.456 64.2109 205.341C67.2335 206.564 68.0636 208.107 66.4124 210.971C65.6049 212.37 64.8921 213.841 64.3372 215.356C63.3988 217.932 62.0906 218.46 59.5281 217.134C54.7461 214.653 49.7566 212.568 44.916 210.2C42.9626 209.248 41.8212 209.298 40.8152 211.54C37.9234 217.987 34.6211 212.162 31.6572 211.531C27.8045 210.71 29.7625 208.21 30.7143 206.162C33.2948 200.622 35.8347 195.064 38.4467 189.538C38.9385 188.491 39.0873 186.989 40.9144 187.07Z" fill="#D09700"/>
<path fill-rule="evenodd" clip-rule="evenodd" d="M127.275 94.2726C130.175 96.1222 131.281 99.0952 133.049 101.518C134.506 103.516 132.806 104.545 131.461 105.33C129.07 106.724 129.345 108.163 130.775 110.116C133.753 114.186 136.455 118.462 139.518 122.459C141.521 125.071 141.445 126.813 138.418 128.383C136.997 129.123 135.657 130.12 134.475 131.216C132.224 133.309 130.915 132.434 129.454 130.205C126.593 125.838 123.49 121.629 120.526 117.33C119.461 115.783 118.64 114.235 116.362 115.918C109.974 120.637 110.177 113.031 107.894 110.883C104.79 107.96 109.108 107.252 110.556 106.128C114.968 102.713 119.605 99.5914 124.162 96.3703C125.186 95.644 126.233 94.9764 127.275 94.2726Z" fill="#D09700"/>
<path fill-rule="evenodd" clip-rule="evenodd" d="M407.274 476.115C404.924 479.052 402.276 481.484 399.271 483.437C396.826 485.021 396.285 482.152 395.247 481.069C391.773 477.419 388.548 473.535 385.205 469.754C384.104 468.509 383.044 467.233 381.23 468.92C375.397 474.347 374.63 466.89 372.163 464.914C368.982 462.374 372.993 461.088 374.351 459.816C378.555 455.882 383.112 452.336 387.348 448.434C389.509 446.444 390.975 445.971 392.793 448.799C394.787 451.899 399.817 454.231 393.957 458.481C392.414 459.599 394.584 461.39 395.527 462.523C398.631 466.263 401.906 469.858 405.109 473.521C405.808 474.32 406.471 475.15 407.274 476.115Z" fill="#D09700"/>
<path fill-rule="evenodd" clip-rule="evenodd" d="M79.6171 149.216C78.9449 150.168 78.6291 150.858 78.1058 151.305C75.3042 153.691 77.0231 155.157 79.0396 156.759C82.978 159.885 86.6818 163.327 90.7781 166.224C93.2728 167.988 92.8849 169.206 91.3826 171.303C86.1765 178.558 86.2442 178.598 79.59 173.203C77.217 171.281 74.6907 169.535 72.4486 167.473C69.7192 164.969 67.3057 162.75 64.7523 167.663C63.8861 169.336 62.5733 168.227 61.6079 167.496C60.0334 166.3 58.662 164.816 57.0018 163.769C54.8093 162.38 55.2379 161.225 56.6635 159.524C60.8094 154.566 64.7613 149.451 68.8936 144.479C69.7914 143.401 70.5628 141.235 72.6606 142.837C75.1644 144.745 77.808 146.554 79.6171 149.216Z" fill="#D09700"/>
<path fill-rule="evenodd" clip-rule="evenodd" d="M436.711 151.021C435.89 151.9 435.263 152.744 434.473 153.393C431.135 156.136 427.747 158.812 424.39 161.523C419.044 165.84 418.873 166.003 423.533 171.123C426.023 173.861 426.263 175.535 423.177 177.935C417.014 182.726 418.075 182.735 413.518 176.866C410.649 173.167 407.617 169.598 404.595 166.025C403.029 164.175 402.962 162.709 405.014 161.081C412.345 155.27 419.631 149.401 426.84 143.437C428.464 142.093 429.484 142.07 430.76 143.739C432.619 146.166 434.617 148.476 436.711 151.021Z" fill="#D09700"/>
<path fill-rule="evenodd" clip-rule="evenodd" d="M25.0526 309.584C23.2526 309.584 21.4075 309.35 19.6481 309.625C14.3743 310.46 12.2811 308.772 12.3894 303.043C12.4796 298.333 13.1743 296.416 18.4661 296.592C25.8196 296.844 33.2452 297.151 40.6032 295.996C45.0288 295.297 48.1055 296.267 47.0634 301.82C46.8333 303.043 46.9416 304.347 47.0453 305.601C47.2348 307.906 46.2919 308.926 43.946 308.799C37.6257 308.457 31.382 310.198 25.0526 309.584Z" fill="#CF9501"/>
<path fill-rule="evenodd" clip-rule="evenodd" d="M50.9341 170.004C60.2906 175.463 69.4847 180.786 78.6201 186.204C79.9645 187.003 78.8953 188.126 78.4126 189.01C77.2938 191.068 76.0486 193.057 74.9795 195.137C73.9148 197.203 72.6381 197.46 70.6396 196.278C62.5688 191.514 54.4755 186.795 46.301 182.207C44.2754 181.07 43.6528 179.97 45.1145 178.066C47.104 175.476 47.5597 171.718 50.9341 170.004Z" fill="#D09700"/>
<path fill-rule="evenodd" clip-rule="evenodd" d="M150.842 476.499C150.156 477.599 149.669 478.357 149.204 479.129C144.756 486.554 140.1 493.858 135.963 501.446C134.001 505.042 132.156 505.11 129.323 502.872C128.479 502.209 127.536 501.6 126.544 501.212C122.948 499.809 122.759 497.986 124.852 494.77C129.463 487.669 133.848 480.396 137.908 472.971C139.794 469.515 141.661 469.642 144.188 471.703C146.303 473.431 149.425 473.905 150.842 476.499Z" fill="#D09700"/>
<path fill-rule="evenodd" clip-rule="evenodd" d="M453.276 271.369C452.04 271.847 451.427 270.187 451.183 268.549C449.591 257.903 447.317 259.545 457.815 257.591C464.681 256.31 471.547 254.975 478.35 253.4C481.693 252.629 483.344 253.048 484.084 256.915C485.681 265.279 485.893 265.103 477.601 266.56C469.846 267.922 462.141 269.601 453.276 271.369Z" fill="#D09700"/>
<path fill-rule="evenodd" clip-rule="evenodd" d="M43.8829 351.152C43.7836 355.961 40.8964 358.695 35.9881 358.632C31.3459 358.573 27.5113 354.81 27.7188 350.52C27.9263 346.347 31.6076 343.036 36.0287 343.045C41.158 343.058 43.9957 345.986 43.8829 351.152Z" fill="#CF9600"/>
<path fill-rule="evenodd" clip-rule="evenodd" d="M464.144 368.561C464.108 373.203 460.404 376.925 456.001 376.726C451.738 376.537 448.454 372.955 448.476 368.516C448.508 363.522 451.666 360.432 456.606 360.576C461.248 360.711 464.176 363.819 464.144 368.561Z" fill="#D09600"/>
<path fill-rule="evenodd" clip-rule="evenodd" d="M238.569 110.658C240.166 114.235 241.1 118.097 243.369 121.386C247.817 127.828 253.38 127.778 257.124 120.989C258.924 117.727 260.07 114.113 261.518 110.653C283.168 112.516 304.109 117.204 324.194 125.721C328.371 127.494 330.844 129.515 329.81 134.306C328.813 138.93 331.218 141.001 335.111 143.284C390.871 176.018 422.694 224.311 425.969 289.243C430.535 379.704 367.336 456.861 277.953 471.929C183.256 487.89 90.9224 421.19 76.1343 326.141C64.4184 250.829 99.5706 179.162 166.32 142.643C170.281 140.478 172.532 138.208 171.549 133.571C170.597 129.073 172.862 127.106 176.899 125.378C196.641 116.924 217.303 112.58 238.569 110.658Z" fill="#FEFEFE"/>
<path fill-rule="evenodd" clip-rule="evenodd" d="M167.737 130.286C169.262 135.384 167.268 138.032 162.607 140.771C105.774 174.222 73.9509 223.725 70.8561 289.829C66.6786 379.068 127.162 455.886 214.334 474.067C310.137 494.048 406.092 431.061 426.05 335.087C442.219 257.352 406.949 179.654 337.854 140.784C336.758 140.166 335.54 139.665 334.62 138.844C332.355 136.828 333.013 133.896 333.785 131.838C334.624 129.596 336.586 131.771 337.723 132.411C397.855 166.44 432.38 217.621 436.584 286.762C442.075 377.083 383.527 456.311 296.932 478.89C212.457 500.919 122.944 460.61 83.6006 382.839C36.8001 290.321 72.4215 179.266 164.277 131.383C165.337 130.832 166.32 129.786 167.737 130.286Z" fill="#FEFEFE"/>
<path fill-rule="evenodd" clip-rule="evenodd" d="M234.058 84.2304C234.5 87.4064 234.319 89.1613 231.491 90.0635C224.133 92.4184 216.847 94.9628 209.155 96.0907C207.048 96.3974 205.127 96.2576 203.769 94.5297C202.357 92.7387 203.674 90.9568 204.49 89.5357C208.866 81.9026 215.769 76.5476 221.99 70.5882C222.897 69.722 223.767 69.5641 224.827 70.3897C229.718 74.1747 236.196 76.9311 234.058 84.2304Z" fill="#7E0927"/>
<path fill-rule="evenodd" clip-rule="evenodd" d="M240.694 40.1863C242.787 31.9216 244.082 23.3501 248.011 15.6222C250.307 11.1019 252.834 11.165 255.175 15.753C259.127 23.4854 260.571 32.0164 262.357 40.4119C262.492 41.0525 262.384 41.9142 262.041 42.46C259.195 46.9759 244.086 47.2691 241.199 42.848C240.761 42.1804 240.861 41.1563 240.694 40.1863Z" fill="#7E0827"/>
<path fill-rule="evenodd" clip-rule="evenodd" d="M209.074 38.0796C217.113 39.2706 225.531 41.8691 233.778 44.9729C236.309 45.9248 235.488 55.1549 232.876 57.6046C232.745 57.7264 232.578 57.8076 232.438 57.9204C224.394 64.5881 224.34 64.6513 216.509 57.8166C212.033 53.9098 207.892 49.6105 204.73 44.5578C202.095 40.3623 203.43 38.2014 209.074 38.0796Z" fill="#7E0827"/>
<path fill-rule="evenodd" clip-rule="evenodd" d="M267.509 49.182C266.85 45.7127 268.01 44.9684 269.765 44.3639C276.712 41.9638 283.723 39.7849 290.918 38.3052C293.368 37.8044 296.336 37.4345 297.888 39.7849C299.558 42.3112 297.415 44.4405 295.921 46.4706C291.541 52.4481 285.997 57.2978 280.718 62.4137C279.347 63.7355 278.201 63.9926 276.518 62.8422C271.154 59.1745 265.136 55.9986 267.509 49.182Z" fill="#7E0827"/>
<path fill-rule="evenodd" clip-rule="evenodd" d="M287.395 79.3627C286.966 80.7792 286.664 81.6274 286.461 82.5026C283.569 95.0034 283.556 95.0485 271.497 90.3929C269.634 89.671 266.156 89.635 266.49 87.3297C267.044 83.477 265.33 78.7582 269.598 75.8619C271.687 74.4453 273.947 73.2092 275.769 71.5085C277.831 69.5867 279.532 69.6859 281.233 71.6483C283.461 74.2243 287.467 75.5416 287.395 79.3627Z" fill="#7E0927"/>
<path fill-rule="evenodd" clip-rule="evenodd" d="M242.724 109.255C241.073 104.504 240.301 99.5689 239.404 94.638C238.912 91.9447 240.062 91.0966 242.101 90.3477C244.294 89.5402 244.51 90.7312 245.25 92.5087C246.87 96.4245 250.574 93.7222 253.289 94.2951C254.611 94.5748 256.641 95.0756 257.056 92.5447C257.237 91.453 256.24 89.1793 259.01 89.9958C261.184 90.6365 261.667 92.1252 261.139 94.1869C259.849 99.1944 258.604 104.216 257.345 109.232C252.468 108.515 247.596 108.501 242.724 109.255Z" fill="#7E0926"/>
<path fill-rule="evenodd" clip-rule="evenodd" d="M264.545 60.6001C255.238 60.6001 246.874 60.6001 238.407 60.6001C244.416 51.424 254.584 51.1804 264.545 60.6001Z" fill="#7E0926"/>
<path fill-rule="evenodd" clip-rule="evenodd" d="M256.907 110.572C255.64 114.962 254.986 121.404 250.177 121.516C245.837 121.616 244.786 115.223 243.193 111.113C243.13 110.955 243.175 110.757 243.17 110.581C247.749 108.1 252.328 108.1 256.907 110.572Z" fill="#FDFCFA"/>
<path fill-rule="evenodd" clip-rule="evenodd" d="M256.907 110.572C252.324 110.572 247.749 110.577 243.17 110.581C243.022 110.139 242.877 109.697 242.728 109.255C246.067 106.404 253.993 106.399 257.341 109.237C257.196 109.683 257.056 110.125 256.907 110.572Z" fill="#0D0000"/>
<path fill-rule="evenodd" clip-rule="evenodd" d="M238.244 65.0437C238.307 68.6934 238.041 72.2483 243.482 72.1626C245.733 72.1265 245.359 75.0183 244.944 76.6017C244.312 79.0108 242.733 77.3596 241.659 76.8544C237.243 74.7792 237.261 74.7431 238.244 65.0437Z" fill="#881B21"/>
<path fill-rule="evenodd" clip-rule="evenodd" d="M268.073 71.8107C268.073 68.2287 268.073 65.5761 268.073 62.549C270.757 63.37 273.811 64.5385 273.951 66.731C274.096 69.0588 270.852 70.0694 268.073 71.8107Z" fill="#831224"/>
<path fill-rule="evenodd" clip-rule="evenodd" d="M239.241 80.3597C241.068 81.695 244.303 81.6499 244.488 84.1943C244.619 85.9673 241.907 86.3282 240.265 86.6169C237.378 87.1312 237.924 84.6906 237.739 83.0935C237.613 81.9702 237.409 80.5807 239.241 80.3597Z" fill="#871822"/>
<path fill-rule="evenodd" clip-rule="evenodd" d="M257.007 78.7221C257.548 75.501 255.446 72.6769 259.132 71.8784C260.544 71.5716 263.088 71.0032 263.327 72.9747C263.742 76.5296 260.183 76.6017 257.007 78.7221Z" fill="#861723"/>
<path fill-rule="evenodd" clip-rule="evenodd" d="M233.331 71.143C230.611 69.8618 227.895 68.9551 227.782 66.9926C227.665 64.9535 230.539 64.2227 232.578 62.8557C234.107 65.4633 233.16 68.0483 233.331 71.143Z" fill="#821025"/>
<path fill-rule="evenodd" clip-rule="evenodd" d="M256.853 49.9579C259.019 48.627 260.792 46.9894 262.556 47.9729C264.527 49.0782 263.268 51.4466 263.607 53.391C260.814 53.2105 259.15 51.6406 256.853 49.9579Z" fill="#831224"/>
<path fill-rule="evenodd" clip-rule="evenodd" d="M239.043 53.5579C238.533 51.415 238.325 49.2767 240.13 48.1037C241.844 46.9894 243.346 48.5593 245.124 49.7323C243.527 51.8481 241.47 52.8586 239.043 53.5579Z" fill="#891C21"/>
<path fill-rule="evenodd" clip-rule="evenodd" d="M264.144 80.0033C261.978 82.6289 264.166 85.6875 260.787 86.1883C259.677 86.3507 257.286 85.5161 257.58 84.1311C258.089 81.7446 260.652 81.3522 264.144 80.0033Z" fill="#851523"/>
<path fill-rule="evenodd" clip-rule="evenodd" d="M442.774 197.257C438.944 197.243 436.855 195.57 436.796 192.146C436.729 188.207 439.282 186.394 442.896 186.096C446.55 185.803 448.864 187.598 448.747 191.343C448.616 195.2 445.851 196.743 442.774 197.257Z" fill="#7E0926"/>
<path fill-rule="evenodd" clip-rule="evenodd" d="M468.326 332.646C464.807 332.641 462.136 330.955 462.073 327.476C462.01 323.867 464.338 321.404 468.276 321.742C471.719 322.036 474.795 323.565 474.574 327.571C474.376 331.072 471.989 332.903 468.326 332.646Z" fill="#7F0A26"/>
<path fill-rule="evenodd" clip-rule="evenodd" d="M164.98 97.9899C164.516 101.166 162.81 103.647 159.549 103.539C155.606 103.408 153.503 100.498 153.364 96.7267C153.242 93.3838 155.547 91.2229 158.687 91.1868C162.851 91.1372 164.218 94.4485 164.98 97.9899Z" fill="#800C26"/>
<path fill-rule="evenodd" clip-rule="evenodd" d="M397.313 127.665C401.139 127.742 403.192 129.835 403.056 132.989C402.894 136.702 400.363 139.404 396.596 139.58C393.483 139.729 391.133 137.793 391.286 134.252C391.462 130.3 393.79 128.193 397.313 127.665Z" fill="#7F0B26"/>
<path fill-rule="evenodd" clip-rule="evenodd" d="M170.615 501.365C170.561 504.162 169.149 506.147 166.731 507.365C165.192 508.141 163.546 507.952 162.107 506.986C160.275 505.755 161.913 504.415 162.179 503.188C162.436 501.983 163.027 500.819 163.645 499.728C164.52 498.185 164.186 495.072 166.758 495.609C169.284 496.141 170.904 498.379 170.615 501.365Z" fill="#800D26"/>
<path fill-rule="evenodd" clip-rule="evenodd" d="M113.881 462.518C115.929 463.001 116.989 464.034 117.043 465.509C117.106 467.278 115.924 468.563 114.183 468.78C112.717 468.965 110.926 468.225 111.241 466.623C111.548 465.081 113.023 463.772 113.881 462.518Z" fill="#841324"/>
<path fill-rule="evenodd" clip-rule="evenodd" d="M411.041 442.637C413.437 443.819 414.745 444.392 415.986 445.095C416.996 445.668 418.593 445.939 418.061 447.653C417.876 448.253 417.213 448.912 416.617 449.133C415.322 449.616 414.686 448.461 414.104 447.64C413.175 446.341 412.417 444.915 411.041 442.637Z" fill="#8A1F20"/>
<path fill-rule="evenodd" clip-rule="evenodd" d="M360.911 483.541C363.235 485.742 364.638 487.028 365.982 488.373C366.812 489.194 367.309 490.046 365.865 490.849C364.665 491.512 363.569 492.072 362.973 490.227C362.391 488.422 361.85 486.595 360.911 483.541Z" fill="#891C21"/>
<path fill-rule="evenodd" clip-rule="evenodd" d="M206.584 511.047C206.507 513.631 208.826 516.591 205.713 518.598C205.262 518.887 203.561 518.323 203.457 517.904C202.736 515.007 204.982 513.203 206.584 511.047Z" fill="#90291D"/>
<path fill-rule="evenodd" clip-rule="evenodd" d="M460.612 25.3215C460.909 22.2945 459.195 18.5501 464.613 18.9155C469.774 19.2628 473.298 21.4328 473.388 25.0825C473.478 28.7186 469.562 31.1321 464.185 31.3622C458.324 31.6103 461.6 27.2208 460.612 25.3215Z" fill="#FCFAFA"/>
<path fill-rule="evenodd" clip-rule="evenodd" d="M392.969 254.258C392.301 258.882 392.157 262.888 391.056 266.61C389.987 270.214 391.755 270.891 394.431 271.635C405.817 274.82 405.605 274.874 406.76 286.446C407.753 296.38 406.882 306.223 406.241 316.094C406.02 319.437 404.811 321.242 400.986 322.117C387.474 325.225 387.555 325.469 383.996 338.949C383.387 341.249 383.387 343.176 385.534 344.651C385.976 344.949 386.306 345.404 386.685 345.788C396.813 355.974 396.822 355.979 390.185 368.935C389.04 371.177 388.11 373.632 386.527 375.522C380.103 383.205 378.397 392.11 379.489 401.697C380.107 407.101 377.73 409.686 372.848 411.54C364.376 414.743 355.719 415.312 346.11 414.4C348.956 420.202 345.641 422.688 341.711 425.399C331.899 432.171 321.595 437.977 310.682 442.768C308.12 443.895 305.95 444.319 304.218 441.55C303.933 441.098 303.464 440.774 303.081 440.39C292.836 430.145 292.836 430.163 279.216 434.846C277.781 435.337 276.518 435.725 276.428 437.584C276.387 438.455 275.932 439.303 275.706 440.174C272.12 454.01 272.12 453.987 257.995 454.677C248.602 455.147 239.273 454.438 229.925 453.644C226.957 453.387 225.279 452.228 224.882 449.273C224.832 448.917 224.728 448.569 224.633 448.222C220.749 434.273 220.74 434.327 206.502 430.948C204.662 430.51 203.426 430.682 202.262 432.094C201.689 432.784 200.99 433.371 200.372 434.025C190.83 444.062 190.821 444.08 178.329 437.426C174.838 435.568 171.062 434.02 168.03 431.571C159.648 424.808 150.395 420.919 139.527 421.294C136.812 421.388 135.905 420.161 135.693 417.409C135.151 410.408 134.186 403.442 133.392 396.459C133.139 394.239 132.63 392.561 129.756 393.937C127.076 395.232 125.484 393.635 123.999 391.573C116.181 380.737 109.577 369.233 104.429 356.886C103.545 354.761 103.441 353.191 105.462 351.806C106.049 351.404 106.496 350.8 107.005 350.29C117.223 340.054 117.169 340.072 112.879 326.294C112.297 324.427 111.264 323.727 109.581 323.303C106.27 322.473 103.026 321.16 99.6699 320.754C95.4924 320.245 93.9586 318.165 93.6969 314.168C92.8759 301.55 92.6367 288.981 94.3781 276.395C94.7661 273.607 95.551 272.05 98.4157 271.897C98.7766 271.879 99.1376 271.843 99.4894 271.766C113.484 268.761 113.384 268.739 116.632 254.596C117.102 252.561 116.488 251.646 115.324 250.459C113.05 248.145 111.133 245.366 108.544 243.516C104.222 240.43 104.695 237.218 106.721 233.059C111.846 222.507 117.643 212.402 124.608 202.946C126.458 200.433 128.24 199.206 131.267 200.428C132.097 200.767 133.045 200.816 133.861 201.168C142.117 204.692 148.649 203.05 154.248 195.665C156.251 193.025 156.905 191.117 156.116 188.108C152.358 173.834 152.398 173.816 164.588 165.845C166.546 164.563 168.571 163.395 170.556 162.159C171.657 161.473 172.668 160.797 171.955 159.172C170.128 155.004 173.123 154.521 176.015 153.926C186.486 151.787 186.77 151.765 186.373 141.569C186.188 136.905 187.681 135.705 192.143 134.915C230.011 128.211 267.784 128.581 305.58 135.384C308.463 135.903 308.964 137.225 308.909 139.738C308.819 143.69 307.682 148.521 309.505 151.372C311.395 154.332 316.768 153.236 320.544 154.228C322.231 154.675 324.645 154.323 323.968 157.616C323.549 159.615 325.872 159.926 327.18 160.697C333.081 164.171 338.716 168.033 344.373 171.881C347.373 173.924 348.009 176.103 346.638 179.004C342.397 187.995 343.146 195.452 351.975 201.574C354.487 203.32 356.152 205.251 359.314 203.695C359.784 203.465 360.375 203.51 360.902 203.388C374.175 200.234 374.166 200.239 381.479 211.49C386.68 219.502 391.106 227.911 394.986 236.65C396.42 239.885 396.686 242.1 393.42 244.333C390.614 246.25 388.295 248.867 385.647 251.032C384.113 252.282 382.904 253.617 383.924 255.579C385.246 258.115 386.978 256.049 388.512 255.688C389.73 255.408 390.894 254.939 392.969 254.258Z" fill="black"/>
<path fill-rule="evenodd" clip-rule="evenodd" d="M110.041 294.697C118.428 293.1 118.428 293.1 119.98 283.892C121.505 274.847 121.5 274.915 130.627 275.168C147.616 275.646 161.818 269.19 173.75 257.415C183.553 247.739 196.108 245.821 208.952 244.648C211.33 244.432 211.266 246.336 211.582 247.928C217.343 276.837 223.131 305.741 228.897 334.649C231.531 347.876 233.855 361.171 236.918 374.29C237.897 378.486 236.422 379.077 233.164 379.722C224.137 381.522 215.503 384.603 207.134 388.406C205.749 389.033 203.047 388.866 204.269 391.745C205.469 394.569 207.197 392.746 208.618 392.024C214.875 388.853 221.218 385.884 227.976 383.917C229.086 383.597 231.017 382.153 231.17 384.815C231.261 386.304 232.393 388.582 229.343 388.952C220.393 390.039 213.432 395.372 206.295 400.149C193.975 408.4 181.338 415.862 166.487 418.6C158.091 420.148 149.678 419.976 141.233 419.065C139 418.822 138.206 417.888 138.007 415.7C134.294 374.412 124.414 334.555 110.055 295.739C109.942 295.428 110.041 295.044 110.041 294.697Z" fill="#FEFEFE"/>
<path fill-rule="evenodd" clip-rule="evenodd" d="M348.902 411.612C339.487 411.197 331.25 407.079 322.94 403.262C317.878 400.934 312.961 398.299 307.971 395.827C298.592 391.176 289.064 386.886 278.417 386.245C275.503 386.065 275.544 384.635 275.422 382.447C275.228 379.054 277.488 380.214 278.986 380.354C287.995 381.202 296.706 383.182 305.012 386.958C321.546 394.483 338.959 398.651 357.032 400.19C358.674 400.33 360.393 400.785 360.677 398.385C362.157 385.902 364.561 373.501 364.029 360.824C361.548 370.686 359.883 380.683 358.8 390.775C358.345 394.979 357.65 397.257 352.101 396.775C339.05 395.647 326.535 393.211 314.58 387.671C301.105 381.427 286.993 377.241 272.02 376.713C268.244 376.577 267.026 375.765 267.68 371.385C274.078 328.839 280.19 286.261 286.222 243.665C286.655 240.602 288.009 240.408 290.431 240.412C305.323 240.435 319.096 244.662 330.807 253.527C345.23 264.444 360.88 265.017 377.482 261.751C379.227 261.408 380.874 260.528 382.728 261.043C382.791 261.345 382.85 261.652 382.918 261.958C379.624 270.918 379.796 280.41 379.006 289.694C376.575 318.237 374.157 346.78 371.675 375.323C371.066 382.316 370.408 389.317 370.033 396.342C369.56 405.179 368.143 406.294 359.698 408.012C353.283 409.316 347.206 408.148 340.394 406.618C345.194 408.039 349.755 407.918 353.563 410.358C352.692 413.358 350.635 411.879 348.902 411.612Z" fill="#FEFEFE"/>
<path fill-rule="evenodd" clip-rule="evenodd" d="M188.868 189.561C191.507 193.197 194.056 196.901 196.812 200.446C198.387 202.468 198.973 203.708 196.176 205.377C171.734 219.962 155.475 240.985 147.35 268.261C146.624 270.692 145.248 271.572 142.834 272.059C136.378 273.372 129.909 273.593 123.512 272.303C120.377 271.671 119.294 272.398 119.005 275.461C118.649 279.219 117.607 282.931 117.485 286.685C117.35 290.885 115.739 292.518 111.562 291.81C107.398 291.111 106.356 292.193 107.98 296.632C118.572 325.586 127.076 355.135 131.867 385.654C132.187 387.675 134.037 390.093 130.487 391.51C127.067 392.872 126.07 390.445 124.577 388.442C117.638 379.158 112.22 369.026 107.47 358.483C106.153 355.568 106.148 353.38 108.837 351.463C117.255 345.476 120.093 338.362 115.708 328.076C113.971 324.003 112.748 321.594 108.359 320.524C96.2097 317.565 96.2007 317.398 95.5014 304.482C95.0232 295.644 95.33 286.834 96.3766 278.037C96.7014 275.316 97.5856 273.679 100.536 273.67C111.598 273.634 116.903 267.873 118.441 257.073C119.005 253.094 119.019 250.635 115.996 247.725C106.148 238.26 106.306 238.139 112.726 226.075C116.628 218.744 121.054 211.765 125.84 204.976C127.473 202.662 129.205 201.967 131.754 202.765C132.097 202.874 132.463 202.937 132.787 203.081C142.157 207.277 149.475 205.368 156.034 197.036C158.673 193.68 159.242 191.338 158.231 187.661C154.69 174.782 154.74 174.732 166.027 167.545C168.26 166.124 170.322 164.288 173.204 163.729C173.827 165.876 174.427 167.929 175.022 169.986C179.823 176.388 185.457 182.185 188.868 189.561Z" fill="#D09700"/>
<path fill-rule="evenodd" clip-rule="evenodd" d="M157.857 421.858C178.171 420.477 193.907 411.531 208.921 401.042C212.065 398.85 214.799 398.408 218.372 399.68C225.346 402.161 232.609 403.627 240.008 403.988C242.985 404.133 244.005 405.265 244.402 408.08C245.101 413.065 246.189 418 247.177 422.94C247.628 425.173 247.082 427.082 246.134 429.143C243.861 434.07 245.124 438.888 249.346 441.513C253.461 444.067 257.598 443.855 261.292 440.571C265.086 437.21 265.971 432.157 262.578 427.934C259.623 424.253 261.356 420.68 261.545 417.148C262.204 404.448 262.362 404.494 274.565 401.724C281.426 400.163 288.067 397.907 294.41 394.866C296.521 393.851 298.285 393.757 300.496 394.745C314.26 400.885 327.068 409.185 341.896 412.966C344.892 413.728 345.686 419.516 343.159 421.447C332.81 429.351 321.586 435.771 309.568 440.819C307.385 441.735 306.004 440.801 305.03 439.249C298.579 428.995 289.917 428.034 279.419 432.387C276.482 433.61 274.858 434.566 274.06 437.9C270.604 452.259 270.446 452.07 255.532 452.571C247.569 452.837 239.701 452.034 231.793 451.587C228.888 451.425 226.912 450.387 226.65 447.261C225.739 436.362 220.073 430.668 208.993 429.225C204.869 428.683 202.42 428.471 199.402 431.778C190.537 441.509 190.329 441.378 178.424 434.995C171.634 431.363 164.922 427.587 157.857 421.858Z" fill="#D09700"/>
<path fill-rule="evenodd" clip-rule="evenodd" d="M300.564 197.189C298.326 200.23 295.786 203.099 293.932 206.352C291.906 209.911 289.497 210.71 285.55 209.871C260.747 204.606 235.885 204.489 211.077 209.857C207.739 210.579 205.817 209.681 203.868 206.974C199.357 200.69 194.498 194.658 189.779 188.523C185.06 184.738 182.155 179.464 178.568 174.764C176.213 171.673 178.153 170.185 181.099 169.539C189.17 167.78 197.349 166.621 205.505 165.362C225.522 162.276 245.688 162.966 265.799 163.296C281.783 163.557 297.618 166.021 313.303 169.129C318.776 170.216 319.755 172.17 316.588 176.428C311.377 183.439 307.561 191.555 300.564 197.189Z" fill="#D09700"/>
<path fill-rule="evenodd" clip-rule="evenodd" d="M321.812 164.582C322.267 161.992 323.025 160.697 326.016 162.479C331.75 165.894 337.29 169.557 342.749 173.383C345 174.962 345.501 176.884 344.404 178.914C338.499 189.836 342.749 197.577 351.618 204.394C353.815 206.086 355.381 207.439 358.187 206.262C359.653 205.644 361.313 205.472 362.883 205.084C372.957 202.612 372.961 202.607 378.673 211.156C383.879 218.961 388.264 227.203 392.229 235.707C393.831 239.154 393.997 241.644 390.537 243.931C388.453 245.312 386.698 247.188 384.821 248.871C382.633 250.833 379.62 252.309 381.596 256.283C382.503 258.106 380.77 258.534 379.268 258.972C370.827 261.449 362.224 261.507 353.558 260.948C351.072 260.79 349.89 259.4 348.947 257.145C339.365 234.268 323.905 216.498 302.138 204.511C298.001 202.233 300.514 200.442 301.497 198.249C304.285 191.762 308.932 186.466 313.114 180.949C316.953 175.891 319.209 170.189 321.812 164.582Z" fill="#D09700"/>
<path fill-rule="evenodd" clip-rule="evenodd" d="M246.355 336.779C243.207 299.254 240.031 261.728 236.99 224.194C236.819 222.114 234.725 218.938 238.546 217.969C241.826 217.134 244.05 217.445 244.226 222.236C245.155 247.987 246.536 273.728 247.754 299.47C248.399 313.148 249.026 326.827 249.685 340.51C249.748 341.863 249.969 343.203 250.118 344.552C250.628 344.543 251.147 344.538 251.656 344.534C251.656 336.589 251.521 328.649 251.683 320.709C252.351 287.908 253.095 255.106 253.885 222.304C253.93 220.54 252.522 217.766 256.474 217.811C260.196 217.856 259.307 220.369 259.213 222.304C258.22 243.904 257.138 265.5 256.109 287.1C255.288 304.378 254.521 321.661 253.736 338.944C253.488 345.215 253.294 351.486 253.253 356.615C253.722 352.911 252.617 347.75 254.738 343.081C257.886 312.436 261.035 281.795 264.189 251.149C265.073 242.546 265.957 233.948 266.846 225.349C266.972 224.095 267.153 222.845 267.311 221.596C267.523 219.859 267.929 218.546 270.247 218.713C272.814 218.902 272.472 220.499 272.314 222.114C271.1 234.669 269.909 247.225 268.646 259.77C265.894 287.195 263.097 314.615 260.336 342.039C259.145 353.868 257.792 365.687 256.953 377.543C256.614 382.307 253.393 381.558 250.596 382.086C246.789 382.803 247.208 379.812 246.892 377.678C243.058 351.49 239.259 325.297 235.479 299.1C232.005 275.041 228.518 250.987 225.184 226.915C224.814 224.271 222.409 219.904 226.113 219.142C231.044 218.131 229.181 223.567 229.515 225.845C234.554 260.231 239.264 294.666 244.037 329.087C244.528 332.651 244.921 336.233 245.358 339.806C247.501 344.06 246.004 349.027 247.876 352.965C248.241 353.994 249.139 352.965 248.534 353.362C248.359 353.475 248.237 353.385 248.115 353.101C245.846 347.85 246.897 342.228 246.355 336.779Z" fill="#D09700"/>
<path fill-rule="evenodd" clip-rule="evenodd" d="M175.997 167.618C175.965 167.076 175.997 166.526 175.898 166.003C174.125 156.416 174.143 156.533 184.212 154.747C228.342 146.911 272.363 147.845 316.416 155.609C321.442 156.497 321.505 158.599 320.86 162.231C320.066 163.422 320.824 164.694 320.666 165.912C320.264 168.985 319.087 170.893 315.383 170.063C305.255 167.78 294.983 166.206 284.675 165.064C279.175 164.451 273.653 163.679 268.105 163.603C259.28 163.481 250.447 163.747 241.628 163.535C221.611 163.057 201.978 166.048 182.385 169.598C180.089 170.013 176.953 172.003 175.997 167.618Z" fill="#D09700"/>
<path fill-rule="evenodd" clip-rule="evenodd" d="M298.055 142.417C298.055 144.199 298.046 145.977 298.055 147.754C298.064 149.293 297.988 150.7 295.822 150.551C293.914 150.416 293.517 149.243 293.449 147.614C293.363 145.544 293.851 143.369 291.816 141.348C291.726 143.293 291.572 145.237 291.568 147.181C291.563 148.959 290.959 149.82 289.019 149.685C287.368 149.568 286.249 149.229 286.312 147.244C286.398 144.93 286.335 142.611 286.335 139.602C283.208 141.768 284.508 144.299 284.39 146.342C284.255 148.711 283.596 149.261 281.129 149.026C263.702 147.353 246.229 146.744 228.734 147.777C225.261 147.98 224.196 146.798 224.543 143.536C224.661 142.426 225.049 141.082 223.668 139.869C221.886 141.691 222.748 143.933 222.617 145.891C222.491 147.79 221.552 148.35 219.861 148.386C217.979 148.426 218.101 147.141 217.903 145.855C217.627 144.073 218.9 141.853 216.608 140.559C213.937 142.742 218.543 148.521 213.08 148.602C208.163 148.679 212.408 143.356 209.927 141.452C208.027 142.652 208.961 144.637 208.83 146.279C208.7 148.016 208.663 149.419 206.327 149.581C203.737 149.766 203.99 148.147 203.827 146.491C203.66 144.831 204.648 142.869 201.675 140.766C201.675 143.635 201.621 145.774 201.689 147.908C201.766 150.213 200.29 150.452 198.517 150.578C196.194 150.745 196.564 149.139 196.433 147.741C196.221 145.512 197.029 143.171 195.508 140.365C193.817 143.044 194.52 145.557 194.498 147.854C194.475 150.222 193.875 151.53 191.227 151.697C187.947 151.896 188.381 149.708 188.43 147.79C188.755 135.935 186.238 138.321 197.954 136.368C232.05 130.688 266.147 131.126 300.198 136.783C302.346 137.139 305.846 136.435 306.347 138.944C307.114 142.747 306.83 146.852 306.383 150.763C306.18 152.527 303.961 151.557 302.63 151.548C300.952 151.539 299.986 150.741 299.941 148.905C299.887 146.676 299.679 144.452 299.544 142.223C299.052 142.282 298.556 142.35 298.055 142.417Z" fill="#D09700"/>
<path fill-rule="evenodd" clip-rule="evenodd" d="M149.425 270.038C150.765 262.955 153.364 257.303 156.093 251.709C165.107 233.262 178.519 218.785 195.946 208.03C197.313 207.182 198.878 204.944 200.552 206.447C202.036 207.777 204.048 209.32 202.92 212.32C202.208 214.22 202.731 216.602 202.776 218.762C202.803 220.287 202.302 222.006 205.104 221.839C206.936 221.731 206.701 223.951 206.981 225.205C207.919 229.427 208.42 233.749 209.525 237.918C210.445 241.396 209.119 242.262 205.957 242.465C198.923 242.916 192.048 244.242 185.448 246.827C180.003 248.961 175.329 252.11 171.237 256.36C165.337 262.495 158.037 266.533 149.425 270.038Z" fill="#FEFEFE"/>
<path fill-rule="evenodd" clip-rule="evenodd" d="M347.495 259.17C343.096 257.988 340.02 256.806 337.213 254.718C323.332 244.396 308.102 237.705 290.413 238.157C287.548 238.229 287.079 237.083 287.517 234.642C288.126 231.286 288.527 227.889 289.087 224.523C289.366 222.85 289.168 220.937 292.186 221.699C295.118 222.439 293.873 219.723 294.04 218.456C294.554 214.54 292.917 210.371 296.106 206.762C297.604 205.071 298.538 204.737 300.482 205.833C322.006 218.018 337.552 235.454 347.495 259.17Z" fill="#FEFEFE"/>
<path fill-rule="evenodd" clip-rule="evenodd" d="M384.018 328.681C384.424 312.598 386.423 296.908 388.656 281.253C389.883 272.646 389.946 272.98 398.459 274.703C402.7 275.56 403.963 277.554 404.274 281.51C405.122 292.306 404.924 303.066 404.292 313.861C404.053 318.002 402.388 320.001 398.346 320.547C395.87 320.881 393.501 321.999 391.02 322.333C387.258 322.848 384.542 324.228 384.018 328.681Z" fill="#D09700"/>
<path fill-rule="evenodd" clip-rule="evenodd" d="M259.456 378.693C261.604 364.447 263.72 350.191 265.903 335.944C271.596 298.735 277.303 261.525 283.055 224.325C283.294 222.787 282.446 220.143 285.406 220.472C288.365 220.802 287.066 223.156 286.84 224.722C279.46 275.709 272.034 326.687 264.667 377.678C264.356 379.844 264.044 381.59 261.333 381.59C259.132 381.594 259.15 380.241 259.456 378.693Z" fill="#CF9600"/>
<path fill-rule="evenodd" clip-rule="evenodd" d="M244.244 379.334C244.565 380.493 244.61 381.653 243.049 381.707C241.091 381.779 240.252 380.52 239.9 378.693C238.47 371.268 236.985 363.842 235.492 356.425C226.907 313.735 218.259 271.058 209.872 228.327C209.444 226.143 206.331 222.087 210.481 221.257C214.226 220.508 213.139 225.214 213.59 227.415C223.767 276.959 233.764 326.547 243.784 376.122C244.005 377.187 244.095 378.265 244.244 379.334Z" fill="#CE9600"/>
<path fill-rule="evenodd" clip-rule="evenodd" d="M248.363 207.953C262.154 207.786 275.124 209.55 288.027 212.176C290.837 212.749 292.186 213.669 291.915 216.683C291.554 220.698 288.654 218.839 287.084 218.573C261.117 214.22 235.181 214.184 209.214 218.568C207.788 218.807 205.424 220.264 204.996 217.161C204.653 214.639 205.005 212.825 208.257 212.158C221.701 209.406 235.217 207.701 248.363 207.953Z" fill="#D09700"/>
<path fill-rule="evenodd" clip-rule="evenodd" d="M348.902 411.612C350.423 411.333 352.11 411.946 353.45 410.733C355.57 408.112 358.778 409.018 361.471 408.346C368.739 406.528 369.641 405.739 370.358 398.367C373.372 367.406 376.227 336.431 379.065 305.452C380.261 292.378 381.551 279.313 382.787 266.244C382.954 264.503 383.68 262.698 382.638 260.97L382.728 261.052C382.787 260.88 382.818 260.578 382.904 260.56C385.065 260.14 387.379 257.591 389.121 259.274C390.082 260.204 389.058 263.316 388.733 265.419C381.957 308.858 378.064 352.546 377.044 396.509C376.769 408.333 379.07 406.776 365.878 410.9C360.402 412.609 354.641 413.44 348.902 411.612Z" fill="#FBFBFB"/>
<path fill-rule="evenodd" clip-rule="evenodd" d="M175.997 167.618C177.21 170.568 179.565 169.237 181.42 168.854C205.668 163.869 230.151 161.852 254.9 162.209C273.681 162.484 292.213 164.685 310.637 168.055C318.437 169.485 318.419 169.598 320.86 162.227C321.176 163.007 321.496 163.792 321.812 164.577C321.609 169.634 319.421 173.816 316.412 177.791C311.318 184.522 306.455 191.424 301.497 198.254C301.186 197.898 300.875 197.541 300.564 197.189C306.252 188.911 311.937 180.628 317.684 172.269C285.915 162.777 223.614 160.661 177.86 171.872C181.92 177.547 185.85 183.037 189.779 188.523C189.477 188.866 189.17 189.213 188.863 189.556C183.95 183.249 178.077 177.619 175.018 170.004C175.347 169.21 175.672 168.416 175.997 167.618Z" fill="#0D0A00"/>
<path fill-rule="evenodd" clip-rule="evenodd" d="M253.628 383.205C259.023 383.205 264.423 383.34 269.81 383.141C272.246 383.047 273.969 383.471 273.252 386.196C272.602 388.627 275.909 392.769 270.401 393.283C259.271 394.321 248.156 394.203 237.013 393.305C231.554 392.863 234.288 388.939 233.755 386.471C233.11 383.507 234.721 382.993 237.459 383.123C242.837 383.394 248.237 383.205 253.628 383.205Z" fill="#CE9600"/>
<path fill-rule="evenodd" clip-rule="evenodd" d="M244.231 395.742C249.116 395.742 253.605 395.872 258.08 395.692C261.13 395.57 261.748 396.924 261.446 399.612C260.616 406.943 259.862 414.288 259.226 421.641C259.037 423.811 258.107 424.889 256.267 423.685C253.885 422.128 249.888 427.573 248.814 421.988C247.149 413.367 245.778 404.688 244.231 395.742Z" fill="#CE9600"/>
<path fill-rule="evenodd" clip-rule="evenodd" d="M381.781 344.376C385.855 348.278 389.152 351.449 392.464 354.603C393.352 355.447 393.56 356.331 393.059 357.481C389.504 365.583 385.859 373.623 379.62 380.457C380.319 368.809 381.014 357.161 381.781 344.376Z" fill="#CE9600"/>
<path fill-rule="evenodd" clip-rule="evenodd" d="M254.774 425.62C259.199 425.62 262.574 429.094 262.497 433.565C262.42 437.81 259.199 441.171 255.062 441.306C250.619 441.45 247.235 438.13 247.181 433.565C247.122 428.895 250.262 425.616 254.774 425.62Z" fill="#CF9600"/>
<path fill-rule="evenodd" clip-rule="evenodd" d="M294.027 392.611C284.999 396.964 275.959 399.707 266.476 400.984C265.497 401.115 263.751 402.455 263.616 400.176C263.521 398.57 262.899 396.306 265.583 395.895C267.36 395.624 269.169 395.39 270.951 395.462C274.163 395.593 276.18 394.821 275.503 391.018C275.07 388.569 276.663 388.469 278.472 388.659C283.678 389.196 288.73 390.287 294.027 392.611Z" fill="#F9F9F9"/>
<path fill-rule="evenodd" clip-rule="evenodd" d="M242.859 401.99C233.683 401.66 225.418 399.784 216.793 396.937C220.564 393.842 224.53 392.394 228.757 391.541C229.397 391.411 230.674 391.51 230.692 391.636C231.468 397.298 235.984 394.921 239.043 395.521C241.934 396.093 241.948 396.003 242.859 401.99Z" fill="#FAFAFA"/>
<path fill-rule="evenodd" clip-rule="evenodd" d="M254.738 343.081C254.336 348.188 253.934 353.295 253.528 358.401C252.947 351.887 251.787 345.373 253.736 338.944C254.07 340.325 254.404 341.7 254.738 343.081Z" fill="#765600"/>
<path fill-rule="evenodd" clip-rule="evenodd" d="M246.356 336.779C248.571 342.404 246.527 348.44 248.219 354.129C245.823 349.604 245.674 344.692 245.359 339.81C245.692 338.804 246.026 337.794 246.356 336.779Z" fill="#7E5C00"/>
<path fill-rule="evenodd" clip-rule="evenodd" d="M123.251 277.148C135.201 305.308 144.043 333.553 149.908 362.732C152.218 374.214 154.32 385.731 155.443 397.402C155.737 400.456 156.991 401.584 160.126 401.927C172.722 403.307 184.844 401.137 197.507 397.032C193.014 401.295 182.087 405.242 173.511 406.086C173.331 406.104 173.15 406.113 172.97 406.127C152.75 407.845 153.034 407.796 149.75 388.036C143.953 353.182 135.485 318.959 124.514 285.363C123.747 283.017 122.299 280.775 123.251 277.148Z" fill="#020202"/>
<path fill-rule="evenodd" clip-rule="evenodd" d="M173.592 410.264C164.565 414.161 155.091 414.387 145.419 412.239C142.194 411.522 142.785 408.68 142.518 406.56C138.914 377.385 133.293 348.625 124.938 320.43C122.993 313.879 120.706 307.423 118.604 300.923C118.076 299.294 116.804 297.102 119.52 296.556C121.654 296.123 121.36 298.595 121.78 299.885C132.684 333.296 140.642 367.438 146.687 402.035C148.04 409.794 148.162 410.074 156.057 410.236C161.926 410.358 167.795 410.264 173.592 410.264Z" fill="#030303"/>
<path fill-rule="evenodd" clip-rule="evenodd" d="M174.671 282.25C175.14 286.297 175.456 288.796 175.699 291.295C175.794 292.311 176.119 293.497 174.441 293.682C172.92 293.853 171.964 293.362 171.81 291.769C171.346 286.933 170.89 282.088 170.489 277.247C170.421 276.417 170.299 275.366 171.571 275.181C173.033 274.965 174.373 274.992 175.388 276.417C177.355 279.174 179.426 281.858 181.817 285.052C182.683 281.912 181.492 279.44 181.496 276.936C181.496 275.817 180.847 274.27 182.859 274.035C184.753 273.819 185.358 274.811 185.489 276.552C185.823 280.856 186.328 285.151 186.635 289.459C186.711 290.542 187.456 292.085 185.534 292.541C184.041 292.892 182.773 292.775 181.74 291.368C179.737 288.652 177.607 286.022 174.671 282.25Z" fill="#070707"/>
<path fill-rule="evenodd" clip-rule="evenodd" d="M174.594 338.687C174.558 332.791 178.032 329.24 183.802 329.267C189.053 329.294 192.504 333.251 192.599 339.346C192.689 345.025 188.935 348.783 183.224 348.738C177.783 348.702 174.635 345.034 174.594 338.687Z" fill="#060606"/>
<path fill-rule="evenodd" clip-rule="evenodd" d="M161.344 346.379C161.349 348.264 162.711 350.385 159.634 350.746C156.296 351.138 157.555 348.463 157.356 347.096C156.788 343.194 156.526 339.242 156.201 335.308C156.093 333.982 155.389 332.367 157.676 332.006C159.864 331.663 159.873 333.228 160.203 334.613C160.667 336.571 159.549 339.395 163.685 338.926C167.353 338.515 167.628 336.734 167.132 333.918C166.857 332.349 166.992 330.964 169.072 330.914C170.809 330.873 171.012 332.136 171.138 333.449C171.576 337.915 172.031 342.382 172.465 346.852C172.609 348.332 172.762 349.663 170.489 349.713C168.197 349.762 168.607 348.224 168.269 346.898C167.822 345.134 169.537 342.17 165.792 342.102C162.688 342.039 159.648 342.048 161.344 346.379Z" fill="#070707"/>
<path fill-rule="evenodd" clip-rule="evenodd" d="M203.76 327.58C204.251 327.679 205.551 327.747 206.687 328.216C208.379 328.915 210.454 330.512 209.782 332.01C208.857 334.063 206.904 333.743 204.987 331.997C203.173 330.346 200.552 330.747 199.429 332.971C197.796 336.215 197.926 339.801 200.778 342.391C202.961 344.371 205.194 343.487 206.489 340.938C207.296 339.341 208.203 338.714 209.823 339.72C211.709 340.893 210.549 342.269 209.908 343.415C208.163 346.537 202.893 347.809 199.302 346.095C195.675 344.358 193.456 339.057 194.538 334.428C195.572 330.003 198.409 327.688 203.76 327.58Z" fill="#070707"/>
<path fill-rule="evenodd" clip-rule="evenodd" d="M168.328 289.211C168.418 290.285 168.508 291.363 168.603 292.432C168.716 293.741 168.116 294.44 166.816 294.575C165.526 294.702 164.922 294.223 164.782 292.829C164.281 287.831 163.654 282.841 163.086 277.852C162.91 276.34 163.938 276.169 165.071 275.971C166.74 275.677 167.182 276.359 167.295 277.951C167.561 281.709 168.048 285.453 168.445 289.198C168.404 289.203 168.364 289.207 168.328 289.211Z" fill="#080808"/>
<path fill-rule="evenodd" clip-rule="evenodd" d="M382.633 260.97C386.274 260.907 384.763 263.573 384.623 265.13C382.841 285.056 380.978 304.978 379.097 324.891C376.742 349.825 374.075 374.737 372.181 399.707C371.748 405.414 369.194 407.62 364.642 409.163C361.002 410.399 357.23 410.615 353.445 410.737C347.17 410.088 341.242 408.301 335.274 405.369C339.284 404.462 342.614 406.415 346.15 406.492C349.024 406.56 351.893 407.033 354.763 406.993C367.042 406.812 367.665 405.883 368.666 393.657C371.572 358.122 374.712 322.604 377.761 287.077C378.253 281.344 379.015 275.61 379.182 269.862C379.291 266.339 380.071 263.388 382.633 260.97Z" fill="#020202"/>
<path fill-rule="evenodd" clip-rule="evenodd" d="M321.388 296.258C316.665 295.789 313.11 294.345 311.842 289.843C310.619 285.489 311.476 281.501 315.027 278.601C318.523 275.74 322.448 276.313 326.165 278.334C328.119 279.395 330.203 281.515 328.89 283.351C327.555 285.214 325.633 283.55 324.225 281.817C322.493 279.683 319.967 279.701 317.95 281.357C315.307 283.531 314.855 286.68 316.028 289.721C316.989 292.211 319.349 292.793 321.916 292.446C322.89 292.315 323.801 291.936 323.95 290.984C324.117 289.91 323.192 289.518 322.25 289.319C321.248 289.107 319.998 289.193 320.422 287.465C320.842 285.747 322.195 285.399 323.269 286.112C325.033 287.28 328.94 285.21 328.57 289.694C328.168 294.507 325.931 296.538 321.388 296.258Z" fill="#050505"/>
<path fill-rule="evenodd" clip-rule="evenodd" d="M336.153 287.966C335.229 291.828 334.66 294.201 334.092 296.574C333.853 297.575 333.916 298.861 332.265 298.527C331.132 298.297 330.131 297.896 330.419 296.447C331.434 291.345 332.44 286.238 333.528 281.154C333.704 280.319 334.164 279.426 335.386 279.877C336.726 280.369 337.931 280.739 338.441 282.494C339.379 285.738 340.719 288.859 341.982 292.283C343.574 289.829 343.34 287.244 344.084 284.953C344.423 283.906 343.881 281.7 346.371 282.196C348.519 282.625 348.135 284.059 347.847 285.498C347.003 289.73 346.232 293.971 345.248 298.166C345.023 299.145 345.501 301.085 343.475 300.796C342.131 300.602 340.674 300.395 340.096 298.635C339.095 295.581 337.881 292.604 336.153 287.966Z" fill="#050505"/>
<path fill-rule="evenodd" clip-rule="evenodd" d="M357.826 284.655C363.42 284.578 367.376 288.097 367.525 293.276C367.696 299.213 363.69 304.112 358.624 304.166C353.084 304.225 349.245 300.679 349.105 295.374C348.943 288.995 352.408 284.727 357.826 284.655Z" fill="#070707"/>
<path fill-rule="evenodd" clip-rule="evenodd" d="M301.827 343.086C301.335 345.531 300.803 347.971 300.365 350.425C300.112 351.815 299.282 352.14 298.051 351.95C296.562 351.72 296.557 350.831 296.828 349.591C297.821 345.012 298.678 340.41 299.684 335.836C299.891 334.884 299.968 333.594 301.47 333.531C302.914 333.472 303.92 334.171 304.367 335.497C305.418 338.642 306.388 341.813 307.47 345.233C309.609 342.923 308.941 340.14 309.839 337.825C310.312 336.594 310.308 335.331 312.149 335.714C313.66 336.03 313.615 337.117 313.389 338.195C312.406 342.955 311.368 347.705 310.358 352.46C310.164 353.367 309.979 354.219 308.747 354.138C307.141 354.039 306.148 353.38 305.666 351.689C304.845 348.797 303.771 345.977 302.806 343.126C302.481 343.113 302.156 343.099 301.827 343.086Z" fill="#070707"/>
<path fill-rule="evenodd" clip-rule="evenodd" d="M292.578 275.646C294.216 278.343 296.44 278.844 298.299 279.846C301.574 281.605 302.603 284.402 301.222 287.565C299.63 291.219 296.278 291.165 292.858 290.438C289.515 289.73 287.26 288.07 286.908 284.452C286.831 283.68 286.921 282.95 287.837 282.828C288.884 282.683 290.061 282.471 290.625 283.757C291.13 284.921 291.505 286.274 292.777 286.735C294.266 287.276 296.106 287.907 297.171 286.189C298.254 284.438 296.512 283.698 295.385 282.891C294.951 282.584 294.406 282.435 293.923 282.196C291.266 280.87 288.744 279.417 289.042 275.844C289.209 273.855 290.287 272.407 292.181 271.861C295.506 270.9 298.624 271.522 301.299 273.742C302.643 274.856 303.523 276.733 302.332 277.965C301.136 279.201 299.458 278.61 298.497 276.774C297.189 274.274 295.172 274.739 292.578 275.646Z" fill="#050505"/>
<path fill-rule="evenodd" clip-rule="evenodd" d="M355.087 363.779C351.208 363.72 348.767 363.053 347.165 360.86C346.128 359.43 344.856 357.183 346.371 355.983C348.041 354.661 349.417 356.308 350.193 358.189C350.923 359.958 352.584 360.278 354.275 359.822C354.839 359.674 355.557 358.974 355.66 358.428C356.012 356.525 354.226 356.204 353.107 355.437C352.074 354.729 350.869 354.233 349.935 353.421C347.946 351.698 347.414 349.532 348.609 347.105C350.251 343.762 353.251 344.055 356.111 344.642C358.751 345.183 360.659 346.785 360.984 349.704C361.065 350.425 360.966 351.332 360.09 351.346C359.242 351.359 358.173 351.152 357.587 350.619C356.581 349.704 356.364 347.971 354.636 347.768C353.734 347.66 352.796 347.565 352.259 348.517C351.686 349.537 352.34 350.218 353.107 350.696C354.478 351.544 355.994 352.18 357.302 353.114C359.576 354.734 360.627 356.976 359.621 359.714C358.656 362.304 356.757 363.824 355.087 363.779Z" fill="#090909"/>
<path fill-rule="evenodd" clip-rule="evenodd" d="M340.606 360.765C340.43 360.738 340.254 360.698 340.078 360.68C329.806 359.588 329.806 359.588 331.895 349.469C331.931 349.293 331.967 349.117 332.003 348.941C333.844 340.325 336.613 338.912 344.68 342.449C345.767 342.923 346.543 343.356 346.123 344.8C345.704 346.243 344.815 345.81 343.741 345.968C341.269 346.338 337.601 342.233 336.632 346.51C335.838 350.019 340.57 347.971 342.374 349.41C343.101 349.988 344.59 349.663 344.183 351.382C343.782 353.078 342.735 352.861 341.368 352.902C339.207 352.961 335.752 349.18 335.093 354.012C334.516 358.234 338.964 356.218 340.976 357.341C341.982 357.901 343.732 357.504 343.493 359.38C343.277 361.108 341.932 361.045 340.606 360.765Z" fill="#050505"/>
<path fill-rule="evenodd" clip-rule="evenodd" d="M322.723 337.861C325.958 337.771 328.335 339.088 329.612 342.079C330.009 343.004 330.6 344.295 329.116 344.804C328.245 345.102 327.095 345.621 326.364 344.173C325.037 341.556 322.886 339.9 320.44 342.4C318.126 344.755 316.994 348.03 318.667 351.337C320.043 354.053 322.267 354.274 324.252 352.022C325.583 350.52 326.698 350.592 327.83 351.833C329.346 353.502 327.478 354.45 326.634 355.275C324.108 357.729 321.09 357.779 318.153 356.123C313.691 353.597 313.728 349.343 314.688 345.174C315.645 341.082 317.873 337.893 322.723 337.861Z" fill="#070707"/>
<path fill-rule="evenodd" clip-rule="evenodd" d="M282.333 341.651C284.138 338.506 285.875 335.849 287.219 333.007C288.121 331.094 289.443 330.512 291.013 331.442C293.025 332.633 290.995 333.9 290.49 334.866C288.496 338.66 286.294 342.35 284.07 346.022C283.398 347.132 283.109 348.851 281.07 348.481C279.139 348.134 278.544 346.997 278.359 345.143C277.899 340.519 277.177 335.917 276.712 331.288C276.617 330.314 275.688 328.491 277.831 328.487C279.261 328.482 280.583 329.105 280.745 330.986C281.039 334.334 280.854 337.767 282.333 341.651Z" fill="#0B0B0B"/>
<path fill-rule="evenodd" clip-rule="evenodd" d="M310.448 277.166C309.568 281.673 308.747 285.914 307.908 290.154C307.624 291.589 307.421 293.019 305.278 292.735C302.927 292.428 303.496 290.867 303.758 289.523C304.592 285.286 305.449 281.046 306.446 276.846C306.717 275.709 306.266 273.584 308.765 274.252C310.529 274.725 311.156 275.695 310.448 277.166Z" fill="#070707"/>
<path fill-rule="evenodd" clip-rule="evenodd" d="M290.264 347.917C291.184 343.329 292.073 338.931 292.948 334.519C293.26 332.922 293.833 331.857 295.822 332.303C297.848 332.759 297.144 334.122 296.909 335.231C295.993 339.634 294.965 344.001 294.022 348.395C293.765 349.582 294.009 351.052 292.006 350.75C290.093 350.466 289.533 349.501 290.264 347.917Z" fill="#121212"/>
<path fill-rule="evenodd" clip-rule="evenodd" d="M288.455 174.29C282.721 183.601 276.996 192.913 271.263 202.228C270.708 201.895 270.153 201.565 269.593 201.231C275.314 191.911 281.025 182.591 286.745 173.27C287.314 173.609 287.882 173.947 288.455 174.29Z" fill="#1C1400"/>
<path fill-rule="evenodd" clip-rule="evenodd" d="M224.534 200.447C219.094 190.941 213.657 181.44 208.217 171.935C208.79 171.601 209.363 171.272 209.936 170.938C215.345 180.457 220.758 189.98 226.167 199.499C225.621 199.819 225.08 200.131 224.534 200.447Z" fill="#1B1400"/>
<path fill-rule="evenodd" clip-rule="evenodd" d="M235.082 199.517C229.551 190.003 224.02 180.484 218.489 170.965C219.039 170.64 219.585 170.311 220.131 169.986C225.667 179.5 231.202 189.015 236.737 198.529C236.187 198.859 235.632 199.188 235.082 199.517Z" fill="#1A1300"/>
<path fill-rule="evenodd" clip-rule="evenodd" d="M208.483 203.835C203.155 194.334 197.823 184.828 192.495 175.328C193.054 175.021 193.609 174.709 194.164 174.403C199.528 183.913 204.887 193.418 210.251 202.928C209.665 203.226 209.074 203.528 208.483 203.835Z" fill="#181200"/>
<path fill-rule="evenodd" clip-rule="evenodd" d="M258.125 200.469C263.886 191.113 269.652 181.756 275.413 172.4C275.936 172.72 276.459 173.04 276.987 173.361C271.249 182.767 265.511 192.177 259.772 201.588C259.222 201.213 258.671 200.844 258.125 200.469Z" fill="#1B1300"/>
<path fill-rule="evenodd" clip-rule="evenodd" d="M277.772 201.791C283.493 192.556 289.209 183.322 294.929 174.082C295.457 174.407 295.98 174.732 296.512 175.052C290.833 184.301 285.157 193.553 279.487 202.801C278.914 202.468 278.341 202.129 277.772 201.791Z" fill="#1A1300"/>
<path fill-rule="evenodd" clip-rule="evenodd" d="M216.603 201.61C211.09 192.141 205.582 182.672 200.065 173.203C200.615 172.887 201.161 172.567 201.707 172.251C207.215 181.661 212.719 191.076 218.227 200.487C217.686 200.862 217.145 201.236 216.603 201.61Z" fill="#191200"/>
<path fill-rule="evenodd" clip-rule="evenodd" d="M285.839 203.866C291.505 194.663 297.176 185.46 302.842 176.257C303.356 176.573 303.875 176.893 304.389 177.209C298.759 186.403 293.129 195.592 287.499 204.782C286.948 204.475 286.389 204.168 285.839 203.866Z" fill="#171100"/>
<path fill-rule="evenodd" clip-rule="evenodd" d="M188.308 339.625C188.426 342.846 186.752 345.17 183.734 345.111C179.692 345.034 178.645 341.764 178.613 338.245C178.586 335.105 180.215 332.818 183.301 332.813C187.582 332.804 188.177 336.215 188.308 339.625Z" fill="#F8F8F8"/>
<path fill-rule="evenodd" clip-rule="evenodd" d="M353.305 294.142C353.738 291.327 354.492 287.984 358.836 288.201C362.053 288.363 363.56 290.515 363.212 293.763C362.847 297.192 361.895 300.435 357.672 300.332C354.361 300.25 353.165 297.828 353.305 294.142Z" fill="#FBFBFB"/>
</g>
<defs>
<clipPath id="clip0_19_355">
<rect width="500" height="547.449" fill="white"/>
</clipPath>
</defs>
</svg>
