<?xml version="1.0" encoding="UTF-8"?><svg id="Capa_2" xmlns="http://www.w3.org/2000/svg" viewBox="0 0 183.69 268"><defs><style>.cls-1{fill:#000;stroke-width:0px;}</style></defs><g id="Capa_1-2"><path class="cls-1" d="M2.96,224.4c4.26,2.47,8.53,4.48,13.17,5.61,5.59,1.36,11.19,1.55,16.85.53,1.13-.2,2.25-.34,3.36.29,9.02,5.09,18.56,4.71,28.04,2.05,8.19-2.3,16.01-5.56,21.78-12.35,3.9-4.59,6.04-9.95,7.24-15.73.33-1.6.93-2.16,2.57-2.18,9.27-.11,16.62-6.91,17.9-17.39.71-5.77.53-11.5-1.29-17.06-.52-1.59.34-2.36,1.32-3.07,2.72-1.98,5.79-3.08,9.16-3.31,4.75-.33,9.39.32,13.8,2.08,2.05.82,2.81.16,3.35-1.69,4.07-13.94,5.07-28.09,3.22-42.5-4.32-33.76-32.35-64.85-62.58-74.88-13.61-4.51-27.5-5.59-41.66-3.91-2.37.28-4.73.62-7.08,1.02-.89.15-2.15,0-2.02,1.54.12,1.39.84,1.9,2.28,1.93,7.51.17,14.91,1.15,22.14,3.21,13.03,3.7,25.03,9.5,35.77,17.79,2.72,2.1,4.09,5.11,5.22,8.22,1.04,2.86,2,5.75,2.35,8.8.05.46.29,1.02-.29,1.31-.44.22-.75-.19-1.08-.41-15.57-10.51-33.34-14.89-51.41-18.39-10.59-2.06-21.31-3.11-32.07-3.86-1.62-.11-2.66-.06-2.67,2.04-.03,3.89-.1,3.96,2.51,3.98,12.8.1,25.42,1.54,37.78,4.96.87.24,1.72.57,2.59.81,1.17.32,1.47.78.62,1.85-.71.89-1.49,1.88-1.72,2.94-.47,2.22-1.6,1.81-3.13,1.25-11.49-4.17-23.23-7.23-35.53-7.6-1.1-.03-2.77-.88-3.09,1.32-.31,2.16.6,2.97,2.7,3.44,9.71,2.14,19.38,4.46,29.07,6.72,1.52.36,2.86,4.79,1.7,5.85-.65.59-1.58.06-2.32-.1-8.66-1.93-17.31-3.92-25.96-5.89-.64-.15-1.28-.36-1.93-.4-1.12-.07-2.61-1.56-3.2.65-.68,2.56,0,3.91,2.3,4.48,9.73,2.41,19.46,4.81,29.22,7.09,2.38.56,4.27,1.33,5.18,3.86.87,2.4,2.83,4.16,4.55,6.57-4.49.17-8.42-.93-12.37-1.79-8.94-1.96-17.51-5.11-26.09-8.2-2.7-.97-2.57-.88-2.91,1.8-.39,3.05,1.3,3.92,3.7,4.71,9.45,3.12,19.1,5.52,29.12,8.12-1.56,1.78-2.8,3.42-5.25,3.23-7.88-.61-15.79-.25-23.68-.58-3.63-.15-4.86,1.45-3.77,4.94.42,1.35,1.54,1.06,2.44,1.07,5.1.05,10.21.03,15.31.04,6.41,0,12.83,0,19.64,0-1.53,3.57-1.86,6.98-.82,10.47.33,1.11-.66.91-1.25.87-9.59-.73-19.18-1.48-28.76-2.22-.9-.07-1.8-.16-2.71-.2-3.93-.17-4.69.8-3.9,4.7.33,1.65,1.53,1.2,2.51,1.2,5.51.03,11.01.01,16.87.01-8.66,4.63-17.19,9.19-26.06,13.93,0-3.35-.21-6.35.04-9.32.68-8.06.19-16.13.29-24.19.15-12.59,0-25.18-.06-37.78-.12-24.28-.27-48.56-.4-72.84C3.56-.37,3.07.08,7.44.07,27.61.06,47.78.09,67.95,0c2.12,0,2.83.76,3.25,2.68,1.55,7.06,3.26,14.07,4.85,21.12.32,1.42,1.03,2.27,2.42,2.79,3.39,1.26,6.77,2.57,10.07,4.03,1.37.6,2.26.36,3.3-.58,5.87-5.28,11.83-10.47,17.65-15.81,1.43-1.31,2.4-1.41,3.97-.26,10.16,7.43,20.37,14.79,30.6,22.12,1.32.95,1.21,1.81.65,3.12-2.93,6.79-5.72,13.65-8.67,20.43-.78,1.79-.72,3.24.47,4.8,2.05,2.68,4.04,5.4,5.93,8.19.82,1.21,1.74,1.53,3.12,1.39,7.51-.78,15.04-1.46,22.55-2.28,1.96-.21,2.95.34,3.61,2.31,3.82,11.55,7.74,23.07,11.72,34.57.57,1.65.21,2.44-1.24,3.34-6.27,3.93-12.46,8.01-18.69,12.01-.95.61-1.58,1.22-1.59,2.51-.02,3.87-.1,7.74-.36,11.6-.13,1.94.62,2.99,2.23,3.92,6.05,3.5,12.01,7.17,18.08,10.64,1.72.99,2.18,1.92,1.58,3.9-3.41,11.24-6.72,22.51-9.94,33.81-.63,2.22-1.47,3.23-4.01,3.04-7.62-.58-15.26-.85-22.89-1.32-1.3-.08-2.19.26-2.93,1.33-2.04,2.99-4.1,5.97-6.22,8.9-.77,1.07-.77,1.98-.25,3.18,3.04,6.92,5.97,13.9,9.02,20.82.67,1.51.59,2.36-.85,3.46-9.66,7.41-19.24,14.93-28.83,22.43-2.81,2.2-2.77,2.18-5.45-.24-5.43-4.91-10.92-9.75-16.33-14.68-1.19-1.08-2.27-1.31-3.79-.75-3.32,1.22-6.68,2.32-10.05,3.39-1.42.45-2.08,1.28-2.37,2.77-1.51,7.65-3.19,15.27-4.67,22.93-.35,1.82-1.09,2.4-2.92,2.39-21.73-.07-43.47-.06-65.2-.06-1.2,0-2.24.1-2.27-1.69-.21-13.58-.49-27.16-.74-40.73,0-.3.11-.6.22-1.13Z"/><path class="cls-1" d="M42.55,203.81c-.07-17.98.63-34.8,4.45-51.34.98-4.25,2.2-8.42,3.78-12.49.51-1.31,1.09-1.53,2.38-1.03,3.79,1.45,3.77,1.4,3.79,5.45.07,12.84,1.5,25.47,7.14,37.2,4.53,9.43,10.99,17.15,20.97,21.28,1.44.59,1.24,1.48.95,2.57-1.73,6.38-5.59,11.1-11.29,14.31-6.87,3.87-14.37,4.99-22.14,4.81-2.3-.05-4.61-.09-6.91-.19-1.69-.07-2.55-.68-2.64-2.69-.29-6.33-.43-12.66-.49-17.89Z"/><path class="cls-1" d="M23.84,221.26c-5.53-.35-10.97-1.03-16.02-3.56-6.4-3.2-7.9-6.62-5.85-13.42,2.1-6.99,5.62-13.31,9.25-19.57,8.58-14.82,18.39-28.82,28.66-42.51,1.43-1.91,2.81-3.85,4.23-5.77.52-.7,1.28-1.33,2.09-.81.93.6-.03,1.32-.29,1.89-5.05,11.02-7.45,22.76-9.43,34.62-2,11.92-3.51,23.9-4.59,35.93-.32,3.52-.63,7.05-.72,10.59-.05,1.91-.76,2.68-2.62,2.62-1.56-.06-3.13-.01-4.69-.01Z"/><path class="cls-1" d="M70.32,150.08c1.22.83,2.41,1.69,3.65,2.49,1.15.73,2.45,1,3.79.78,3.02-.5,4.12-3.22,2.32-5.65-5.34-7.21-5.79-15.7-1.1-23.42,1.86-3.06,4.31-5.37,8.65-5.01-1.15,1.61-2.48,3.08-.31,4.63,1.7,1.22,5.11,1.18,6.71-.23.43-.38.82-.82,1.13-1.3.72-1.09,1.73-2.17,1.12-3.59-.67-1.57-2.21-1.1-3.48-1.16-1.15-.05-2.31.02-3.45-.08-.55-.05-1.18-.33-1.17-1.04,0-.55.5-.81.97-1,2.23-.9,4.59-1.72,6.94-1.53,3.67.3,4.56-.75,5.19-4.94.54-3.6.69-3.73,4.07-2.14,2.81,1.32,3.79,2.84,3.12,4.82-1,2.95-4.05,4.96-6.67,4.31-1.41-.35-2.03.2-2.18,1.52-.2,1.78.35,3.42.97,5.03,1.29,3.38,2.82,6.67,3.87,10.12,1.38,4.54-.13,6.71-4.72,7.5-2.84.49-3.78,1.82-3.2,4.58.14.68.77,1.47-.46,1.72-1.96.4-1.81,1.87-1.66,3.28.11,1.05.23,1.8-1.18,2.19-2.62.73-3.23,2.31-2.03,4.8,1.59,3.29,4.45,4.72,7.94,5.02,1.3.11,2.62.02,4.58.02-2.68,2.11-5.18,3.25-7.97,3.71-3.69.61-7.22-.06-10.51-1.81-6.12-3.25-11.26-7.63-14.94-13.62Z"/><path class="cls-1" d="M62.55,145.04c2.61,6.07,5.31,11.22,9.06,15.75,8.86,10.68,19.98,13.76,33.15,9.74,1.61-.49,2.52-.39,2.7,1.47.9,9.08-.95,17.16-8.3,23.31-1.36,1.14-2.69,1.53-4.51,1.05-11.19-2.93-19.46-9.48-25.06-19.59-4.19-7.57-5.97-15.76-6.82-24.24-.23-2.26-.66-4.51-.24-7.5Z"/><path class="cls-1" d="M100.63,74.01c5.04.95,9.28,2.68,13.13,5.13,11.35,7.23,18.2,17.42,19.33,31.01.46,5.54-.63,10.69-5.64,14.17-.32.22-.64.53-1.09.33,2.63-9.39-2.08-13.19-7.94-17.39-3.83-2.74-8.24-4.43-12.66-6.01-.9-.32-1.9-.47-1.6-1.96,1.76-8.64,1.06-17-3.53-25.28Z"/><path class="cls-1" d="M3.79,184.91c-1.94-4.34-2.26-8.62-3.23-12.75-2.5-10.67,3.77-16.85,11.14-22.45,6.82-5.18,14.18-9.51,21.98-13.05.66-.3,1.29-.78,2.38-.32-13.23,14.4-22.54,31.32-32.28,48.57Z"/><path class="cls-1" d="M51.77,126.26c0-5.83,4.84-10.88,10.48-10.91,5.56-.03,10.29,5.02,10.35,11.03.06,5.62-4.98,11.01-10.24,10.95-5.87-.06-10.58-4.99-10.58-11.08ZM62.2,133.37c4.36-.01,7.1-2.82,7.12-7.31.02-4.61-2.81-7.64-7.13-7.62-4.25.02-7.28,3.2-7.27,7.63,0,4.19,3.12,7.31,7.29,7.3Z"/><path class="cls-1" d="M90.99,109.63c-4.37,1-8.34,2.12-11.52,4.94-1.33,1.18-2.41,3.51-3.74,3.62-1.54.13-2.2-2.52-3.53-3.74-4.5-4.13-9.81-4.46-15.5-3.43,5.63-5.63,23.26-4.92,34.29-1.39Z"/><path class="cls-1" d="M97.86,91.88c-7.65,4.95-15.77,5.51-24.04,6.2.26-1.23,1.18-1.42,1.77-1.91,3.37-2.81,5.23-6.27,4.9-10.75-.07-.9-.23-1.84,1.18-1.18,5.24,2.46,10.47,4.94,16.18,7.63Z"/><path class="cls-1" d="M65.57,88.56c-3.83-.03-6.68-2.91-6.64-6.71.04-3.36,3.22-6.44,6.56-6.35,3.59.1,6.66,3.19,6.6,6.65-.06,3.38-3.17,6.44-6.52,6.41ZM67.73,77.67c-1.5.14-2.5.92-2.5,2.62,0,1.76.91,2.83,2.7,2.78,1.59-.04,2.68-.97,2.69-2.61,0-1.71-.98-2.71-2.88-2.8Z"/><path class="cls-1" d="M51.63,92c3.65,5.94,8.86,9.52,15.74,10.15,4.49.41,9.03.2,13.55.29,5.63.11,11.07-.74,16.43-3.55-.34,2.18-.63,3.93-.89,5.69-.24,1.64-1.36.85-2.06.65-6.46-1.78-13.01-2.63-19.72-2.52-4.31.07-8.53.62-12.63,1.84-1.74.52-2.95.13-4.21-1.06-3.31-3.15-5.24-7.02-6.2-11.48Z"/><path class="cls-1" d="M73.26,146.4c-2.19-1.88-3.37-3.74-4.63-5.51-.62-.87,1.27-3.58,2.4-3.6.98-.02.67.77.68,1.23.03,2.46.58,4.82,1.55,7.87Z"/><path class="cls-1" d="M71.79,92.14c-3.12,3.29-7.83,3.23-11.93,0,3.86,1.88,7.75,1.38,11.93,0Z"/></g></svg>